<svg width="131" height="130" viewBox="0 0 131 130" fill="none" xmlns="http://www.w3.org/2000/svg">
<rect x="1.29878" y="0.798781" width="128.402" height="128.402" rx="19.2012" stroke="url(#paint0_linear_4046_1295)" stroke-width="1.59756"/>
<rect x="1.29878" y="0.798781" width="128.402" height="128.402" rx="19.2012" stroke="url(#paint1_linear_4046_1295)" stroke-width="1.59756"/>
<g clip-path="url(#clip0_4046_1295)">
<g clip-path="url(#clip1_4046_1295)">
<path d="M67.7874 95.3785C51.9063 95.3785 38.9858 82.458 38.9858 66.5769C38.9858 50.6959 51.9063 37.7754 67.7874 37.7754C83.6684 37.7754 96.5889 50.6959 96.5889 66.5769C96.5889 82.458 83.6684 95.3785 67.7874 95.3785ZM67.7874 43.1338C54.8602 43.1338 44.3443 53.6497 44.3443 66.5769C44.3443 79.5041 54.8602 90.02 67.7874 90.02C80.7146 90.02 91.2305 79.5041 91.2305 66.5769C91.2305 53.6497 80.7146 43.1338 67.7874 43.1338Z" fill="#D76F30"/>
<path d="M56.2602 77.7363C55.4364 77.7363 54.6192 77.3545 54.0968 76.6378C53.5408 75.8743 48.7317 68.9619 51.6252 60.5558C54.3178 52.7392 61.3708 50.0735 62.7573 49.618C64.1639 49.1625 65.6777 49.9261 66.1398 51.3327C66.602 52.7393 65.8317 54.253 64.4251 54.7152C63.8357 54.9094 58.5979 56.7647 56.6889 62.304C54.646 68.2318 58.2563 73.2687 58.417 73.4764C59.2945 74.6686 59.0332 76.3498 57.841 77.2206C57.3654 77.5688 56.8095 77.7363 56.2602 77.7363Z" fill="#D76F30"/>
<path d="M62.8375 82.3909C64.2358 82.3909 65.3694 81.2573 65.3694 79.859C65.3694 78.4607 64.2358 77.3271 62.8375 77.3271C61.4392 77.3271 60.3057 78.4607 60.3057 79.859C60.3057 81.2573 61.4392 82.3909 62.8375 82.3909Z" fill="#D76F30"/>
<path d="M24.8933 62.8797C18.9387 62.8797 14.0894 58.3586 14.0894 52.7992V36.7909H19.4478V52.7992C19.4478 55.4047 21.8926 57.5213 24.8933 57.5213C27.894 57.5213 30.3388 55.4047 30.3388 52.7992V36.7842H35.6972V52.7992C35.6972 58.3586 30.8478 62.8797 24.8933 62.8797Z" fill="#D76F30"/>
<path d="M27.5725 36.7842H22.2141V92.0028H27.5725V36.7842Z" fill="#D76F30"/>
<path d="M108.21 92.1767H102.852V34.6406L105.692 34.8081C107.018 34.8885 110.394 35.3841 113.086 38.2777C115.417 40.7827 115.906 43.6361 115.993 45.1097L116 45.2637V62.8661L115.967 63.0671C115.746 64.5005 114.875 68.104 111.472 70.5756C110.367 71.3793 109.242 71.8817 108.21 72.1898V92.1767ZM108.21 41.1243V66.329C108.25 66.3022 108.291 66.2754 108.324 66.2486C109.985 65.043 110.494 63.2077 110.635 62.4509V45.3642C110.588 44.7078 110.34 43.2074 109.155 41.9348C108.86 41.6066 108.532 41.3387 108.21 41.1243Z" fill="#D76F30"/>
</g>
</g>
<defs>
<linearGradient id="paint0_linear_4046_1295" x1="11.2012" y1="137.134" x2="136.445" y2="-8.71952" gradientUnits="userSpaceOnUse">
<stop stop-color="#FC927D"/>
<stop offset="0.25" stop-color="#FC927D" stop-opacity="0"/>
</linearGradient>
<linearGradient id="paint1_linear_4046_1295" x1="130.104" y1="-16.6463" x2="11.2012" y2="130" gradientUnits="userSpaceOnUse">
<stop stop-color="#FC927D"/>
<stop offset="0.576615" stop-color="#FC927D" stop-opacity="0"/>
</linearGradient>
<clipPath id="clip0_4046_1295">
<rect x="11" y="10.5" width="109" height="109" rx="20" fill="white"/>
</clipPath>
<clipPath id="clip1_4046_1295">
<rect width="101" height="119" fill="white" transform="translate(15 5.5)"/>
</clipPath>
</defs>
</svg>
