<svg width="131" height="130" viewBox="0 0 131 130" fill="none" xmlns="http://www.w3.org/2000/svg">
<rect x="1.29878" y="0.798781" width="128.402" height="128.402" rx="19.2012" stroke="url(#paint0_linear_4046_1338)" stroke-width="1.59756"/>
<rect x="1.29878" y="0.798781" width="128.402" height="128.402" rx="19.2012" stroke="url(#paint1_linear_4046_1338)" stroke-width="1.59756"/>
<path d="M29.105 46.5758C29.1268 45.6174 29.3228 41.4065 32.7061 37.936C36.5104 34.03 41.4111 34.0808 42.2243 34.1026C43.8361 28.9769 48.6496 25.5282 53.9424 25.6516C59.0391 25.7751 63.5477 29.1802 65.0942 34.1026C65.9872 34.1244 71.0694 34.3204 74.823 38.5096C77.6617 41.6751 78.0756 45.2689 78.1627 46.4669C76.0064 46.4669 73.8501 46.4669 71.6937 46.4669C71.5558 45.5956 71.1202 43.7225 69.5665 42.1325C66.4011 38.9017 61.6238 39.998 61.3261 40.0706C61.1156 40.1359 60.5855 40.2593 60.2588 39.9762C60.0337 39.7801 60.0047 39.4825 59.9902 39.3663C59.8813 38.3209 59.6344 37.2826 59.5546 36.2372C59.4094 34.4366 56.5997 32.2004 53.5141 32.2585C51.1762 32.302 49.078 33.667 48.047 35.5982C47.292 36.9995 47.292 38.3571 47.3355 39.0105C47.2992 39.4316 47.1758 39.9181 46.82 40.1141C46.4425 40.3174 45.9706 40.1141 45.8326 40.0633C44.4822 39.5406 40.3802 40.1722 37.7302 42.5826C37.0768 43.178 35.9078 44.434 35.2108 46.6048C33.1779 46.5903 31.1451 46.5831 29.105 46.5758Z" fill="#D76F30"/>
<path d="M91.805 93.6152C87.9135 86.7107 88.5306 80.1038 88.821 77.9838C85.8806 77.04 82.9474 76.0961 80.0143 75.145C78.2065 75.7404 75.6 76.8222 72.9064 78.8405C70.4815 80.6556 66.6117 83.5597 65.5082 88.4386C65.4501 88.7145 64.2014 94.6752 67.7371 99.2855C72.2167 105.137 81.5171 105.072 95.0721 104.978C98.8983 104.949 102.078 104.738 104.3 104.549C102.383 103.78 95.9143 100.912 91.805 93.6152ZM76.1954 97.514C75.3096 96.7444 71.3237 93.0562 72.6233 88.4967C73.7994 84.4019 78.25 83.0587 78.5912 82.9571C78.0322 85.1497 77.4732 87.3423 76.9141 89.5349C78.9397 87.9086 80.9654 86.2895 82.9982 84.6632C82.4174 85.6869 81.1977 88.1772 81.43 91.4807C81.7785 96.3233 84.9948 99.2564 85.6918 99.859C85.0021 99.997 80.0941 100.868 76.1954 97.514Z" fill="#D76F30"/>
<path d="M105.258 27.8878L90.2365 73.192L81.9961 70.0991L100.495 26.1018C101.396 24.9837 102.927 24.6933 104.009 25.3395C104.859 25.8332 105.338 26.8351 105.258 27.8878Z" fill="#D76F30"/>
<path d="M78.0029 53.2334L74.5252 71.9214C72.8844 72.72 71.3234 73.6784 69.8641 74.7747C69.472 75.0723 69.0219 75.3991 68.55 75.7693L67.9256 75.6532L71.6574 55.6075H32.1542L40.4962 98.8498H61.6382C62.1537 100.04 62.8216 101.224 63.7001 102.371C64.0849 102.872 64.4842 103.337 64.9053 103.772V104.658H38.1003C36.7063 104.658 35.5084 103.671 35.2471 102.306L25.7869 53.2552C25.6199 52.3985 25.845 51.52 26.3967 50.852C26.9485 50.1841 27.769 49.7993 28.6402 49.7993H75.1496C76.0135 49.7993 76.834 50.1841 77.3858 50.8448C77.9376 51.5127 78.1626 52.384 78.0029 53.2334Z" fill="#D76F30"/>
<path d="M56.5561 63.456C56.5561 66.0334 54.4724 68.1171 51.895 68.1171C49.3176 68.1171 47.2339 66.0334 47.2339 63.456C47.2339 62.9696 47.3066 62.5049 47.4445 62.0693L29.2938 35.2788C28.909 34.7125 29.0615 33.9429 29.6278 33.5581L32.3794 31.6922C32.9457 31.3075 33.7225 31.4599 34.1073 32.0262L52.2363 58.8021C54.654 58.9764 56.5561 60.9948 56.5561 63.456Z" fill="#D76F30"/>
<defs>
<linearGradient id="paint0_linear_4046_1338" x1="11.2012" y1="137.134" x2="136.445" y2="-8.71952" gradientUnits="userSpaceOnUse">
<stop stop-color="#FC927D"/>
<stop offset="0.25" stop-color="#FC927D" stop-opacity="0"/>
</linearGradient>
<linearGradient id="paint1_linear_4046_1338" x1="130.104" y1="-16.6463" x2="11.2012" y2="130" gradientUnits="userSpaceOnUse">
<stop stop-color="#FC927D"/>
<stop offset="0.576615" stop-color="#FC927D" stop-opacity="0"/>
</linearGradient>
</defs>
</svg>
