<svg width="131" height="130" viewBox="0 0 131 130" fill="none" xmlns="http://www.w3.org/2000/svg">
<rect x="1.29878" y="0.798781" width="128.402" height="128.402" rx="19.2012" stroke="url(#paint0_linear_4046_1246)" stroke-width="1.59756"/>
<rect x="1.29878" y="0.798781" width="128.402" height="128.402" rx="19.2012" stroke="url(#paint1_linear_4046_1246)" stroke-width="1.59756"/>
<path d="M65.0798 100.51C44.7222 100.51 28.1597 83.9476 28.1597 63.59C28.1597 43.2324 44.7222 26.6699 65.0798 26.6699C85.4374 26.6699 102 43.2324 102 63.59C102 83.9476 85.4374 100.51 65.0798 100.51ZM65.0798 31.4826C47.376 31.4826 32.9723 45.8862 32.9723 63.59C32.9723 81.2938 47.376 95.6974 65.0798 95.6974C82.7835 95.6974 97.1872 81.2938 97.1872 63.59C97.1872 45.8862 82.7835 31.4826 65.0798 31.4826Z" fill="#D76F30"/>
<path d="M67.486 29.2686H62.6733V98.1036H67.486V29.2686Z" fill="#D76F30"/>
<path d="M99.5935 61.1838H30.5659V65.9965H99.5935V61.1838Z" fill="#D76F30"/>
<path d="M90.6557 86.8416C89.4182 85.9753 78.5827 77.9313 78.514 63.6032C78.4452 49.1102 89.4044 40.9699 90.6557 40.083L93.4264 44.0157C92.3883 44.7513 83.2648 51.5234 83.3267 63.5757C83.3817 75.4906 92.402 82.1802 93.4264 82.9021L90.6557 86.8416Z" fill="#D76F30"/>
<path d="M39.009 86.9523L36.582 82.7927C36.692 82.7309 47.6374 76.1994 47.6993 63.5764C47.7406 55.608 43.4779 48.1552 36.582 44.1263L39.009 39.9668C47.3899 44.8551 52.567 53.9098 52.5189 63.597C52.4432 78.9426 39.559 86.636 39.009 86.9523Z" fill="#D76F30"/>
<defs>
<linearGradient id="paint0_linear_4046_1246" x1="11.2012" y1="137.134" x2="136.445" y2="-8.71952" gradientUnits="userSpaceOnUse">
<stop stop-color="#FC927D"/>
<stop offset="0.25" stop-color="#FC927D" stop-opacity="0"/>
</linearGradient>
<linearGradient id="paint1_linear_4046_1246" x1="130.104" y1="-16.6463" x2="11.2012" y2="130" gradientUnits="userSpaceOnUse">
<stop stop-color="#FC927D"/>
<stop offset="0.576615" stop-color="#FC927D" stop-opacity="0"/>
</linearGradient>
</defs>
</svg>
