<svg width="131" height="130" viewBox="0 0 131 130" fill="none" xmlns="http://www.w3.org/2000/svg">
<rect x="1.29878" y="0.798781" width="128.402" height="128.402" rx="19.2012" stroke="url(#paint0_linear_4046_1333)" stroke-width="1.59756"/>
<rect x="1.29878" y="0.798781" width="128.402" height="128.402" rx="19.2012" stroke="url(#paint1_linear_4046_1333)" stroke-width="1.59756"/>
<path d="M107.512 44.24C106.833 43.2209 105.721 43.1239 103.752 42.6178C102.078 42.188 99.7661 41.467 97.0425 40.1775C97.0562 39.5258 96.9807 38.4998 96.4181 37.4668C94.8608 34.6244 91.1561 34.569 90.9571 34.569C90.2093 30.3816 89.4684 26.1943 88.7206 22C87.1701 24.5374 76.7694 41.4323 69.3874 49.8555C67.926 51.5263 66.3481 53.1278 64.1116 54.646C60.7568 56.9199 58.3349 57.3636 53.018 59.1661C48.0235 60.8577 44.4491 62.4037 41.4716 63.6863C34.6659 66.6257 31.2699 68.0954 29.0334 70.3832C27.9906 71.4439 22.6805 76.8722 23.5724 84.0337C23.9085 86.7236 25.0062 88.7756 25.8089 90.0027C25.0748 91.0773 24.5602 92.0964 24.2035 92.9838C23.9634 93.5662 21.2672 100.533 24.8278 105.92C25.4315 106.828 26.0558 107.466 26.44 107.82H36.5525V104.721C36.3673 104.055 36.0449 103.175 35.4549 102.253C34.4738 100.728 33.2526 99.8471 32.5254 99.4035C34.4326 97.5663 36.3399 95.7292 38.2472 93.892V103.84C38.405 104.395 38.7137 105.227 39.3243 106.1C39.9143 106.939 40.566 107.487 41.0257 107.82H50.9598C51.1245 107.425 51.3028 106.815 51.2274 106.1C51.1656 105.518 50.9667 105.137 50.6854 104.561C49.5672 102.26 49.8141 102.398 49.4368 101.851C49.0732 101.324 48.3185 100.443 46.8434 99.7709C50.2394 95.5489 53.6423 91.3269 57.0383 87.1118H67.0686V103.244C68.2897 104.832 69.5109 106.412 70.7321 108H83.5271C83.3693 106.821 82.9233 104.762 81.5032 102.669C80.6182 101.358 79.6371 100.45 78.8756 99.861V85.4757C81.2014 83.7911 84.2817 81.0873 86.7516 76.9832C89.1596 72.983 89.9417 69.3988 90.9571 64.7747C91.6157 61.7798 92.3018 57.6548 92.4801 52.6563H104.39C104.843 52.5454 105.598 52.2958 106.256 51.665C106.51 51.4223 107.093 50.7984 107.512 49.0375C107.937 47.2558 108.356 45.5087 107.512 44.24ZM26.7419 80.7407C27.0095 78.0785 28.4022 76.3592 28.8962 75.8046C28.9305 77.3436 28.8824 79.0768 28.6972 80.9625C28.512 82.8413 28.2238 84.5467 27.8945 86.0442C27.5171 85.4064 26.4675 83.4236 26.7419 80.7407ZM47.0218 92.8036C45.4164 94.9388 44.1884 96.984 43.2622 98.7726C42.4115 101.677 42.7202 102.787 43.2622 103.21C44.1061 103.875 45.7389 103.015 46.5554 103.937C46.8709 104.298 46.9258 104.769 46.9326 105.102H43.0839C42.7408 104.97 42.2469 104.707 41.9176 104.201C41.6157 103.736 41.5745 103.258 41.5608 103.022C41.4922 101.955 41.4716 98.7518 41.5608 94.4327C41.8833 93.0046 42.4458 91.209 43.4406 89.2817C44.1061 87.9853 44.8265 86.8969 45.4988 86.0234C47.8245 86.2937 50.1503 86.5641 52.4761 86.8345C50.8021 88.3458 48.8948 90.3147 47.0218 92.8036ZM104.198 48.4967C103.601 48.2125 102.929 48.2818 102.503 48.677C102.147 49.0028 102.078 49.4326 102.064 49.5852H89.2557C88.5559 58.7918 86.9231 65.5581 85.6745 69.7454C84.7826 72.7611 83.7604 75.5481 81.3797 78.2449C79.0746 80.8585 76.4744 82.2797 74.7524 83.0354V102.572C74.9719 102.572 77.723 102.586 78.5668 104.326C78.6629 104.534 78.7521 104.79 78.7864 105.102H73.147C72.8795 104.998 72.2345 104.714 71.72 104.021C71.226 103.362 71.1232 102.69 71.0888 102.398V84.5745C62.026 83.9159 52.9563 83.2503 43.8866 82.5848C42.0617 84.6577 40.47 86.2106 39.4134 87.2019C35.7911 90.5851 33.5065 91.9439 30.5564 95.5212C29.6439 96.6165 28.9716 97.5663 28.5805 98.1417V102.932H31.0915C31.8668 103.119 32.4362 103.702 32.5254 104.381C32.5871 104.901 32.3539 105.317 32.251 105.463H28.409C27.9562 104.769 27.5103 104.076 27.0644 103.383V94.2525C31.1739 88.7687 32.4499 84.0475 32.793 80.5951C33.1428 77.0663 32.5323 74.7508 34.22 72.0956C34.8032 71.1874 35.9146 69.8286 42.3635 67.1248C46.5279 65.3778 49.0732 64.6846 56.414 62.2443C62.664 60.1644 63.4804 59.7831 64.29 59.3464C68.8042 56.9269 71.7337 53.5715 73.5037 51.1173C77.8602 44.6976 82.2167 38.2779 86.5732 31.8583C87.1289 33.6954 87.6846 35.5395 88.2403 37.3767C89.4547 37.4876 90.4632 37.6678 91.2247 37.8273C92.2744 38.0491 92.7683 38.2225 93.1937 38.6385C93.6259 39.0683 93.818 39.5674 93.9072 39.9071V42.9783C95.3342 43.2903 96.4593 43.6508 97.2208 43.9281C99.6083 44.7878 99.4506 45.1344 101.282 45.6543C102.634 46.0356 103.443 46.0564 103.931 46.7774C104.301 47.339 104.274 48.0184 104.198 48.4967Z" fill="#D76F30"/>
<defs>
<linearGradient id="paint0_linear_4046_1333" x1="11.2012" y1="137.134" x2="136.445" y2="-8.71952" gradientUnits="userSpaceOnUse">
<stop stop-color="#FC927D"/>
<stop offset="0.25" stop-color="#FC927D" stop-opacity="0"/>
</linearGradient>
<linearGradient id="paint1_linear_4046_1333" x1="130.104" y1="-16.6463" x2="11.2012" y2="130" gradientUnits="userSpaceOnUse">
<stop stop-color="#FC927D"/>
<stop offset="0.576615" stop-color="#FC927D" stop-opacity="0"/>
</linearGradient>
</defs>
</svg>
