<svg width="141" height="142" viewBox="0 0 141 142" fill="none" xmlns="http://www.w3.org/2000/svg">
<rect x="6.29878" y="6.79878" width="128.402" height="128.402" rx="19.2012" stroke="url(#paint0_linear_4046_1272)" stroke-width="1.59756"/>
<rect x="6.29878" y="6.79878" width="128.402" height="128.402" rx="19.2012" stroke="url(#paint1_linear_4046_1272)" stroke-width="1.59756"/>
<path d="M71.3888 80.922H41.7625C40.7659 80.922 39.8544 80.3813 39.3831 79.5083C38.9119 78.6354 38.9582 77.5693 39.4989 76.7427L56.6027 50.5927C57.1048 49.8279 57.9546 49.3721 58.8662 49.3721H88.4926C89.4891 49.3721 90.4007 49.9128 90.8719 50.7858C91.3431 51.6587 91.2969 52.7248 90.7561 53.5514L73.6524 79.7014C73.1579 80.4662 72.3004 80.922 71.3888 80.922ZM46.7684 75.5144H69.9287L83.4943 54.772H60.334L46.7684 75.5144Z" fill="#D76F30"/>
<path d="M41.7704 98.4579C30.6151 98.4579 21.5303 89.3807 21.5303 78.2177C21.5303 67.0547 30.6074 57.9775 41.7704 57.9775C52.9334 57.9775 62.0106 67.0547 62.0106 78.2177C62.0106 89.3807 52.9257 98.4579 41.7704 98.4579ZM41.7704 63.393C33.5971 63.393 26.938 70.0444 26.938 78.2254C26.938 86.4065 33.5894 93.058 41.7704 93.058C49.9437 93.058 56.6029 86.4065 56.6029 78.2254C56.6029 70.0444 49.9437 63.393 41.7704 63.393Z" fill="#D76F30"/>
<path d="M98.7598 98.4579C87.6045 98.4579 78.5195 89.3807 78.5195 78.2177C78.5195 67.0547 87.5968 57.9775 98.7598 57.9775C109.923 57.9775 119 67.0547 119 78.2177C119 89.3807 109.923 98.4579 98.7598 98.4579ZM98.7598 63.393C90.5864 63.393 83.9272 70.0444 83.9272 78.2254C83.9272 86.4065 90.5787 93.058 98.7598 93.058C106.933 93.058 113.592 86.4065 113.592 78.2254C113.592 70.0444 106.941 63.393 98.7598 63.393Z" fill="#D76F30"/>
<path d="M61.3538 45.5551H43.6706C42.1797 45.5551 40.9668 44.3423 40.9668 42.8513C40.9668 41.3603 42.1797 40.1475 43.6706 40.1475H61.3538C62.8447 40.1475 64.0576 41.3603 64.0576 42.8513C64.0576 44.3423 62.8447 45.5551 61.3538 45.5551Z" fill="#D76F30"/>
<path d="M71.3968 80.9215C70.4234 80.9215 69.4887 80.3961 69.002 79.4768L50.3455 44.1106C49.6502 42.7896 50.1523 41.1518 51.4733 40.4565C52.7943 39.7613 54.4322 40.2634 55.1275 41.5844L73.7839 76.9507C74.4792 78.2717 73.977 79.9095 72.656 80.6047C72.2543 80.821 71.8217 80.9215 71.3968 80.9215Z" fill="#D76F30"/>
<path d="M98.7594 80.9214C97.5465 80.9214 96.4418 80.0948 96.1328 78.8588L87.5963 44.0951C87.241 42.6427 88.1294 41.1827 89.5741 40.8273C91.0264 40.4719 92.4865 41.3603 92.8418 42.805L101.378 77.5687C101.734 79.021 100.845 80.4811 99.4006 80.8364C99.192 80.8982 98.9757 80.9214 98.7594 80.9214Z" fill="#D76F30"/>
<path d="M91.0037 46.2197C90.6792 46.2197 90.347 46.1965 90.0148 46.1579L77.3145 45.8566C75.8236 45.818 74.6416 44.5819 74.6725 43.0909C74.7034 41.6231 75.9085 40.4489 77.3763 40.4489C77.3995 40.4489 77.4227 40.4489 77.4382 40.4489L90.2853 40.7502C90.3934 40.7502 90.5015 40.7579 90.602 40.7734C91.3281 40.8815 92.0466 40.6884 92.6337 40.2326C93.1667 39.8154 93.5144 39.2283 93.5762 38.6257C93.6457 37.9845 93.414 37.3202 92.9427 36.7871C92.6414 36.4549 91.9926 35.891 90.9574 35.8833H84.6226C83.1316 35.8833 81.9188 34.6704 81.9188 33.1794C81.9188 31.6885 83.1316 30.4756 84.6226 30.4756H90.9727C93.2749 30.491 95.4534 31.4799 96.9753 33.1949C98.4663 34.8713 99.1848 37.0652 98.953 39.2206C98.729 41.2755 97.632 43.2068 95.9479 44.5201C94.511 45.6325 92.7882 46.2197 91.0037 46.2197Z" fill="#D76F30"/>
<path d="M31.5033 111.475C33.2995 111.475 34.7557 110.019 34.7557 108.223C34.7557 106.427 33.2995 104.971 31.5033 104.971C29.7071 104.971 28.251 106.427 28.251 108.223C28.251 110.019 29.7071 111.475 31.5033 111.475Z" fill="#D76F30"/>
<path d="M40.7738 111.475C42.57 111.475 44.0262 110.019 44.0262 108.223C44.0262 106.427 42.57 104.971 40.7738 104.971C38.9776 104.971 37.5215 106.427 37.5215 108.223C37.5215 110.019 38.9776 111.475 40.7738 111.475Z" fill="#D76F30"/>
<path d="M50.0443 111.475C51.8405 111.475 53.2967 110.019 53.2967 108.223C53.2967 106.427 51.8405 104.971 50.0443 104.971C48.2481 104.971 46.792 106.427 46.792 108.223C46.792 110.019 48.2481 111.475 50.0443 111.475Z" fill="#D76F30"/>
<path d="M59.3138 111.475C61.11 111.475 62.5662 110.019 62.5662 108.223C62.5662 106.427 61.11 104.971 59.3138 104.971C57.5176 104.971 56.0615 106.427 56.0615 108.223C56.0615 110.019 57.5176 111.475 59.3138 111.475Z" fill="#D76F30"/>
<path d="M68.5843 111.475C70.3806 111.475 71.8367 110.019 71.8367 108.223C71.8367 106.427 70.3806 104.971 68.5843 104.971C66.7881 104.971 65.332 106.427 65.332 108.223C65.332 110.019 66.7881 111.475 68.5843 111.475Z" fill="#D76F30"/>
<path d="M77.8548 111.475C79.6511 111.475 81.1072 110.019 81.1072 108.223C81.1072 106.427 79.6511 104.971 77.8548 104.971C76.0586 104.971 74.6025 106.427 74.6025 108.223C74.6025 110.019 76.0586 111.475 77.8548 111.475Z" fill="#D76F30"/>
<path d="M87.1254 111.475C88.9216 111.475 90.3777 110.019 90.3777 108.223C90.3777 106.427 88.9216 104.971 87.1254 104.971C85.3291 104.971 83.873 106.427 83.873 108.223C83.873 110.019 85.3291 111.475 87.1254 111.475Z" fill="#D76F30"/>
<path d="M96.3954 111.475C98.1916 111.475 99.6478 110.019 99.6478 108.223C99.6478 106.427 98.1916 104.971 96.3954 104.971C94.5992 104.971 93.1431 106.427 93.1431 108.223C93.1431 110.019 94.5992 111.475 96.3954 111.475Z" fill="#D76F30"/>
<path d="M105.665 111.475C107.462 111.475 108.918 110.019 108.918 108.223C108.918 106.427 107.462 104.971 105.665 104.971C103.869 104.971 102.413 106.427 102.413 108.223C102.413 110.019 103.869 111.475 105.665 111.475Z" fill="#D76F30"/>
<path d="M114.936 111.475C116.732 111.475 118.188 110.019 118.188 108.223C118.188 106.427 116.732 104.971 114.936 104.971C113.14 104.971 111.684 106.427 111.684 108.223C111.684 110.019 113.14 111.475 114.936 111.475Z" fill="#D76F30"/>
<defs>
<linearGradient id="paint0_linear_4046_1272" x1="16.2012" y1="143.134" x2="141.445" y2="-2.71952" gradientUnits="userSpaceOnUse">
<stop stop-color="#FC927D"/>
<stop offset="0.25" stop-color="#FC927D" stop-opacity="0"/>
</linearGradient>
<linearGradient id="paint1_linear_4046_1272" x1="135.104" y1="-10.6463" x2="16.2012" y2="136" gradientUnits="userSpaceOnUse">
<stop stop-color="#FC927D"/>
<stop offset="0.576615" stop-color="#FC927D" stop-opacity="0"/>
</linearGradient>
</defs>
</svg>
