<svg width="131" height="130" viewBox="0 0 131 130" fill="none" xmlns="http://www.w3.org/2000/svg">
<rect x="1.29878" y="0.798781" width="128.402" height="128.402" rx="19.2012" stroke="url(#paint0_linear_4046_1220)" stroke-width="1.59756"/>
<rect x="1.29878" y="0.798781" width="128.402" height="128.402" rx="19.2012" stroke="url(#paint1_linear_4046_1220)" stroke-width="1.59756"/>
<path d="M65.1454 80.0391C64.6402 80.0391 64.1349 79.9268 63.6796 79.7022L22.0186 59.5049C20.8584 58.9435 20.1286 57.7895 20.1224 56.4983C20.1161 55.2071 20.8272 54.0407 21.9812 53.4668L63.4675 32.6769C64.3969 32.2091 65.5134 32.2028 66.4491 32.6582L108.104 52.8493C109.264 53.4107 109.994 54.5647 110 55.8559C110.006 57.147 109.295 58.3135 108.141 58.8873L66.6612 79.6835C66.1809 79.9206 65.6632 80.0391 65.1454 80.0391ZM25.7424 56.4609L65.1392 75.5605L104.368 55.8933L64.977 36.8L25.7424 56.4609Z" fill="#D76F30"/>
<path d="M29.098 59.4609H24.7317V84.9728H29.098V59.4609Z" fill="#D76F30"/>
<path d="M41.3424 65.3936H36.9761V79.4344H41.3424V65.3936Z" fill="#D76F30"/>
<path d="M96.184 63.5342H91.8176V79.4401H96.184V63.5342Z" fill="#D76F30"/>
<path d="M66.6113 95.1398C49.0961 95.1398 38.5982 82.2716 37.438 80.7746L40.8874 78.0986C41.9291 79.4397 51.51 91.1851 67.4721 90.761C82.0556 90.3618 90.6885 80.1446 92.2728 78.0986L95.7222 80.7746C93.9258 83.0887 84.139 94.672 67.5906 95.1273C67.26 95.1335 66.9356 95.1398 66.6113 95.1398Z" fill="#D76F30"/>
<path d="M27.0211 96.388C23.21 96.388 20.1099 93.2879 20.1099 89.4767C20.1099 85.6655 23.21 82.5654 27.0211 82.5654C30.8323 82.5654 33.9324 85.6655 33.9324 89.4767C33.9324 93.2879 30.8323 96.388 27.0211 96.388ZM27.0211 86.938C25.6177 86.938 24.4762 88.0795 24.4762 89.4829C24.4762 90.8864 25.6177 92.0279 27.0211 92.0279C28.4246 92.0279 29.5661 90.8864 29.5661 89.4829C29.5661 88.0795 28.4246 86.938 27.0211 86.938Z" fill="#D76F30"/>
<defs>
<linearGradient id="paint0_linear_4046_1220" x1="11.2012" y1="137.134" x2="136.445" y2="-8.71952" gradientUnits="userSpaceOnUse">
<stop stop-color="#FC927D"/>
<stop offset="0.25" stop-color="#FC927D" stop-opacity="0"/>
</linearGradient>
<linearGradient id="paint1_linear_4046_1220" x1="130.104" y1="-16.6463" x2="11.2012" y2="130" gradientUnits="userSpaceOnUse">
<stop stop-color="#FC927D"/>
<stop offset="0.576615" stop-color="#FC927D" stop-opacity="0"/>
</linearGradient>
</defs>
</svg>
