<svg width="131" height="130" viewBox="0 0 131 130" fill="none" xmlns="http://www.w3.org/2000/svg">
<rect x="1.29878" y="0.798781" width="128.402" height="128.402" rx="19.2012" stroke="url(#paint0_linear_4046_1323)" stroke-width="1.59756"/>
<rect x="1.29878" y="0.798781" width="128.402" height="128.402" rx="19.2012" stroke="url(#paint1_linear_4046_1323)" stroke-width="1.59756"/>
<path d="M82.065 73.9371H48.4421C47.0242 73.9371 45.6837 73.2539 44.8459 72.1196C44.008 70.9789 43.7566 69.4901 44.1756 68.1431L47.7074 56.7937C48.2939 54.9118 50.0082 53.655 51.9739 53.655H78.9779C80.9887 53.655 82.7611 55.0085 83.2895 56.9484L86.3767 68.2978C86.744 69.6512 86.4669 71.0691 85.6161 72.1841C84.7654 73.2926 83.47 73.9371 82.065 73.9371ZM49.3766 68.7812H81.1692L78.4559 58.8045H52.483L49.3766 68.7812Z" fill="#D76F30"/>
<path d="M84.5786 109.468C84.1274 109.468 83.6828 109.442 83.2574 109.397C81.9362 109.255 77.4441 108.456 75.0788 104.331C74.4601 103.248 74.1121 102.166 73.9381 101.167H57.7936C57.5359 102.211 57.1427 103.223 56.6078 104.157C55.2608 106.516 53.3918 107.869 52.0642 108.591C51.6839 108.798 51.265 108.901 50.8332 108.901H42.5129C42.2744 108.901 42.0295 108.868 41.7975 108.797C40.8501 108.527 37.6212 107.367 35.894 103.944C35.2172 102.61 34.9594 101.302 34.9079 100.187C34.2892 99.91 33.6383 99.4975 33.0389 98.8981C31.4406 97.3063 31.0345 95.173 31.1892 93.6391L31.3568 76.6246C31.3568 76.5602 31.3632 76.4893 31.3696 76.4249C31.4728 75.2777 31.9175 73.0606 33.7672 71.1594C34.6759 70.2249 35.662 69.6255 36.5513 69.2517L42.4742 49.279C42.7964 48.1834 43.8018 47.4358 44.9426 47.4358H85.6291C86.7376 47.4358 87.7172 48.1447 88.0717 49.1888L94.8517 69.3484C95.8829 69.8382 96.8303 70.502 97.6359 71.3205C98.738 72.4355 99.5693 73.8211 100.027 75.3228C100.104 75.5677 100.143 75.8255 100.143 76.0833V93.9807C100.143 95.0248 99.9174 97.042 98.4286 98.7757C97.5005 99.852 96.2567 100.6 94.7615 101.006C94.6971 102.101 94.4264 103.306 93.8077 104.499C91.9838 107.998 88.0652 109.468 84.5786 109.468ZM55.5379 96.0109H76.3871C77.109 96.0109 77.805 96.3138 78.2884 96.8487C78.7717 97.3836 79.0166 98.099 78.9522 98.8208C78.8813 99.5684 78.9328 100.69 79.5451 101.766C80.6987 103.777 83.1027 104.189 83.8117 104.267C85.4487 104.447 88.2392 104.022 89.2253 102.114C89.7344 101.128 89.6571 100.039 89.496 99.2977C89.3349 98.5372 89.5218 97.751 90.0052 97.1452C90.4885 96.5393 91.2232 96.1849 91.9966 96.1849C93.176 96.1784 94.0912 95.8884 94.5166 95.3986C94.9484 94.8959 94.9806 94.1805 94.9806 93.9742V76.5086C94.8002 76.0446 94.4908 75.471 93.9623 74.9361C93.2856 74.2529 92.538 73.9178 92.0224 73.7631C91.2297 73.5182 90.6046 72.906 90.3403 72.1197L83.7665 52.5852H46.8567L41.1014 72.0101C40.8372 72.906 40.1025 73.5891 39.1873 73.7953C38.807 73.8791 38.0723 74.1176 37.4536 74.7556C36.7382 75.4904 36.5513 76.3797 36.4998 76.7987L36.3322 93.8325C36.3322 93.9356 36.3258 94.0387 36.3129 94.1483C36.3129 94.174 36.242 94.8314 36.6738 95.2632C37.0347 95.6241 37.5374 95.6499 37.6083 95.6306C37.6147 95.6306 37.6212 95.6306 37.6276 95.6306C38.4075 95.6306 39.1422 95.9786 39.632 96.5845C40.1282 97.1903 40.3151 97.9959 40.1476 98.7564C40.0444 99.214 39.8769 100.419 40.4956 101.637C41.153 102.933 42.3324 103.532 42.9253 103.758H50.1178C50.7752 103.319 51.5357 102.636 52.1222 101.611C52.7924 100.438 52.9471 99.3042 52.96 98.5501C52.9858 97.1387 54.133 96.0109 55.5379 96.0109Z" fill="#D76F30"/>
<path d="M45.7869 89.0892C48.2464 89.0892 50.2403 87.0953 50.2403 84.6358C50.2403 82.1762 48.2464 80.1824 45.7869 80.1824C43.3273 80.1824 41.3335 82.1762 41.3335 84.6358C41.3335 87.0953 43.3273 89.0892 45.7869 89.0892Z" fill="#D76F30"/>
<path d="M85.552 89.0892C88.0116 89.0892 90.0055 87.0953 90.0055 84.6358C90.0055 82.1762 88.0116 80.1824 85.552 80.1824C83.0925 80.1824 81.0986 82.1762 81.0986 84.6358C81.0986 87.0953 83.0925 89.0892 85.552 89.0892Z" fill="#D76F30"/>
<path d="M99.4213 39.1347C99.1055 39.1347 98.7833 39.0766 98.4675 38.9542L65.6115 25.8775L32.5041 38.6255C31.1765 39.1411 29.6813 38.4773 29.1721 37.1496C28.663 35.822 29.3204 34.3268 30.6545 33.8176L64.7028 20.7023C65.3086 20.4703 65.9789 20.4767 66.5847 20.7152L100.375 34.1656C101.696 34.6941 102.341 36.1893 101.819 37.517C101.413 38.5159 100.446 39.1347 99.4213 39.1347Z" fill="#D76F30"/>
<defs>
<linearGradient id="paint0_linear_4046_1323" x1="11.2012" y1="137.134" x2="136.445" y2="-8.71952" gradientUnits="userSpaceOnUse">
<stop stop-color="#FC927D"/>
<stop offset="0.25" stop-color="#FC927D" stop-opacity="0"/>
</linearGradient>
<linearGradient id="paint1_linear_4046_1323" x1="130.104" y1="-16.6463" x2="11.2012" y2="130" gradientUnits="userSpaceOnUse">
<stop stop-color="#FC927D"/>
<stop offset="0.576615" stop-color="#FC927D" stop-opacity="0"/>
</linearGradient>
</defs>
</svg>
