<svg width="131" height="130" viewBox="0 0 131 130" fill="none" xmlns="http://www.w3.org/2000/svg">
<rect x="1.29878" y="0.798781" width="128.402" height="128.402" rx="19.2012" stroke="url(#paint0_linear_4046_1232)" stroke-width="1.59756"/>
<rect x="1.29878" y="0.798781" width="128.402" height="128.402" rx="19.2012" stroke="url(#paint1_linear_4046_1232)" stroke-width="1.59756"/>
<g clip-path="url(#clip0_4046_1232)">
<path d="M65.522 104.232C65.1813 104.232 64.8479 104.232 64.5 104.225C37.1906 103.696 22.3473 82.5322 20.7456 80.1187L24.971 77.3066C26.4206 79.4954 39.8723 98.6656 64.5942 99.144C90.9469 99.6658 105.5 78.2126 106.109 77.3066L110.334 80.1187C109.682 81.1117 93.9692 104.232 65.522 104.232Z" fill="#D76F30"/>
<path d="M40.8907 57.782L30.7515 88.957L35.5763 90.5262L45.7155 59.3512L40.8907 57.782Z" fill="#D76F30"/>
<path d="M83.7064 98.0204L76.995 79.5461H53.0269L46.6707 97.7161L41.8799 96.0418L49.4248 74.4727H80.5464L88.4754 96.2883L83.7064 98.0204Z" fill="#D76F30"/>
<path d="M94.3461 91.0626C92.9835 84.3512 91.302 77.6253 89.3524 71.0734C87.7361 65.6594 85.8952 60.2308 83.8804 54.9473L88.6204 53.1426C90.6787 58.5494 92.5631 64.0939 94.2084 69.6311C96.2087 76.328 97.9264 83.206 99.318 90.0624L94.3461 91.0626Z" fill="#D76F30"/>
<path d="M68.2181 65.9635C65.4495 65.9635 62.6954 64.8691 60.5355 62.8905C58.0206 60.5785 56.5928 57.2952 56.6145 53.8743L56.6363 51.3594H79.5245L79.568 53.8526C79.6767 60.0784 75.1107 65.3764 69.182 65.92C68.8631 65.949 68.537 65.9635 68.2181 65.9635ZM62.1373 56.4328C62.5214 57.4619 63.1447 58.3969 63.9709 59.1507C65.3263 60.3973 67.0585 61.0206 68.7182 60.8611C71.1679 60.6364 73.2407 58.8173 74.0887 56.4255H62.1373V56.4328Z" fill="#D76F30"/>
<path d="M99.1439 65.471C97.9408 63.5866 95.7592 60.9194 92.2441 58.9481C90.2727 57.8392 88.1347 57.0854 85.8951 56.7085C84.7065 56.5056 83.5396 56.4186 82.3147 56.4404H77.0239V51.367H82.2713C83.7643 51.3452 85.2356 51.4539 86.7358 51.7076C89.5479 52.1787 92.2368 53.1281 94.7228 54.527C99.1584 57.0129 101.898 60.3686 103.413 62.7386L99.1439 65.471Z" fill="#D76F30"/>
<path d="M38.1035 60.8832C33.1968 60.8832 28.6742 58.4118 26.5652 54.3603C25.0649 51.4757 24.8982 47.9098 26.1013 44.5759C27.4421 40.8578 30.3484 37.821 34.0665 36.2483C34.197 36.1976 34.3274 36.1541 34.4651 36.1178L34.6753 36.0671C40.2125 34.7408 45.7571 33.4144 51.2943 32.0809C53.3164 30.0587 55.3313 28.0439 57.3534 26.0145C58.0782 25.2898 59.1726 25.0723 60.122 25.4637C61.0715 25.8551 61.6875 26.7828 61.6875 27.8047V53.9037H56.6141V33.9363C55.8676 34.6828 55.1211 35.4293 54.3818 36.1758C54.0484 36.5092 53.6353 36.7411 53.1787 36.8498C48.1778 38.053 43.1841 39.2488 38.1832 40.4447C39.7052 46.1269 41.2272 51.8091 42.7565 57.4913C42.9377 58.1726 42.829 58.9046 42.4521 59.5062C42.0752 60.1077 41.4592 60.5208 40.7634 60.6441C39.8719 60.8035 38.9805 60.8832 38.1035 60.8832ZM33.4867 42.5103C32.3126 43.5322 31.4066 44.8296 30.8775 46.2936C30.1527 48.3012 30.2252 50.3886 31.0732 52.0193C32.1386 54.0704 34.4361 55.4402 37.0381 55.7446C35.8494 51.3308 34.6681 46.9242 33.4867 42.5103Z" fill="#D76F30"/>
<path d="M45.4821 60.6798H40.3072C38.9084 60.6798 37.7705 59.5419 37.7705 58.1431C37.7705 56.7443 38.9084 55.6064 40.3072 55.6064H45.4821C46.8809 55.6064 48.0188 56.7443 48.0188 58.1431C48.0188 59.5419 46.8809 60.6798 45.4821 60.6798Z" fill="#D76F30"/>
</g>
<defs>
<linearGradient id="paint0_linear_4046_1232" x1="11.2012" y1="137.134" x2="136.445" y2="-8.71952" gradientUnits="userSpaceOnUse">
<stop stop-color="#FC927D"/>
<stop offset="0.25" stop-color="#FC927D" stop-opacity="0"/>
</linearGradient>
<linearGradient id="paint1_linear_4046_1232" x1="130.104" y1="-16.6463" x2="11.2012" y2="130" gradientUnits="userSpaceOnUse">
<stop stop-color="#FC927D"/>
<stop offset="0.576615" stop-color="#FC927D" stop-opacity="0"/>
</linearGradient>
<clipPath id="clip0_4046_1232">
<rect x="26" y="25.5" width="79" height="79" rx="20" fill="white"/>
</clipPath>
</defs>
</svg>
