<svg width="131" height="130" viewBox="0 0 131 130" fill="none" xmlns="http://www.w3.org/2000/svg">
<rect x="1.29878" y="0.798781" width="128.402" height="128.402" rx="19.2012" stroke="url(#paint0_linear_4046_1257)" stroke-width="1.59756"/>
<rect x="1.29878" y="0.798781" width="128.402" height="128.402" rx="19.2012" stroke="url(#paint1_linear_4046_1257)" stroke-width="1.59756"/>
<path d="M49.2421 54.6531C42.7078 54.6531 37.394 49.3393 37.394 42.8051C37.394 36.2708 42.7078 30.957 49.2421 30.957C55.7764 30.957 61.0901 36.2708 61.0901 42.8051C61.0975 49.3393 55.7764 54.6531 49.2421 54.6531ZM49.2421 36.1592C45.5805 36.1592 42.6036 39.136 42.6036 42.7976C42.6036 46.4592 45.5805 49.4361 49.2421 49.4361C52.9037 49.4361 55.8805 46.4592 55.8805 42.7976C55.888 39.1435 52.9037 36.1592 49.2421 36.1592Z" fill="#D76F30"/>
<path d="M65.1907 86.8333H31.8421C30.9937 86.8333 30.2048 86.424 29.7136 85.7319C29.2224 85.0398 29.1033 84.1541 29.3861 83.3578L37.9521 59.1929L19.1977 56.2234C17.7763 56.0002 16.8088 54.668 17.032 53.2466C17.2553 51.8251 18.5875 50.8576 20.0089 51.0809L41.8593 54.5415C42.6259 54.6606 43.2956 55.1145 43.6901 55.7843C44.0845 56.4467 44.1664 57.2579 43.9059 57.9873L35.5185 81.6312H61.4101L52.1073 56.9081C51.6682 55.7397 52.1221 54.4224 53.1864 53.7675C54.2506 53.1126 55.6349 53.3135 56.4759 54.2364L67.9815 66.903C68.949 67.9673 68.8672 69.612 67.8029 70.5795C66.7387 71.547 65.094 71.4651 64.1265 70.4009L61.7971 67.8333L67.6243 83.3132C67.9294 84.1095 67.8178 85.01 67.3266 85.7096C66.8429 86.4166 66.0465 86.8333 65.1907 86.8333Z" fill="#D76F30"/>
<path d="M26.9004 54.1097C23.0676 54.1097 19.9419 50.9914 19.9419 47.1512C19.9419 43.311 23.0602 40.2002 26.9004 40.2002C30.7331 40.2002 33.8514 43.3185 33.8514 47.1512C33.8514 50.984 30.7331 54.1097 26.9004 54.1097ZM26.9004 45.4098C25.9403 45.4098 25.1515 46.1912 25.1515 47.1512C25.1515 48.1113 25.9329 48.9002 26.9004 48.9002C27.8679 48.9002 28.6418 48.1187 28.6418 47.1512C28.6418 46.1837 27.8604 45.4098 26.9004 45.4098Z" fill="#D76F30"/>
<path d="M42.8343 103.578C41.3979 103.578 40.2295 102.409 40.2295 100.973V84.2278C40.2295 82.7915 41.3979 81.623 42.8343 81.623C44.2706 81.623 45.4391 82.7915 45.4391 84.2278V100.973C45.4391 102.409 44.2781 103.578 42.8343 103.578Z" fill="#D76F30"/>
<path d="M54.9949 103.578C53.5586 103.578 52.3901 102.409 52.3901 100.973V84.2278C52.3901 82.7915 53.5586 81.623 54.9949 81.623C56.4313 81.623 57.5997 82.7915 57.5997 84.2278V100.973C57.5997 102.409 56.4313 103.578 54.9949 103.578Z" fill="#D76F30"/>
<path d="M68.6812 103.139C68.3314 103.139 67.9816 103.072 67.6467 102.923C66.3295 102.35 65.7266 100.817 66.2997 99.4925L78.3114 71.8893V45.4917C78.3114 44.0554 79.4799 42.8869 80.9162 42.8869H86.7509C87.443 42.8869 88.1055 43.1623 88.5966 43.6535L90.2116 45.2684L92.1168 43.3632C92.608 42.872 93.2703 42.5967 93.9625 42.5967H100.995C102.432 42.5967 103.6 43.7651 103.6 45.2015V70.6837L113.528 99.3884C113.997 100.75 113.275 102.231 111.921 102.7C110.559 103.169 109.078 102.447 108.609 101.093L98.5395 71.9712C98.4427 71.6958 98.398 71.413 98.398 71.1228V47.8062H95.049L92.0647 50.7906C91.5735 51.2818 90.9111 51.5497 90.2265 51.5497C89.5343 51.5497 88.872 51.2743 88.3882 50.7831L85.6942 48.089H83.5433V72.4251C83.5433 72.7824 83.4689 73.1396 83.3275 73.4671L71.1 101.569C70.646 102.559 69.6859 103.139 68.6812 103.139Z" fill="#D76F30"/>
<path d="M86.7506 48.1039C85.7757 48.1039 84.8381 47.5532 84.3915 46.6155L76.8153 30.5998C76.1976 29.2974 76.7558 27.7494 78.0582 27.1317C79.3606 26.514 80.9086 27.0722 81.5263 28.3746L89.1024 44.3902C89.7201 45.6926 89.162 47.2406 87.8596 47.8583C87.5024 48.022 87.1228 48.1039 86.7506 48.1039Z" fill="#D76F30"/>
<path d="M93.9474 47.8061C93.538 47.8061 93.1287 47.7093 92.7417 47.5084C91.4691 46.846 90.9705 45.2683 91.6403 43.9956L100.296 27.3995C100.958 26.1268 102.536 25.6282 103.808 26.298C105.081 26.9604 105.58 28.5381 104.91 29.8107L96.247 46.4069C95.793 47.3 94.8925 47.8061 93.9474 47.8061Z" fill="#D76F30"/>
<path d="M90.7326 100.378C84.6002 100.378 79.6064 95.3917 79.6064 89.2519C79.6064 83.1195 84.5928 78.1257 90.7326 78.1257C96.8725 78.1257 101.859 83.112 101.859 89.2519C101.851 95.3843 96.865 100.378 90.7326 100.378ZM90.7326 83.3353C87.4729 83.3353 84.816 85.9847 84.816 89.2519C84.816 92.5116 87.4655 95.1684 90.7326 95.1684C93.9923 95.1684 96.6492 92.519 96.6492 89.2519C96.6417 85.9922 93.9923 83.3353 90.7326 83.3353Z" fill="#D76F30"/>
<defs>
<linearGradient id="paint0_linear_4046_1257" x1="11.2012" y1="137.134" x2="136.445" y2="-8.71952" gradientUnits="userSpaceOnUse">
<stop stop-color="#FC927D"/>
<stop offset="0.25" stop-color="#FC927D" stop-opacity="0"/>
</linearGradient>
<linearGradient id="paint1_linear_4046_1257" x1="130.104" y1="-16.6463" x2="11.2012" y2="130" gradientUnits="userSpaceOnUse">
<stop stop-color="#FC927D"/>
<stop offset="0.576615" stop-color="#FC927D" stop-opacity="0"/>
</linearGradient>
</defs>
</svg>
