<svg width="131" height="130" viewBox="0 0 131 130" fill="none" xmlns="http://www.w3.org/2000/svg">
<rect x="1.29878" y="0.798781" width="128.402" height="128.402" rx="19.2012" stroke="url(#paint0_linear_4046_1308)" stroke-width="1.59756"/>
<rect x="1.29878" y="0.798781" width="128.402" height="128.402" rx="19.2012" stroke="url(#paint1_linear_4046_1308)" stroke-width="1.59756"/>
<path d="M74.5397 83.7875C74.3096 83.7875 74.0795 83.7612 73.856 83.6954C72.9357 83.4456 72.2257 82.7225 71.9956 81.8021L67.5385 64.2234C67.2887 63.2439 67.624 62.2118 68.3997 61.561L87.0039 45.9545C87.7073 45.3694 88.6605 45.1853 89.5283 45.4746C90.396 45.7638 91.0469 46.4869 91.2572 47.3744L94.7743 62.5537C94.9781 63.428 94.7217 64.3484 94.0906 64.986L76.4264 82.992C75.9202 83.5113 75.2365 83.7875 74.5397 83.7875ZM73.0409 64.5324L75.9465 75.9776L89.3245 62.3367L87.1025 52.7388L73.0409 64.5324Z" fill="#D76F30"/>
<path d="M91.882 83.7867H74.5466C73.0937 83.7867 71.917 82.6099 71.917 81.1571C71.917 79.7043 73.0937 78.5275 74.5466 78.5275H90.7974L103.209 66.1159L92.1318 65.7807C90.679 65.7346 89.5417 64.525 89.5812 63.0722C89.6272 61.6194 90.8499 60.4821 92.2896 60.5215L109.448 61.0409C110.493 61.0737 111.426 61.7245 111.814 62.6975C112.202 63.6704 111.972 64.7814 111.229 65.5243L93.7425 83.011C93.2494 83.5106 92.5789 83.7867 91.882 83.7867Z" fill="#D76F30"/>
<path d="M74.5397 98.4542C73.0869 98.4542 71.9102 97.2774 71.9102 95.8246V81.1647C71.9102 79.7119 73.0869 78.5352 74.5397 78.5352C75.9926 78.5352 77.1693 79.7119 77.1693 81.1647V95.8246C77.1693 97.2709 75.9926 98.4542 74.5397 98.4542Z" fill="#D76F30"/>
<path d="M91.882 99.0521C90.4292 99.0521 89.2524 97.8754 89.2524 96.4226V81.1579C89.2524 79.7051 90.4292 78.5283 91.882 78.5283C93.3349 78.5283 94.5116 79.7051 94.5116 81.1579V96.4226C94.5116 97.8754 93.3349 99.0521 91.882 99.0521Z" fill="#D76F30"/>
<path d="M109.368 81.9003C107.916 81.9003 106.739 80.7236 106.739 79.2708V63.6708C106.739 62.218 107.916 61.0413 109.368 61.0413C110.821 61.0413 111.998 62.218 111.998 63.6708V79.2708C111.998 80.7236 110.815 81.9003 109.368 81.9003Z" fill="#D76F30"/>
<path d="M38.1003 99.5645C36.6474 99.5645 35.4707 98.3878 35.4707 96.9349V35.541C35.4707 34.0881 36.6474 32.9114 38.1003 32.9114C39.5531 32.9114 40.7299 34.0881 40.7299 35.541V96.9349C40.7299 98.3878 39.5531 99.5645 38.1003 99.5645Z" fill="#D76F30"/>
<path d="M54.5613 51.634C53.8908 51.634 53.2268 51.3841 52.7141 50.8714L38.2317 36.5402L24.6565 50.661C23.6507 51.7063 21.9875 51.7391 20.9357 50.7333C19.8904 49.7275 19.8576 48.0643 20.8634 47.0125L38.1397 29.0459L56.4152 47.1308C57.4473 48.1498 57.4539 49.8196 56.4349 50.8517C55.9156 51.371 55.2385 51.634 54.5613 51.634Z" fill="#D76F30"/>
<path d="M54.7324 68.2599C54.0816 68.2599 53.4308 68.0232 52.9246 67.5367L38.2056 53.5803L24.236 67.1752C23.1973 68.1875 21.534 68.1678 20.5151 67.1226C19.5027 66.0839 19.5224 64.4141 20.5677 63.4017L38.153 46.2832L56.5337 63.7107C57.5855 64.71 57.6315 66.3731 56.6323 67.425C56.1261 67.9837 55.4293 68.2599 54.7324 68.2599Z" fill="#D76F30"/>
<path d="M54.7324 84.8849C54.0816 84.8849 53.4308 84.6482 52.9246 84.1618L38.2056 70.2053L24.236 83.8002C23.1973 84.8126 21.534 84.7928 20.5151 83.7476C19.5027 82.7089 19.5224 81.0391 20.5677 80.0267L38.153 62.9082L56.5337 80.3357C57.5855 81.335 57.6315 82.9982 56.6323 84.05C56.1261 84.6088 55.4293 84.8849 54.7324 84.8849Z" fill="#D76F30"/>
<defs>
<linearGradient id="paint0_linear_4046_1308" x1="11.2012" y1="137.134" x2="136.445" y2="-8.71952" gradientUnits="userSpaceOnUse">
<stop stop-color="#FC927D"/>
<stop offset="0.25" stop-color="#FC927D" stop-opacity="0"/>
</linearGradient>
<linearGradient id="paint1_linear_4046_1308" x1="130.104" y1="-16.6463" x2="11.2012" y2="130" gradientUnits="userSpaceOnUse">
<stop stop-color="#FC927D"/>
<stop offset="0.576615" stop-color="#FC927D" stop-opacity="0"/>
</linearGradient>
</defs>
</svg>
