<svg width="40" height="40" viewBox="0 0 40 40" fill="none" xmlns="http://www.w3.org/2000/svg">
<path fill-rule="evenodd" clip-rule="evenodd" d="M20 37.5C29.665 37.5 37.5 29.665 37.5 20C37.5 10.335 29.665 2.5 20 2.5C10.335 2.5 2.5 10.335 2.5 20C2.5 29.665 10.335 37.5 20 37.5ZM27.0365 11.3525C27.9318 10.9594 28.8891 11.7541 28.7332 12.761L26.4273 27.6577C26.2871 28.5632 25.3231 29.0353 24.5737 28.5654L17.8925 24.3756C17.1962 23.9389 17.0813 22.9276 17.6601 22.3308L23.6276 16.1783C23.8412 15.9581 23.5687 15.6026 23.3187 15.7753L15.0285 21.5029C14.4157 21.9263 13.6557 22.0418 12.9539 21.8183L9.27683 20.6474C8.611 20.4353 8.56404 19.4629 9.20602 19.1811L27.0365 11.3525Z" fill="white"/>
</svg>
