<svg width="40" height="40" viewBox="0 0 40 40" fill="none" xmlns="http://www.w3.org/2000/svg">
<path d="M37.5 20C37.5 29.665 29.665 37.5 20 37.5C10.335 37.5 2.5 29.665 2.5 20C2.5 10.335 10.335 2.5 20 2.5C29.665 2.5 37.5 10.335 37.5 20Z" fill="white"/>
<g clip-path="url(#clip0_4092_4295)">
<path d="M20 16.332C17.976 16.332 16.332 17.976 16.332 20C16.332 22.024 17.976 23.672 20 23.672C22.024 23.672 23.672 22.024 23.672 20C23.672 17.976 22.024 16.332 20 16.332Z" fill="#666665"/>
<path d="M25.536 10H14.464C12.004 10 10 12.004 10 14.464V25.536C10 28 12.004 30 14.464 30H25.536C28 30 30 28 30 25.536V14.464C30 12.004 28 10 25.536 10ZM20 26.48C16.428 26.48 13.52 23.572 13.52 20C13.52 16.428 16.428 13.524 20 13.524C23.572 13.524 26.48 16.428 26.48 20C26.48 23.572 23.572 26.48 20 26.48ZM26.616 14.7C25.86 14.7 25.244 14.088 25.244 13.332C25.244 12.576 25.86 11.96 26.616 11.96C27.372 11.96 27.988 12.576 27.988 13.332C27.988 14.088 27.372 14.7 26.616 14.7Z" fill="#666665"/>
</g>
<defs>
<clipPath id="clip0_4092_4295">
<rect width="20" height="20" fill="white" transform="translate(10 10)"/>
</clipPath>
</defs>
</svg>
