<svg width="40" height="40" viewBox="0 0 40 40" fill="none" xmlns="http://www.w3.org/2000/svg">
<rect x="2" y="2.51758" width="35" height="35" rx="17.5" fill="white"/>
<g clip-path="url(#clip0_4092_4290)">
<path d="M11.9166 21.1613H7.5C7.63896 23.586 8.49498 25.875 9.96634 27.7822C10.7939 27.3148 11.7229 26.9141 12.7265 26.5872C12.2489 24.9188 11.9713 23.0764 11.9166 21.1613ZM11.9166 19.7548C11.9713 17.8396 12.2489 15.9973 12.7265 14.3287C11.7229 14.0019 10.7939 13.6012 9.96639 13.1338C8.49498 15.041 7.63896 17.3301 7.5 19.7548H11.9166ZM15.2461 11.7955C14.9791 12.2887 14.738 12.8175 14.5236 13.3761C15.8593 13.6953 17.3045 13.8859 18.7969 13.9316V8.51772C17.4831 8.81819 16.2426 9.95537 15.2461 11.7955ZM20.2033 8.51772V13.9315C21.6955 13.8859 23.1407 13.6952 24.4764 13.376C24.262 12.8175 24.0209 12.2886 23.7539 11.7955C22.7574 9.95542 21.517 8.81824 20.2033 8.51772ZM24.922 14.7127C23.4446 15.0757 21.8474 15.2908 20.2033 15.3385V19.7548H25.6762C25.6224 17.9678 25.3642 16.2557 24.922 14.7127ZM13.1651 27.9211C12.3523 28.1858 11.5954 28.5028 10.9114 28.8674C10.941 28.8976 10.97 28.9282 10.9999 28.9581C12.251 30.2092 13.7296 31.1497 15.342 31.7429C14.8615 31.1912 14.4145 30.5384 14.0093 29.7902C13.6943 29.2085 13.4127 28.5826 13.1651 27.9211ZM25.8349 12.9949C26.6477 12.7301 27.4046 12.4132 28.0886 12.0486C28.059 12.0184 28.03 11.9879 28.0001 11.9579C26.749 10.7068 25.2704 9.76629 23.658 9.17318C24.1385 9.72485 24.5855 10.3776 24.9907 11.1258C25.3057 11.7075 25.5873 12.3334 25.8349 12.9949ZM27.0834 21.1613C27.0287 23.0764 26.7511 24.9188 26.2735 26.5873C27.2772 26.9141 28.2061 27.3148 29.0337 27.7822C30.5051 25.8751 31.361 23.586 31.5 21.1613L27.0834 21.1613ZM25.8349 27.9211C25.5873 28.5826 25.3057 29.2084 24.9906 29.7902C24.5855 30.5384 24.1384 31.1911 23.6579 31.7428C25.2704 31.1497 26.7489 30.2091 28 28.958C28.03 28.9281 28.059 28.8976 28.0885 28.8674C27.4045 28.5028 26.6477 28.1858 25.8349 27.9211ZM13.1651 12.9949C13.4127 12.3334 13.6943 11.7075 14.0094 11.1258C14.4145 10.3776 14.8616 9.72485 15.3421 9.17318C13.7296 9.76629 12.2511 10.7068 11 11.9579C10.97 11.9879 10.941 12.0184 10.9115 12.0486C11.5955 12.4132 12.3523 12.7301 13.1651 12.9949ZM26.2735 14.3287C26.7511 15.9973 27.0287 17.8396 27.0834 19.7548H31.5C31.361 17.3301 30.505 15.041 29.0337 13.1338C28.2061 13.6012 27.2771 14.0019 26.2735 14.3287ZM18.7968 19.7548V15.3386C17.1527 15.2908 15.5554 15.0757 14.078 14.7127C13.6358 16.2557 13.3775 17.9678 13.3238 19.7549H18.7968V19.7548ZM20.2033 21.1613V25.5774C21.8474 25.6252 23.4446 25.8403 24.922 26.2033C25.3642 24.6603 25.6224 22.9482 25.6762 21.1612L20.2033 21.1613ZM23.7539 29.1205C24.0209 28.6274 24.262 28.0986 24.4764 27.5399C23.1407 27.2207 21.6955 27.0301 20.2032 26.9845V32.3983C21.517 32.0978 22.7574 30.9606 23.7539 29.1205ZM18.7968 32.3983V26.9845C17.3045 27.0301 15.8593 27.2207 14.5236 27.5399C14.738 28.0985 14.9791 28.6274 15.2461 29.1205C16.2426 30.9606 17.4831 32.0978 18.7968 32.3983ZM18.7968 21.1613H13.3238C13.3776 22.9483 13.6358 24.6603 14.078 26.2033C15.5554 25.8403 17.1526 25.6252 18.7968 25.5775V21.1613Z" fill="#676462"/>
</g>
<defs>
<clipPath id="clip0_4092_4290">
<rect width="24" height="24" fill="white" transform="translate(7.5 8.01758)"/>
</clipPath>
</defs>
</svg>
