<svg width="40" height="40" viewBox="0 0 40 40" fill="none" xmlns="http://www.w3.org/2000/svg">
<path d="M35.9252 38.1161H35.9083V14.9781C35.9083 14.9447 35.9083 14.9115 35.9028 14.8786V14.8618C35.8974 14.8398 35.8974 14.812 35.8918 14.7901C35.8907 14.7766 35.887 14.7634 35.8809 14.7513C35.8755 14.7349 35.8755 14.7184 35.8699 14.7016C35.8645 14.6851 35.8586 14.6687 35.8531 14.6518C35.8477 14.6409 35.8477 14.6299 35.8422 14.619C35.8367 14.602 35.8257 14.5856 35.8202 14.5692C35.8148 14.5578 35.8089 14.5469 35.8034 14.5359C35.7925 14.5195 35.7869 14.5025 35.7759 14.4916C35.7705 14.4806 35.7649 14.4696 35.7591 14.4587C35.7481 14.4474 35.7427 14.4309 35.7317 14.4199C35.7208 14.4091 35.7153 14.3977 35.7039 14.3867C35.693 14.3758 35.6875 14.3647 35.6765 14.3538C35.6656 14.3424 35.6541 14.326 35.6432 14.315C35.6377 14.3041 35.6267 14.2982 35.6158 14.2927C35.6028 14.28 35.5898 14.2672 35.577 14.2544C35.5716 14.2484 35.5606 14.2429 35.5492 14.232C35.5327 14.221 35.5163 14.2101 35.5053 14.1991C35.494 14.1932 35.483 14.1877 35.4776 14.1823C35.4633 14.1724 35.4485 14.1633 35.4333 14.1549C35.4168 14.1494 35.4059 14.138 35.3891 14.1325C35.3781 14.127 35.3616 14.1215 35.3507 14.116C35.3283 14.1051 35.3064 14.0996 35.2841 14.0937C35.2786 14.0937 35.2731 14.0883 35.2621 14.0883C35.2344 14.0773 35.2014 14.0718 35.1736 14.0663H35.1682L30.5546 13.0994V3.59677C30.5546 3.56343 30.5546 3.53062 30.5492 3.49728C30.5492 3.49189 30.5492 3.48638 30.5437 3.47494C30.5383 3.45304 30.5383 3.42531 30.5327 3.40329C30.5273 3.38689 30.5273 3.37545 30.5218 3.36445C30.5163 3.34804 30.5163 3.33164 30.5108 3.3202C30.5054 3.3038 30.4995 3.2874 30.494 3.27057C30.4886 3.25956 30.4886 3.24855 30.483 3.23766C30.4776 3.22082 30.4666 3.20431 30.4611 3.18241C30.4568 3.1724 30.4511 3.16303 30.4442 3.15457C30.4333 3.13816 30.4278 3.12176 30.4168 3.10493C30.4126 3.095 30.4069 3.08576 30.4 3.07752C30.389 3.06608 30.3836 3.04968 30.3726 3.03867C30.3616 3.02767 30.3562 3.01677 30.3447 3.00544C30.3338 2.99443 30.3283 2.98343 30.3173 2.97253C30.3064 2.96109 30.295 2.95019 30.2841 2.93368C30.2731 2.92278 30.2676 2.91728 30.2567 2.91134C30.2436 2.89871 30.2307 2.88594 30.2178 2.87304C30.2069 2.86764 30.2014 2.86203 30.1901 2.8507C30.1736 2.83969 30.1627 2.82879 30.1462 2.81779C30.1349 2.81239 30.1239 2.80646 30.113 2.80095C30.0964 2.78995 30.0851 2.78455 30.0687 2.77355C30.0522 2.76815 30.0413 2.75671 30.0245 2.75121C30.012 2.74469 29.999 2.73921 29.9856 2.73481C29.9637 2.7238 29.936 2.7183 29.914 2.7074C29.9086 2.7074 29.903 2.70146 29.8976 2.70146C29.8642 2.69056 29.8309 2.68506 29.7981 2.67405L17.0633 0.0108987C17.0354 0.00550328 17.008 0 16.9857 0H16.7813C16.7594 0 16.7425 0.00539537 16.7206 0.0110066C16.7097 0.0110066 16.6987 0.0110066 16.6932 0.0164019H16.6818L6.20131 2.06621C6.17347 2.07172 6.15167 2.07722 6.12373 2.08272C6.11833 2.08272 6.11283 2.08272 6.10732 2.08855C6.08542 2.09405 6.06308 2.10506 6.04118 2.11056C6.03567 2.11056 6.03017 2.11596 6.01884 2.11596C6.00233 2.12146 5.98593 2.13247 5.97492 2.13797C5.85309 2.19905 5.74821 2.27609 5.66555 2.37569C5.66555 2.38109 5.65962 2.38109 5.65962 2.38659C5.65422 2.39803 5.64872 2.40342 5.63771 2.41443C5.57588 2.49853 5.5274 2.59167 5.49398 2.69056C5.49398 2.69596 5.48858 2.70146 5.48858 2.70146C5.48308 2.7129 5.48308 2.7238 5.47758 2.73481C5.47218 2.75121 5.46657 2.77365 5.46117 2.78995V2.80646C5.45524 2.8343 5.44974 2.85609 5.44974 2.88404V2.89494C5.44974 2.92278 5.44434 2.95019 5.44434 2.97803V10.293L1.79232 11.0112C1.76491 11.0166 1.73707 11.0222 1.70966 11.0331C1.70427 11.0331 1.70427 11.0331 1.69866 11.0385C1.67093 11.0441 1.64902 11.0554 1.62118 11.0664C1.61568 11.0664 1.61017 11.0718 1.60467 11.0718C1.58784 11.0773 1.57143 11.0884 1.55503 11.0939C1.44511 11.1498 1.34593 11.2246 1.26206 11.3151C1.25656 11.3206 1.25106 11.3316 1.24005 11.3371C1.23307 11.3454 1.2274 11.3548 1.22322 11.3648C1.15043 11.4608 1.09612 11.5695 1.06308 11.6853C1.05758 11.7071 1.05208 11.7236 1.04657 11.7459V11.7568C1.04118 11.7847 1.03567 11.8121 1.03567 11.8399V11.8453C1.03028 11.8727 1.03028 11.9061 1.03028 11.9338V38.1217H1.01334C0.493979 38.1217 0.0742188 38.5414 0.0742188 39.0608C0.0742188 39.5801 0.493979 40 1.01334 40H35.9307C36.054 40.0001 36.1762 39.9759 36.2902 39.9287C36.4042 39.8815 36.5078 39.8124 36.595 39.7251C36.6822 39.6379 36.7514 39.5343 36.7985 39.4203C36.8457 39.3063 36.8699 39.1841 36.8698 39.0608C36.8644 38.536 36.4445 38.1161 35.9252 38.1161ZM16.5549 12.0608C16.6266 12.0885 16.7097 12.1051 16.7868 12.1105L34.0301 15.7292V18.8674L12.4721 14.3424V11.2042L16.5549 12.0608ZM34.0301 23.7515L12.4721 19.2265V15.9227L34.0301 20.4476V23.7515ZM34.0301 25.3317V28.6023L12.4721 24.1106V20.8067L34.0301 25.3317ZM12.4721 25.6904L34.0301 30.188V33.4918L12.4721 29.0001V25.6904ZM34.0301 35.0721V38.1161H12.4721V30.5745L34.0301 35.0721ZM17.8035 10.4034V2.08261L28.6709 4.35342V12.685L17.8035 10.4034ZM7.31168 3.75151L15.9252 2.06621V10.0109L11.7261 9.13253C11.7152 9.13253 11.6987 9.12703 11.6872 9.12703C11.6764 9.12703 11.6599 9.12163 11.6489 9.12163C11.6266 9.11602 11.6047 9.11602 11.5823 9.11602H11.45C11.4167 9.12152 11.378 9.12152 11.345 9.13253L7.31157 9.92285L7.31168 3.75151ZM2.90301 12.7015L6.4167 12.0111C6.51068 12.0056 6.60467 11.9891 6.68733 11.9558L10.5936 11.1878V14.3369L4.26729 15.6466C4.0671 15.6885 3.89156 15.8077 3.77884 15.9784C3.66612 16.149 3.62534 16.3573 3.66538 16.5579C3.74253 16.9226 4.06291 17.1767 4.42203 17.1767C4.47166 17.1767 4.52691 17.1712 4.57666 17.1602L10.5879 15.9171V19.221L4.26178 20.5303C4.06158 20.5723 3.88605 20.6916 3.77334 20.8623C3.66064 21.0331 3.61986 21.2414 3.65988 21.442C3.73703 21.8066 4.05741 22.0607 4.41652 22.0607C4.46616 22.0607 4.52152 22.0553 4.57126 22.0443L10.5825 20.8012V24.1106L4.2565 25.4198C4.05625 25.4618 3.88068 25.5811 3.76794 25.7518C3.65521 25.9226 3.61444 26.1309 3.65448 26.3316C3.73163 26.6961 4.05201 26.9503 4.41113 26.9503C4.46087 26.9503 4.51612 26.9449 4.56587 26.9339L10.5771 25.6904V28.9947L4.25088 30.3039C4.05065 30.3459 3.87509 30.4653 3.76231 30.636C3.64954 30.8067 3.60866 31.015 3.64855 31.2157C3.72602 31.5802 4.0464 31.8344 4.40552 31.8344C4.45526 31.8344 4.51051 31.8289 4.56026 31.8175L10.5934 30.5744V38.1161H2.9028L2.90301 12.7015Z" fill="white"/>
<path d="M26.7206 7.30943L20.0906 5.94462C19.9912 5.92356 19.8886 5.92248 19.7887 5.94144C19.6888 5.96041 19.5938 5.99904 19.509 6.05509C19.4242 6.11114 19.3514 6.18349 19.2948 6.26793C19.2382 6.35237 19.199 6.44722 19.1794 6.54696C19.1582 6.6464 19.1571 6.74907 19.176 6.84896C19.1949 6.94886 19.2334 7.04401 19.2895 7.12886C19.3455 7.21371 19.4178 7.28658 19.5022 7.34321C19.5867 7.39985 19.6815 7.43914 19.7813 7.45877L26.4112 8.82316C26.4621 8.83386 26.5139 8.8395 26.566 8.83999C26.9251 8.83999 27.2454 8.58576 27.3229 8.22125C27.4111 7.80645 27.1405 7.39791 26.7206 7.30943Z" fill="white"/>
</svg>
