<svg width="40" height="40" viewBox="0 0 40 40" fill="none" xmlns="http://www.w3.org/2000/svg">
<g clip-path="url(#clip0_2286_403)">
<path fill-rule="evenodd" clip-rule="evenodd" d="M34.5466 10.8616L36.2716 17.3016C36.3851 17.7245 36.4141 18.1655 36.357 18.5996C36.3 19.0337 36.158 19.4523 35.9391 19.8314C35.7203 20.2106 35.4289 20.543 35.0816 20.8095C34.7343 21.0761 34.3378 21.2716 33.915 21.3849L30 22.4333V24.9999C30 25.442 30.1756 25.8659 30.4881 26.1785C30.8007 26.491 31.2246 26.6666 31.6666 26.6666H33.3333C33.3333 26.2246 33.5089 25.8007 33.8214 25.4881C34.134 25.1755 34.5579 24.9999 35 24.9999C35.442 24.9999 35.8659 25.1755 36.1785 25.4881C36.491 25.8007 36.6666 26.2246 36.6666 26.6666V29.9999C36.6666 30.442 36.491 30.8659 36.1785 31.1785C35.8659 31.491 35.442 31.6666 35 31.6666C34.5579 31.6666 34.134 31.491 33.8214 31.1785C33.5089 30.8659 33.3333 30.442 33.3333 29.9999H31.6666C30.3405 29.9999 29.0688 29.4732 28.1311 28.5355C27.1934 27.5978 26.6666 26.326 26.6666 24.9999V23.3266L15.8133 26.2333C15.1135 26.4207 14.3717 26.375 13.7002 26.1031C13.0286 25.8313 12.464 25.3481 12.0916 24.7266L7.06496 16.3499C6.86605 16.0181 6.74687 15.6446 6.7168 15.2589C6.68672 14.8732 6.74658 14.4858 6.89166 14.1271C7.03673 13.7685 7.26307 13.4484 7.55285 13.1921C7.84263 12.9357 8.18795 12.7502 8.56162 12.6499L28.4233 7.32828C29.7041 6.98516 31.0687 7.16483 32.217 7.82775C33.3653 8.49067 34.2033 9.5809 34.5466 10.8616ZM4.72162 17.1916C5.07308 16.984 5.48849 16.9126 5.88908 16.991C6.28967 17.0693 6.64759 17.2919 6.89496 17.6166L7.00329 17.7783L9.71162 22.3599C9.92478 22.7258 9.99072 23.159 9.89603 23.5717C9.80135 23.9844 9.55316 24.3456 9.20185 24.5819C8.85054 24.8182 8.42245 24.912 8.00452 24.8441C7.58658 24.7763 7.21014 24.5519 6.95162 24.2166L6.84329 24.0566L4.13496 19.4733C4.02351 19.2848 3.95028 19.0763 3.91944 18.8596C3.88861 18.6428 3.90078 18.4221 3.95526 18.2101C4.00974 17.998 4.10546 17.7988 4.23696 17.6238C4.36845 17.4487 4.53314 17.303 4.72162 17.1916ZM29.2866 10.5466L10.4916 15.5816L14.9483 23.0149L33.0533 18.1649L31.3266 11.7249C31.2122 11.2983 30.933 10.9345 30.5505 10.7136C30.168 10.4926 29.7134 10.4326 29.2866 10.5466Z" fill="#FEB410"/>
</g>
<defs>
<clipPath id="clip0_2286_403">
<rect width="40" height="40" fill="white"/>
</clipPath>
</defs>
</svg>
