<svg width="40" height="40" viewBox="0 0 40 40" fill="none" xmlns="http://www.w3.org/2000/svg">
<g clip-path="url(#clip0_2101_377)">
<path d="M35 2.5H20C19.3372 2.50066 18.7017 2.76427 18.233 3.23296C17.7643 3.70166 17.5007 4.33716 17.5 5V17.5H5C4.33716 17.5007 3.70166 17.7643 3.23296 18.233C2.76427 18.7017 2.50066 19.3372 2.5 20V37.5H37.5V5C37.4992 4.33719 37.2356 3.70175 36.7669 3.23307C36.2983 2.7644 35.6628 2.50076 35 2.5ZM11.25 35V26.25H16.25V35H11.25ZM35 35H18.75V25C18.75 24.6685 18.6183 24.3505 18.3839 24.1161C18.1495 23.8817 17.8315 23.75 17.5 23.75H10C9.66848 23.75 9.35054 23.8817 9.11612 24.1161C8.8817 24.3505 8.75 24.6685 8.75 25V35H5V20H20V5H35V35Z" fill="#FEB410"/>
<path d="M25 10H22.5V12.5H25V10Z" fill="#FEB410"/>
<path d="M32.5 10H30V12.5H32.5V10Z" fill="#FEB410"/>
<path d="M25 17.5H22.5V20H25V17.5Z" fill="#FEB410"/>
<path d="M32.5 17.5H30V20H32.5V17.5Z" fill="#FEB410"/>
<path d="M25 24.9995H22.5V27.4995H25V24.9995Z" fill="#FEB410"/>
<path d="M32.5 24.9995H30V27.4995H32.5V24.9995Z" fill="#FEB410"/>
<path d="M8.75 12.5002H2.5V14.9996H8.75V12.5002Z" fill="#FEB410"/>
<path d="M15 2.5H12.5V8.75H15V2.5Z" fill="#FEB410"/>
<path d="M6.76759 4.99999L5 6.76758L9.48244 11.25L11.25 9.48243L6.76759 4.99999Z" fill="#FEB410"/>
</g>
<defs>
<clipPath id="clip0_2101_377">
<rect width="40" height="40" fill="white"/>
</clipPath>
</defs>
</svg>
