<svg width="40" height="40" viewBox="0 0 40 40" fill="none" xmlns="http://www.w3.org/2000/svg">
<path d="M4.83333 2H34.1667C35.1792 2 36 2.82082 36 3.83333V33.1667C36 34.1792 35.1792 35 34.1667 35H4.83333C3.82082 35 3 34.1792 3 33.1667V3.83333C3 2.82082 3.82082 2 4.83333 2ZM6.66667 5.66667V31.3333H32.3333V5.66667H6.66667ZM14 9.33333H20.4167C23.9605 9.33333 26.8333 12.2062 26.8333 15.75C26.8333 19.2938 23.9605 22.1667 20.4167 22.1667H17.6667V27.6667H14V9.33333ZM17.6667 13V18.5H20.4167C21.9354 18.5 23.1667 17.2687 23.1667 15.75C23.1667 14.2312 21.9354 13 20.4167 13H17.6667Z" fill="#FEB410"/>
</svg>
