<svg width="131" height="130" viewBox="0 0 131 130" fill="none" xmlns="http://www.w3.org/2000/svg">
<rect x="1.04878" y="0.798781" width="128.402" height="128.402" rx="19.2012" stroke="url(#paint0_linear_6120_176)" stroke-width="1.59756"/>
<rect x="1.04878" y="0.798781" width="128.402" height="128.402" rx="19.2012" stroke="url(#paint1_linear_6120_176)" stroke-width="1.59756"/>
<path d="M81.815 73.9373H48.1921C46.7742 73.9373 45.4337 73.2542 44.5959 72.1199C43.758 70.9791 43.5066 69.4904 43.9256 68.1434L47.4574 56.7939C48.0439 54.912 49.7582 53.6553 51.7239 53.6553H78.7279C80.7387 53.6553 82.5111 55.0087 83.0395 56.9486L86.1267 68.2981C86.494 69.6515 86.2169 71.0693 85.3661 72.1843C84.5154 73.2928 83.22 73.9373 81.815 73.9373ZM49.1266 68.7814H80.9192L78.2059 58.8048H52.233L49.1266 68.7814Z" fill="#D76F30"/>
<path d="M84.3291 109.468C83.8779 109.468 83.4333 109.442 83.0079 109.397C81.6867 109.255 77.1946 108.456 74.8293 104.331C74.2106 103.248 73.8626 102.165 73.6885 101.167H57.5441C57.2863 102.211 56.8932 103.222 56.3583 104.157C55.0113 106.516 53.1423 107.869 51.8147 108.591C51.4344 108.797 51.0155 108.9 50.5837 108.9H42.2634C42.0249 108.9 41.78 108.868 41.5479 108.797C40.6005 108.527 37.3717 107.366 35.6444 103.944C34.9677 102.61 34.7099 101.302 34.6584 100.187C34.0397 99.9097 33.3887 99.4973 32.7894 98.8979C31.191 97.306 30.785 95.1728 30.9397 93.6389L31.1073 76.6244C31.1073 76.5599 31.1137 76.4891 31.1201 76.4246C31.2232 75.2774 31.668 73.0604 33.5176 71.1591C34.4264 70.2246 35.4124 69.6253 36.3018 69.2515L42.2247 49.2788C42.5469 48.1831 43.5523 47.4355 44.693 47.4355H85.3796C86.4881 47.4355 87.4677 48.1445 87.8222 49.1885L94.6022 69.3481C95.6334 69.838 96.5808 70.5018 97.3864 71.3203C98.4885 72.4352 99.3198 73.8209 99.7774 75.3225C99.8548 75.5674 99.8935 75.8253 99.8935 76.083V93.9805C99.8935 95.0245 99.6679 97.0418 98.1791 98.7754C97.251 99.8517 96.0072 100.599 94.512 101.005C94.4475 102.101 94.1769 103.306 93.5582 104.499C91.7343 107.998 87.8157 109.468 84.3291 109.468ZM55.2884 96.0106H76.1376C76.8595 96.0106 77.5555 96.3135 78.0388 96.8484C78.5222 97.3834 78.7671 98.0987 78.7027 98.8206C78.6318 99.5682 78.6833 100.69 79.2956 101.766C80.4492 103.777 82.8532 104.189 83.5621 104.266C85.1992 104.447 87.9897 104.022 88.9758 102.114C89.4849 101.128 89.4076 100.039 89.2465 99.2975C89.0854 98.537 89.2723 97.7507 89.7557 97.1449C90.239 96.5391 90.9737 96.1846 91.7471 96.1846C92.9265 96.1782 93.8417 95.8881 94.2671 95.3983C94.6989 94.8956 94.7311 94.1802 94.7311 93.974V76.5084C94.5506 76.0444 94.2413 75.4708 93.7128 74.9358C93.0361 74.2527 92.2885 73.9175 91.7729 73.7629C90.9802 73.518 90.3551 72.9057 90.0908 72.1194L83.517 52.585H46.6072L40.8519 72.0099C40.5877 72.9057 39.8529 73.5888 38.9378 73.7951C38.5575 73.8789 37.8228 74.1174 37.2041 74.7554C36.4887 75.4901 36.3018 76.3795 36.2503 76.7984L36.0827 93.8322C36.0827 93.9354 36.0763 94.0385 36.0634 94.148C36.0634 94.1738 35.9925 94.8312 36.4243 95.263C36.7852 95.6239 37.2879 95.6497 37.3588 95.6303C37.3652 95.6303 37.3717 95.6303 37.3781 95.6303C38.158 95.6303 38.8927 95.9784 39.3825 96.5842C39.8787 97.19 40.0656 97.9956 39.8981 98.7561C39.7949 99.2137 39.6274 100.419 40.2461 101.637C40.9035 102.932 42.0829 103.532 42.6758 103.757H49.8683C50.5257 103.319 51.2862 102.636 51.8727 101.611C52.5429 100.438 52.6976 99.3039 52.7105 98.5499C52.7363 97.1385 53.8834 96.0106 55.2884 96.0106Z" fill="#D76F30"/>
<path d="M45.5364 89.0894C47.996 89.0894 49.9898 87.0956 49.9898 84.636C49.9898 82.1765 47.996 80.1826 45.5364 80.1826C43.0769 80.1826 41.083 82.1765 41.083 84.636C41.083 87.0956 43.0769 89.0894 45.5364 89.0894Z" fill="#D76F30"/>
<path d="M85.302 89.0894C87.7616 89.0894 89.7555 87.0956 89.7555 84.636C89.7555 82.1765 87.7616 80.1826 85.302 80.1826C82.8425 80.1826 80.8486 82.1765 80.8486 84.636C80.8486 87.0956 82.8425 89.0894 85.302 89.0894Z" fill="#D76F30"/>
<path d="M99.1713 39.1347C98.8555 39.1347 98.5333 39.0766 98.2175 38.9542L65.3615 25.8775L32.2541 38.6255C30.9265 39.1411 29.4313 38.4773 28.9221 37.1496C28.413 35.822 29.0704 34.3268 30.4045 33.8176L64.4528 20.7023C65.0586 20.4703 65.7289 20.4767 66.3347 20.7152L100.125 34.1656C101.446 34.6941 102.091 36.1893 101.569 37.517C101.163 38.5159 100.196 39.1347 99.1713 39.1347Z" fill="#D76F30"/>
<defs>
<linearGradient id="paint0_linear_6120_176" x1="10.9512" y1="137.134" x2="136.195" y2="-8.71952" gradientUnits="userSpaceOnUse">
<stop stop-color="#FC927D"/>
<stop offset="0.25" stop-color="#FC927D" stop-opacity="0"/>
</linearGradient>
<linearGradient id="paint1_linear_6120_176" x1="129.854" y1="-16.6463" x2="10.9512" y2="130" gradientUnits="userSpaceOnUse">
<stop stop-color="#FC927D"/>
<stop offset="0.576615" stop-color="#FC927D" stop-opacity="0"/>
</linearGradient>
</defs>
</svg>
