<svg width="131" height="130" viewBox="0 0 131 130" fill="none" xmlns="http://www.w3.org/2000/svg">
<rect x="1.54878" y="0.798781" width="128.402" height="128.402" rx="19.2012" stroke="url(#paint0_linear_6120_170)" stroke-width="1.59756"/>
<rect x="1.54878" y="0.798781" width="128.402" height="128.402" rx="19.2012" stroke="url(#paint1_linear_6120_170)" stroke-width="1.59756"/>
<path d="M70.1563 109.063C70.1563 109.874 70.8138 110.531 71.625 110.531C72.4362 110.531 73.0938 109.874 73.0938 109.063V72.3438H109.812C110.624 72.3438 111.281 71.6862 111.281 70.875C111.281 70.0638 110.624 69.4063 109.813 69.4063H72.1563C71.0517 69.4063 70.1563 70.3017 70.1563 71.4063V109.063ZM20.2188 70.875C20.2188 71.6862 20.8763 72.3438 21.6875 72.3438H58.4063V109.062C58.4063 109.874 59.0638 110.531 59.875 110.531C60.6862 110.531 61.3438 109.874 61.3438 109.063V71.4063C61.3438 70.3017 60.4483 69.4063 59.3438 69.4063H21.6875C20.8763 69.4063 20.2188 70.0638 20.2188 70.875ZM58.4063 57.6563H55.4688V40.0313H48.573L49.748 28.2812H45.1875C45.1875 23.4212 41.2351 19.4688 36.375 19.4688C31.5149 19.4688 27.5625 23.4212 27.5625 28.2812H23.002L25.9395 57.6563H21.6875C20.8763 57.6563 20.2188 58.3138 20.2188 59.125C20.2188 59.9362 20.8763 60.5938 21.6875 60.5938H59.3438C60.4483 60.5938 61.3438 59.6983 61.3438 58.5938V20.9375C61.3438 20.1263 60.6862 19.4688 59.875 19.4688C59.0638 19.4688 58.4063 20.1263 58.4063 20.9375V57.6563ZM52.5312 57.6563H40.7813V42.9688H52.5312V57.6563ZM36.375 22.4063C39.6151 22.4063 42.25 25.0412 42.25 28.2812C42.25 31.5213 39.6151 34.1563 36.375 34.1563C33.1349 34.1563 30.5 31.5213 30.5 28.2812C30.5 25.0412 33.1349 22.4063 36.375 22.4063ZM26.248 31.2188H28.0766C29.2898 34.6365 32.546 37.0938 36.375 37.0938C40.204 37.0938 43.4603 34.6365 44.6734 31.2188H46.502L45.6208 40.0313H37.8438V57.6563H28.8917L26.248 31.2188ZM108.344 57.6563V42.0313C108.344 40.9267 107.448 40.0313 106.344 40.0313H96.5938V24.4063C96.5938 23.3017 95.6983 22.4063 94.5938 22.4063H78.0313C76.9267 22.4063 76.0313 23.3017 76.0313 24.4062V57.6563H73.0938V20.9375C73.0938 20.1263 72.4362 19.4688 71.625 19.4688C70.8138 19.4688 70.1563 20.1263 70.1563 20.9375V58.5938C70.1563 59.6983 71.0517 60.5938 72.1563 60.5938H109.813C110.624 60.5938 111.281 59.9362 111.281 59.125C111.281 58.3138 110.624 57.6563 109.813 57.6563H108.344ZM105.406 57.6563H90.7188V42.9688H105.406V57.6563ZM78.9688 25.3438H93.6562V40.0313H87.7812V57.6563H78.9688V25.3438Z" fill="#D76F30"/>
<path d="M37.34 75.2812L23.1562 86.313V89.9688H26.0938V104.656H52.5312V89.9688H55.4688V86.313L41.285 75.2812H37.34ZM43.7188 101.719H34.9062V95.8438H43.7188V101.719ZM49.5938 101.719H46.6562V92.9062H31.9688V101.719H29.0312V89.9688H49.5938V101.719ZM27.0176 87.0312L38.3475 78.2188H40.276L51.6059 87.0312H27.0176ZM34.9062 32.6875H37.8438V29.75H40.7812V26.8125H37.8438V23.875H34.9062V26.8125H31.9688V29.75H34.9062V32.6875ZM43.7188 45.9062H49.5938V48.8438H43.7188V45.9062ZM43.7188 51.7812H49.5938V54.7188H43.7188V51.7812ZM31.9688 40.0312H34.9062V42.9688H31.9688V40.0312ZM31.9688 45.9062H34.9062V48.8438H31.9688V45.9062ZM31.9688 51.7812H34.9062V54.7188H31.9688V51.7812ZM101 101.719H110.547L102.921 83.4152C102.348 82.0434 101.018 81.1562 99.5312 81.1562C98.0449 81.1562 96.7142 82.0434 96.1414 83.4152L94.1453 88.2062L89.7009 77.5402C89.1296 76.1684 87.7989 75.2812 86.3125 75.2812C84.8261 75.2812 83.4954 76.1684 82.9226 77.5402L75.2969 95.8438H84.8438V107.594H76.0312V110.531H111.281V107.594H101V101.719ZM98.8527 84.5461C99.0818 83.9983 99.9807 83.9983 100.21 84.5461L106.141 98.7812H92.9219L94.1453 95.8438H97.3281L95.7375 92.0265L98.8527 84.5461ZM85.6339 78.6711C85.8631 78.1233 86.7619 78.1233 86.9911 78.6711L92.9219 92.9062H79.7031L85.6339 78.6711ZM87.7812 95.8438H90.964L88.5156 101.719H98.0625V107.594H87.7812V95.8438ZM93.6562 45.9062H96.5938V48.8438H93.6562V45.9062ZM93.6562 51.7812H96.5938V54.7188H93.6562V51.7812ZM99.5312 45.9062H102.469V48.8438H99.5312V45.9062ZM99.5312 51.7812H102.469V54.7188H99.5312V51.7812ZM87.7812 28.2812H90.7188V31.2188H87.7812V28.2812ZM81.9062 28.2812H84.8438V31.2188H81.9062V28.2812ZM81.9062 34.1562H84.8438V37.0938H81.9062V34.1562ZM87.7812 34.1562H90.7188V37.0938H87.7812V34.1562ZM81.9062 51.7812H84.8438V54.7188H81.9062V51.7812ZM81.9062 45.9062H84.8438V48.8438H81.9062V45.9062ZM81.9062 40.0312H84.8438V42.9688H81.9062V40.0312Z" fill="#D76F30"/>
<defs>
<linearGradient id="paint0_linear_6120_170" x1="11.4512" y1="137.134" x2="136.695" y2="-8.71952" gradientUnits="userSpaceOnUse">
<stop stop-color="#FC927D"/>
<stop offset="0.25" stop-color="#FC927D" stop-opacity="0"/>
</linearGradient>
<linearGradient id="paint1_linear_6120_170" x1="130.354" y1="-16.6463" x2="11.4512" y2="130" gradientUnits="userSpaceOnUse">
<stop stop-color="#FC927D"/>
<stop offset="0.576615" stop-color="#FC927D" stop-opacity="0"/>
</linearGradient>
</defs>
</svg>
