<svg width="131" height="130" viewBox="0 0 131 130" fill="none" xmlns="http://www.w3.org/2000/svg">
<rect x="1.04878" y="0.798781" width="128.402" height="128.402" rx="19.2012" stroke="url(#paint0_linear_6120_3)" stroke-width="1.59756"/>
<rect x="1.04878" y="0.798781" width="128.402" height="128.402" rx="19.2012" stroke="url(#paint1_linear_6120_3)" stroke-width="1.59756"/>
<path d="M81.792 92C81.4454 92 81.1038 91.9805 80.777 91.9463C79.7619 91.8389 76.3107 91.2333 74.4934 88.1081C74.0181 87.2878 73.7507 86.4674 73.617 85.7105H61.2134C61.0153 86.5016 60.7133 87.2683 60.3023 87.9763C59.2675 89.7635 57.8315 90.789 56.8115 91.3359C56.5194 91.4922 56.1975 91.5703 55.8657 91.5703H49.4733C49.2901 91.5703 49.1019 91.5458 48.9237 91.4921C48.1958 91.287 45.7151 90.4081 44.3881 87.8152C43.8682 86.8044 43.6701 85.8131 43.6305 84.9683C43.1551 84.7583 42.655 84.4458 42.1945 83.9917C40.9666 82.7855 40.6546 81.1692 40.7734 80.0071L40.9022 67.1156C40.9022 67.0668 40.9071 67.0131 40.9121 66.9643C40.9913 66.0951 41.333 64.4153 42.7541 62.9748C43.4522 62.2667 44.2098 61.8126 44.8931 61.5293L49.4436 46.3966C49.6912 45.5664 50.4636 45 51.34 45H82.5991C83.4508 45 84.2034 45.5371 84.4758 46.3282L89.6848 61.6026C90.4771 61.9737 91.2049 62.4767 91.8238 63.0968C92.6706 63.9416 93.3093 64.9915 93.6608 66.1292C93.7203 66.3148 93.75 66.5101 93.75 66.7055V80.2659C93.75 81.0569 93.5767 82.5853 92.4329 83.8989C91.7198 84.7144 90.7642 85.2808 89.6155 85.5885C89.566 86.4186 89.358 87.3317 88.8827 88.2351C87.4814 90.8866 84.4708 92 81.792 92ZM59.4804 81.8041H75.4986C76.0532 81.8041 76.5879 82.0336 76.9593 82.4388C77.3307 82.8441 77.5188 83.3862 77.4693 83.9331C77.4149 84.4995 77.4545 85.3492 77.9249 86.1647C78.8112 87.6882 80.6581 88.0007 81.2028 88.0593C82.4605 88.196 84.6045 87.8737 85.3621 86.4283C85.7532 85.6812 85.6938 84.856 85.57 84.2944C85.4463 83.7182 85.5899 83.1225 85.9612 82.6635C86.3326 82.2045 86.8971 81.9359 87.4912 81.9359C88.3974 81.931 89.1005 81.7113 89.4273 81.3401C89.7591 80.9593 89.7838 80.4172 89.7838 80.261V67.0277C89.6452 66.6761 89.4075 66.2416 89.0015 65.8363C88.4816 65.3186 87.9072 65.0647 87.5111 64.9475C86.902 64.762 86.4217 64.2981 86.2187 63.7023L81.1681 48.9016H52.8106L48.3889 63.6193C48.1859 64.2981 47.6214 64.8157 46.9183 64.9719C46.6262 65.0354 46.0617 65.2161 45.5863 65.6995C45.0367 66.2562 44.8931 66.9301 44.8535 67.2475L44.7248 80.1536C44.7248 80.2317 44.7198 80.3098 44.7099 80.3928C44.7099 80.4124 44.6555 80.9104 44.9872 81.2376C45.2645 81.511 45.6507 81.5306 45.7052 81.5159C45.7101 81.5159 45.7151 81.5159 45.72 81.5159C46.3192 81.5159 46.8836 81.7796 47.26 82.2387C47.6412 82.6977 47.7848 83.3081 47.6561 83.8843C47.5768 84.231 47.4481 85.1441 47.9235 86.067C48.4285 87.0485 49.3346 87.5027 49.7902 87.6736H55.3161C55.8212 87.3415 56.4055 86.8239 56.856 86.0475C57.371 85.1588 57.4898 84.2993 57.4997 83.728C57.5195 82.6586 58.4009 81.8041 59.4804 81.8041Z" fill="#D76F30"/>
<path d="M52.25 77C54.183 77 55.75 75.433 55.75 73.5C55.75 71.567 54.183 70 52.25 70C50.317 70 48.75 71.567 48.75 73.5C48.75 75.433 50.317 77 52.25 77Z" fill="#D76F30"/>
<path d="M82.25 77C84.183 77 85.75 75.433 85.75 73.5C85.75 71.567 84.183 70 82.25 70C80.317 70 78.75 71.567 78.75 73.5C78.75 75.433 80.317 77 82.25 77Z" fill="#D76F30"/>
<path d="M103.75 68C103.75 88.4345 87.1845 105 66.75 105C56.495 105 47.2176 100.831 40.514 94.0897C33.8591 87.3978 29.75 78.1807 29.75 68C29.75 47.5655 46.3155 31 66.75 31C76.9307 31 86.1478 35.1091 92.8397 41.764C99.5807 48.4676 103.75 57.745 103.75 68Z" stroke="#D76F30" stroke-width="4"/>
<defs>
<linearGradient id="paint0_linear_6120_3" x1="10.9512" y1="137.134" x2="136.195" y2="-8.71952" gradientUnits="userSpaceOnUse">
<stop stop-color="#FC927D"/>
<stop offset="0.25" stop-color="#FC927D" stop-opacity="0"/>
</linearGradient>
<linearGradient id="paint1_linear_6120_3" x1="129.854" y1="-16.6463" x2="10.9512" y2="130" gradientUnits="userSpaceOnUse">
<stop stop-color="#FC927D"/>
<stop offset="0.576615" stop-color="#FC927D" stop-opacity="0"/>
</linearGradient>
</defs>
</svg>
