<svg width="131" height="130" viewBox="0 0 131 130" fill="none" xmlns="http://www.w3.org/2000/svg">
<rect x="1.54878" y="0.798781" width="128.402" height="128.402" rx="19.2012" stroke="url(#paint0_linear_6120_229)" stroke-width="1.59756"/>
<rect x="1.54878" y="0.798781" width="128.402" height="128.402" rx="19.2012" stroke="url(#paint1_linear_6120_229)" stroke-width="1.59756"/>
<path fill-rule="evenodd" clip-rule="evenodd" d="M28.707 51.3125C31.7407 50.7463 33.582 48.815 34.902 47.4387L35.3032 47.0225C36.687 45.6087 37.7407 44.75 39.7695 44.75C41.9895 44.75 43.0245 45.7587 44.6445 47.435L44.7082 47.5062C46.3432 49.2013 48.5557 51.5 52.782 51.5C56.9857 51.5 59.1945 49.2012 60.8182 47.51L60.8932 47.435C62.5057 45.7587 63.537 44.75 65.757 44.75C67.977 44.75 69.012 45.7587 70.632 47.435L70.6957 47.5062C72.3307 49.2013 74.5432 51.5 78.7695 51.5C82.9695 51.5 85.1745 49.2088 86.802 47.5213L86.8807 47.435C88.4932 45.7625 89.5395 44.75 91.782 44.75C93.8295 44.75 94.887 45.6125 96.267 47.0225L96.6682 47.435C97.9882 48.815 99.8332 50.7463 102.886 51.3125C103.471 51.4162 104.073 51.2844 104.561 50.9459C105.049 50.6075 105.383 50.0898 105.491 49.5058C105.599 48.9218 105.471 48.3188 105.137 47.8283C104.802 47.3378 104.286 46.9996 103.703 46.8875C102.136 46.595 101.266 45.7062 99.8295 44.225L99.4845 43.8725C97.8645 42.2188 95.697 40.25 91.782 40.25C87.5557 40.25 85.3432 42.5488 83.7082 44.2438L83.6407 44.315C82.0245 45.9913 80.9895 47 78.7695 47C76.527 47 75.4807 45.9875 73.8682 44.315L73.7895 44.2287C72.162 42.5412 69.957 40.25 65.757 40.25C61.5532 40.25 59.3445 42.545 57.7207 44.24L57.6457 44.315C56.0332 45.9913 55.002 47 52.782 47C50.5395 47 49.4932 45.9875 47.8807 44.315L47.802 44.2287C46.1745 42.5412 43.9695 40.25 39.7695 40.25C35.8695 40.25 33.702 42.2225 32.0857 43.8763L31.7407 44.2287C30.297 45.71 29.4345 46.5987 27.882 46.8912C27.5837 46.9368 27.2977 47.0419 27.0409 47.2002C26.784 47.3586 26.5617 47.5669 26.387 47.8129C26.2124 48.0589 26.089 48.3376 26.0242 48.6322C25.9594 48.9269 25.9545 49.2316 26.0099 49.5282C26.0652 49.8248 26.1796 50.1072 26.3463 50.3587C26.513 50.6101 26.7286 50.8255 26.9802 50.992C27.2319 51.1584 27.5144 51.2726 27.811 51.3277C28.1077 51.3827 28.4124 51.3776 28.707 51.3125ZM34.902 66.5637C33.5857 67.94 31.7407 69.8712 28.707 70.4375C28.1202 70.5469 27.5139 70.4187 27.0217 70.0812C26.5294 69.7436 26.1914 69.2243 26.082 68.6375C25.9726 68.0507 26.1007 67.4445 26.4383 66.9522C26.7759 66.4599 27.2952 66.1219 27.882 66.0125C29.4345 65.7238 30.297 64.835 31.7407 63.3537L32.0857 63.0012C33.702 61.3475 35.8732 59.375 39.7695 59.375C43.9695 59.375 46.1745 61.6625 47.802 63.3537L47.8807 63.44C49.4932 65.1125 50.5395 66.125 52.782 66.125C55.002 66.125 56.037 65.1162 57.6457 63.44L57.7207 63.365C59.3445 61.67 61.5532 59.375 65.757 59.375C69.957 59.375 72.162 61.6625 73.7895 63.3537L73.8682 63.44C75.4807 65.1125 76.527 66.125 78.7695 66.125C80.9895 66.125 82.0245 65.1162 83.6445 63.44L83.7082 63.3687C85.3432 61.6737 87.5557 59.375 91.782 59.375C95.697 59.375 97.8645 61.3438 99.4845 63.0012L99.8295 63.3537C101.269 64.8312 102.136 65.72 103.703 66.0125C104.286 66.1246 104.802 66.4628 105.137 66.9533C105.471 67.4438 105.599 68.0468 105.491 68.6308C105.383 69.2148 105.049 69.7325 104.561 70.0709C104.073 70.4094 103.471 70.5411 102.886 70.4375C99.8332 69.875 97.9882 67.94 96.6682 66.56L96.267 66.1475C94.887 64.7375 93.8295 63.875 91.782 63.875C89.5395 63.875 88.4932 64.8875 86.8807 66.56L86.802 66.6462C85.1745 68.3337 82.9657 70.625 78.7695 70.625C74.5432 70.625 72.3307 68.3263 70.6957 66.6313L70.6282 66.56C69.012 64.8838 67.977 63.875 65.757 63.875C63.537 63.875 62.502 64.8838 60.8932 66.56L60.8182 66.635C59.1907 68.3263 56.9857 70.625 52.782 70.625C48.5557 70.625 46.3432 68.3263 44.7082 66.6313L44.6407 66.56C43.0245 64.8838 41.9895 63.875 39.7695 63.875C37.7445 63.875 36.687 64.7337 35.3032 66.1475L34.902 66.5637ZM34.902 85.6888C33.5857 87.065 31.7407 88.9963 28.707 89.5625C28.1202 89.6719 27.5139 89.5437 27.0217 89.2062C26.5294 88.8686 26.1914 88.3493 26.082 87.7625C25.9726 87.1757 26.1007 86.5695 26.4383 86.0772C26.7759 85.5849 27.2952 85.2469 27.882 85.1375C29.4345 84.8488 30.297 83.96 31.7407 82.4787L32.0857 82.1225C33.702 80.4725 35.8732 78.5 39.7695 78.5C43.9695 78.5 46.1745 80.7875 47.802 82.4787L47.8807 82.5613C49.4932 84.2338 50.5395 85.25 52.782 85.25C55.002 85.25 56.037 84.2413 57.6457 82.565L57.7207 82.49C59.3445 80.795 61.5532 78.5 65.757 78.5C69.957 78.5 72.162 80.7875 73.7895 82.4787L73.8682 82.5613C75.4807 84.2338 76.527 85.25 78.7695 85.25C80.9895 85.25 82.0245 84.2413 83.6445 82.565L83.7082 82.4938C85.3432 80.7988 87.5557 78.5 91.782 78.5C95.697 78.5 97.8645 80.4688 99.4845 82.1225L99.8295 82.4787C101.269 83.9562 102.136 84.845 103.703 85.1375C104.286 85.2496 104.802 85.5878 105.137 86.0783C105.471 86.5688 105.599 87.1718 105.491 87.7558C105.383 88.3398 105.049 88.8575 104.561 89.1959C104.073 89.5344 103.471 89.6661 102.886 89.5625C99.8332 89 97.9882 87.065 96.6682 85.685C96.5354 85.5466 96.4016 85.4091 96.267 85.2725C94.887 83.8625 93.8295 83 91.782 83C89.5395 83 88.4932 84.0125 86.8807 85.685L86.802 85.7712C85.1745 87.4587 82.9657 89.7463 78.7695 89.7463C74.5432 89.7463 72.3307 87.4513 70.6957 85.7563L70.6282 85.685C69.012 84.0088 67.977 83 65.757 83C63.537 83 62.502 84.0088 60.8932 85.685L60.8182 85.76C59.1907 87.4512 56.9857 89.75 52.782 89.75C48.5557 89.75 46.3432 87.4513 44.7082 85.7563L44.6407 85.685C43.0245 84.0088 41.9895 83 39.7695 83C37.7445 83 36.687 83.8588 35.3032 85.2725L34.902 85.6888Z" fill="#D76F30"/>
<defs>
<linearGradient id="paint0_linear_6120_229" x1="11.4512" y1="137.134" x2="136.695" y2="-8.71952" gradientUnits="userSpaceOnUse">
<stop stop-color="#FC927D"/>
<stop offset="0.25" stop-color="#FC927D" stop-opacity="0"/>
</linearGradient>
<linearGradient id="paint1_linear_6120_229" x1="130.354" y1="-16.6463" x2="11.4512" y2="130" gradientUnits="userSpaceOnUse">
<stop stop-color="#FC927D"/>
<stop offset="0.576615" stop-color="#FC927D" stop-opacity="0"/>
</linearGradient>
</defs>
</svg>
