<svg width="131" height="130" viewBox="0 0 131 130" fill="none" xmlns="http://www.w3.org/2000/svg">
<rect x="1.04878" y="0.798781" width="128.402" height="128.402" rx="19.2012" stroke="url(#paint0_linear_6120_272)" stroke-width="1.59756"/>
<rect x="1.04878" y="0.798781" width="128.402" height="128.402" rx="19.2012" stroke="url(#paint1_linear_6120_272)" stroke-width="1.59756"/>
<path d="M48.9916 54.6531C42.4573 54.6531 37.1436 49.3393 37.1436 42.8051C37.1436 36.2708 42.4573 30.957 48.9916 30.957C55.5259 30.957 60.8396 36.2708 60.8396 42.8051C60.847 49.3393 55.5259 54.6531 48.9916 54.6531ZM48.9916 36.1592C45.33 36.1592 42.3531 39.136 42.3531 42.7976C42.3531 46.4592 45.33 49.4361 48.9916 49.4361C52.6532 49.4361 55.63 46.4592 55.63 42.7976C55.6375 39.1435 52.6532 36.1592 48.9916 36.1592Z" fill="#D76F30"/>
<path d="M64.9407 86.8333H31.5921C30.7437 86.8333 29.9548 86.424 29.4636 85.7319C28.9724 85.0398 28.8533 84.1541 29.1361 83.3578L37.7021 59.1929L18.9477 56.2234C17.5263 56.0002 16.5588 54.668 16.782 53.2466C17.0053 51.8251 18.3375 50.8576 19.7589 51.0809L41.6093 54.5415C42.3759 54.6606 43.0456 55.1145 43.4401 55.7843C43.8345 56.4467 43.9164 57.2579 43.6559 57.9873L35.2685 81.6312H61.1601L51.8573 56.9081C51.4182 55.7397 51.8721 54.4224 52.9364 53.7675C54.0006 53.1126 55.3849 53.3135 56.2259 54.2364L67.7315 66.903C68.699 67.9673 68.6172 69.612 67.5529 70.5795C66.4887 71.547 64.844 71.4651 63.8765 70.4009L61.5471 67.8333L67.3743 83.3132C67.6794 84.1095 67.5678 85.01 67.0766 85.7096C66.5929 86.4166 65.7965 86.8333 64.9407 86.8333Z" fill="#D76F30"/>
<path d="M26.6509 54.1097C22.8181 54.1097 19.6924 50.9914 19.6924 47.1512C19.6924 43.311 22.8107 40.2002 26.6509 40.2002C30.4836 40.2002 33.6019 43.3185 33.6019 47.1512C33.6019 50.984 30.4836 54.1097 26.6509 54.1097ZM26.6509 45.4098C25.6908 45.4098 24.9019 46.1912 24.9019 47.1512C24.9019 48.1113 25.6834 48.9002 26.6509 48.9002C27.6183 48.9002 28.3923 48.1187 28.3923 47.1512C28.3923 46.1837 27.6109 45.4098 26.6509 45.4098Z" fill="#D76F30"/>
<path d="M42.5843 103.578C41.1479 103.578 39.9795 102.409 39.9795 100.973V84.2278C39.9795 82.7915 41.1479 81.623 42.5843 81.623C44.0206 81.623 45.1891 82.7915 45.1891 84.2278V100.973C45.1891 102.409 44.0281 103.578 42.5843 103.578Z" fill="#D76F30"/>
<path d="M54.7454 103.578C53.3091 103.578 52.1406 102.409 52.1406 100.973V84.2278C52.1406 82.7915 53.3091 81.623 54.7454 81.623C56.1818 81.623 57.3502 82.7915 57.3502 84.2278V100.973C57.3502 102.409 56.1818 103.578 54.7454 103.578Z" fill="#D76F30"/>
<path d="M68.4312 103.139C68.0814 103.139 67.7316 103.072 67.3967 102.923C66.0795 102.35 65.4766 100.817 66.0497 99.4925L78.0614 71.8893V45.4917C78.0614 44.0554 79.2299 42.8869 80.6662 42.8869H86.5009C87.193 42.8869 87.8555 43.1623 88.3466 43.6535L89.9616 45.2684L91.8668 43.3632C92.358 42.872 93.0203 42.5967 93.7125 42.5967H100.745C102.182 42.5967 103.35 43.7651 103.35 45.2015V70.6837L113.278 99.3884C113.747 100.75 113.025 102.231 111.671 102.7C110.309 103.169 108.828 102.447 108.359 101.093L98.2895 71.9712C98.1927 71.6958 98.148 71.413 98.148 71.1228V47.8062H94.799L91.8147 50.7906C91.3235 51.2818 90.6611 51.5497 89.9765 51.5497C89.2843 51.5497 88.622 51.2743 88.1382 50.7831L85.4442 48.089H83.2933V72.4251C83.2933 72.7824 83.2189 73.1396 83.0775 73.4671L70.85 101.569C70.396 102.559 69.4359 103.139 68.4312 103.139Z" fill="#D76F30"/>
<path d="M86.5006 48.1039C85.5257 48.1039 84.5881 47.5532 84.1415 46.6155L76.5653 30.5998C75.9476 29.2974 76.5058 27.7494 77.8082 27.1317C79.1106 26.514 80.6586 27.0722 81.2763 28.3746L88.8524 44.3902C89.4701 45.6926 88.912 47.2406 87.6096 47.8583C87.2524 48.022 86.8728 48.1039 86.5006 48.1039Z" fill="#D76F30"/>
<path d="M93.6979 47.8061C93.2885 47.8061 92.8792 47.7093 92.4922 47.5084C91.2196 46.846 90.721 45.2683 91.3908 43.9956L100.046 27.3995C100.708 26.1268 102.286 25.6282 103.559 26.298C104.831 26.9604 105.33 28.5381 104.66 29.8107L95.9975 46.4069C95.5435 47.3 94.643 47.8061 93.6979 47.8061Z" fill="#D76F30"/>
<path d="M90.4826 100.378C84.3502 100.378 79.3564 95.3919 79.3564 89.2521C79.3564 83.1197 84.3428 78.126 90.4826 78.126C96.6225 78.126 101.609 83.1123 101.609 89.2521C101.601 95.3845 96.615 100.378 90.4826 100.378ZM90.4826 83.3355C87.2229 83.3355 84.566 85.985 84.566 89.2521C84.566 92.5118 87.2155 95.1687 90.4826 95.1687C93.7423 95.1687 96.3992 92.5192 96.3992 89.2521C96.3917 85.9924 93.7423 83.3355 90.4826 83.3355Z" fill="#D76F30"/>
<defs>
<linearGradient id="paint0_linear_6120_272" x1="10.9512" y1="137.134" x2="136.195" y2="-8.71952" gradientUnits="userSpaceOnUse">
<stop stop-color="#FC927D"/>
<stop offset="0.25" stop-color="#FC927D" stop-opacity="0"/>
</linearGradient>
<linearGradient id="paint1_linear_6120_272" x1="129.854" y1="-16.6463" x2="10.9512" y2="130" gradientUnits="userSpaceOnUse">
<stop stop-color="#FC927D"/>
<stop offset="0.576615" stop-color="#FC927D" stop-opacity="0"/>
</linearGradient>
</defs>
</svg>
