<svg width="131" height="130" viewBox="0 0 131 130" fill="none" xmlns="http://www.w3.org/2000/svg">
<rect x="1.54878" y="0.798781" width="128.402" height="128.402" rx="19.2012" stroke="url(#paint0_linear_6120_54)" stroke-width="1.59756"/>
<rect x="1.54878" y="0.798781" width="128.402" height="128.402" rx="19.2012" stroke="url(#paint1_linear_6120_54)" stroke-width="1.59756"/>
<path d="M66.6383 74.922H37.012C36.0154 74.922 35.1039 74.3813 34.6326 73.5083C34.1614 72.6354 34.2077 71.5693 34.7484 70.7427L51.8522 44.5927C52.3543 43.8279 53.2041 43.3721 54.1157 43.3721H83.7421C84.7386 43.3721 85.6502 43.9128 86.1214 44.7858C86.5927 45.6587 86.5464 46.7248 86.0056 47.5514L68.9019 73.7014C68.4075 74.4662 67.5499 74.922 66.6383 74.922ZM42.0179 69.5144H65.1782L78.7438 48.772H55.5835L42.0179 69.5144Z" fill="#D76F30"/>
<path d="M37.0204 92.4579C25.8651 92.4579 16.7803 83.3807 16.7803 72.2177C16.7803 61.0547 25.8574 51.9775 37.0204 51.9775C48.1834 51.9775 57.2606 61.0547 57.2606 72.2177C57.2606 83.3807 48.1757 92.4579 37.0204 92.4579ZM37.0204 57.393C28.8471 57.393 22.188 64.0444 22.188 72.2254C22.188 80.4065 28.8394 87.058 37.0204 87.058C45.1937 87.058 51.8529 80.4065 51.8529 72.2254C51.8529 64.0444 45.1937 57.393 37.0204 57.393Z" fill="#D76F30"/>
<path d="M94.0098 92.4579C82.8545 92.4579 73.7695 83.3807 73.7695 72.2177C73.7695 61.0547 82.8468 51.9775 94.0098 51.9775C105.173 51.9775 114.25 61.0547 114.25 72.2177C114.25 83.3807 105.173 92.4579 94.0098 92.4579ZM94.0098 57.393C85.8364 57.393 79.1772 64.0444 79.1772 72.2254C79.1772 80.4065 85.8287 87.058 94.0098 87.058C102.183 87.058 108.842 80.4065 108.842 72.2254C108.842 64.0444 102.191 57.393 94.0098 57.393Z" fill="#D76F30"/>
<path d="M56.6038 39.5551H38.9206C37.4297 39.5551 36.2168 38.3423 36.2168 36.8513C36.2168 35.3603 37.4297 34.1475 38.9206 34.1475H56.6038C58.0947 34.1475 59.3076 35.3603 59.3076 36.8513C59.3076 38.3423 58.0947 39.5551 56.6038 39.5551Z" fill="#D76F30"/>
<path d="M66.6463 74.9212C65.6729 74.9212 64.7382 74.3959 64.2515 73.4766L45.595 38.1103C44.8997 36.7893 45.4018 35.1516 46.7228 34.4563C48.0439 33.761 49.6817 34.2632 50.377 35.5842L69.0334 70.9504C69.7287 72.2714 69.2266 73.9092 67.9055 74.6045C67.5038 74.8208 67.0712 74.9212 66.6463 74.9212Z" fill="#D76F30"/>
<path d="M94.0089 74.9214C92.7961 74.9214 91.6913 74.0948 91.3823 72.8588L82.8459 38.0951C82.4905 36.6427 83.3789 35.1827 84.8236 34.8273C86.2759 34.4719 87.736 35.3603 88.0913 36.805L96.6278 71.5687C96.9832 73.021 96.0947 74.4811 94.6501 74.8364C94.4415 74.8982 94.2252 74.9214 94.0089 74.9214Z" fill="#D76F30"/>
<path d="M86.2537 40.2197C85.9292 40.2197 85.597 40.1965 85.2648 40.1579L72.5645 39.8566C71.0736 39.818 69.8916 38.5819 69.9225 37.0909C69.9534 35.6231 71.1585 34.4489 72.6263 34.4489C72.6495 34.4489 72.6727 34.4489 72.6882 34.4489L85.5353 34.7502C85.6434 34.7502 85.7515 34.7579 85.852 34.7734C86.5781 34.8815 87.2966 34.6884 87.8837 34.2326C88.4167 33.8154 88.7644 33.2283 88.8262 32.6257C88.8957 31.9845 88.664 31.3202 88.1927 30.7871C87.8914 30.4549 87.2426 29.891 86.2074 29.8833H79.8726C78.3816 29.8833 77.1688 28.6704 77.1688 27.1794C77.1688 25.6885 78.3816 24.4756 79.8726 24.4756H86.2227C88.5249 24.491 90.7034 25.4799 92.2253 27.1949C93.7163 28.8713 94.4348 31.0652 94.203 33.2206C93.979 35.2755 92.882 37.2068 91.1979 38.5201C89.761 39.6325 88.0382 40.2197 86.2537 40.2197Z" fill="#D76F30"/>
<path d="M26.7533 105.475C28.5495 105.475 30.0057 104.019 30.0057 102.223C30.0057 100.427 28.5495 98.9707 26.7533 98.9707C24.9571 98.9707 23.501 100.427 23.501 102.223C23.501 104.019 24.9571 105.475 26.7533 105.475Z" fill="#D76F30"/>
<path d="M36.0238 105.475C37.82 105.475 39.2762 104.019 39.2762 102.223C39.2762 100.427 37.82 98.9707 36.0238 98.9707C34.2276 98.9707 32.7715 100.427 32.7715 102.223C32.7715 104.019 34.2276 105.475 36.0238 105.475Z" fill="#D76F30"/>
<path d="M45.2943 105.475C47.0905 105.475 48.5467 104.019 48.5467 102.223C48.5467 100.427 47.0905 98.9707 45.2943 98.9707C43.4981 98.9707 42.042 100.427 42.042 102.223C42.042 104.019 43.4981 105.475 45.2943 105.475Z" fill="#D76F30"/>
<path d="M54.5638 105.475C56.36 105.475 57.8162 104.019 57.8162 102.223C57.8162 100.427 56.36 98.9707 54.5638 98.9707C52.7676 98.9707 51.3115 100.427 51.3115 102.223C51.3115 104.019 52.7676 105.475 54.5638 105.475Z" fill="#D76F30"/>
<path d="M63.8343 105.475C65.6306 105.475 67.0867 104.019 67.0867 102.223C67.0867 100.427 65.6306 98.9707 63.8343 98.9707C62.0381 98.9707 60.582 100.427 60.582 102.223C60.582 104.019 62.0381 105.475 63.8343 105.475Z" fill="#D76F30"/>
<path d="M73.1048 105.475C74.9011 105.475 76.3572 104.019 76.3572 102.223C76.3572 100.427 74.9011 98.9707 73.1048 98.9707C71.3086 98.9707 69.8525 100.427 69.8525 102.223C69.8525 104.019 71.3086 105.475 73.1048 105.475Z" fill="#D76F30"/>
<path d="M82.3754 105.475C84.1716 105.475 85.6277 104.019 85.6277 102.223C85.6277 100.427 84.1716 98.9707 82.3754 98.9707C80.5791 98.9707 79.123 100.427 79.123 102.223C79.123 104.019 80.5791 105.475 82.3754 105.475Z" fill="#D76F30"/>
<path d="M91.6449 105.475C93.4411 105.475 94.8973 104.019 94.8973 102.223C94.8973 100.427 93.4411 98.9707 91.6449 98.9707C89.8487 98.9707 88.3926 100.427 88.3926 102.223C88.3926 104.019 89.8487 105.475 91.6449 105.475Z" fill="#D76F30"/>
<path d="M100.915 105.475C102.712 105.475 104.168 104.019 104.168 102.223C104.168 100.427 102.712 98.9707 100.915 98.9707C99.1192 98.9707 97.6631 100.427 97.6631 102.223C97.6631 104.019 99.1192 105.475 100.915 105.475Z" fill="#D76F30"/>
<path d="M110.186 105.475C111.982 105.475 113.438 104.019 113.438 102.223C113.438 100.427 111.982 98.9707 110.186 98.9707C108.39 98.9707 106.934 100.427 106.934 102.223C106.934 104.019 108.39 105.475 110.186 105.475Z" fill="#D76F30"/>
<defs>
<linearGradient id="paint0_linear_6120_54" x1="11.4512" y1="137.134" x2="136.695" y2="-8.71952" gradientUnits="userSpaceOnUse">
<stop stop-color="#FC927D"/>
<stop offset="0.25" stop-color="#FC927D" stop-opacity="0"/>
</linearGradient>
<linearGradient id="paint1_linear_6120_54" x1="130.354" y1="-16.6463" x2="11.4512" y2="130" gradientUnits="userSpaceOnUse">
<stop stop-color="#FC927D"/>
<stop offset="0.576615" stop-color="#FC927D" stop-opacity="0"/>
</linearGradient>
</defs>
</svg>
