<svg width="131" height="130" viewBox="0 0 131 130" fill="none" xmlns="http://www.w3.org/2000/svg">
<rect x="1.04878" y="0.798781" width="128.402" height="128.402" rx="19.2012" stroke="url(#paint0_linear_6120_43)" stroke-width="1.59756"/>
<rect x="1.04878" y="0.798781" width="128.402" height="128.402" rx="19.2012" stroke="url(#paint1_linear_6120_43)" stroke-width="1.59756"/>
<path d="M73.2897 84.7875C73.0596 84.7875 72.8295 84.7612 72.606 84.6954C71.6857 84.4456 70.9757 83.7225 70.7456 82.8021L66.2885 65.2234C66.0387 64.2439 66.374 63.2118 67.1497 62.561L85.7539 46.9545C86.4573 46.3694 87.4105 46.1853 88.2783 46.4746C89.146 46.7638 89.7969 47.4869 90.0072 48.3744L93.5243 63.5537C93.7281 64.428 93.4717 65.3484 92.8406 65.986L75.1764 83.992C74.6702 84.5113 73.9865 84.7875 73.2897 84.7875ZM71.7909 65.5324L74.6965 76.9776L88.0745 63.3367L85.8525 53.7388L71.7909 65.5324Z" fill="#D76F30"/>
<path d="M90.632 84.7867H73.2966C71.8437 84.7867 70.667 83.6099 70.667 82.1571C70.667 80.7043 71.8437 79.5275 73.2966 79.5275H89.5474L101.959 67.1159L90.8818 66.7807C89.429 66.7346 88.2917 65.525 88.3312 64.0722C88.3772 62.6194 89.5999 61.4821 91.0396 61.5215L108.198 62.0409C109.243 62.0737 110.176 62.7245 110.564 63.6975C110.952 64.6704 110.722 65.7814 109.979 66.5243L92.4925 84.011C91.9994 84.5106 91.3289 84.7867 90.632 84.7867Z" fill="#D76F30"/>
<path d="M73.2897 99.4542C71.8369 99.4542 70.6602 98.2774 70.6602 96.8246V82.1647C70.6602 80.7119 71.8369 79.5352 73.2897 79.5352C74.7426 79.5352 75.9193 80.7119 75.9193 82.1647V96.8246C75.9193 98.2709 74.7426 99.4542 73.2897 99.4542Z" fill="#D76F30"/>
<path d="M90.6315 100.052C89.1787 100.052 88.002 98.8754 88.002 97.4226V82.1579C88.002 80.7051 89.1787 79.5283 90.6315 79.5283C92.0844 79.5283 93.2611 80.7051 93.2611 82.1579V97.4226C93.2611 98.8754 92.0844 100.052 90.6315 100.052Z" fill="#D76F30"/>
<path d="M108.118 82.9001C106.665 82.9001 105.488 81.7234 105.488 80.2705V64.6706C105.488 63.2178 106.665 62.041 108.118 62.041C109.571 62.041 110.747 63.2178 110.747 64.6706V80.2705C110.747 81.7234 109.564 82.9001 108.118 82.9001Z" fill="#D76F30"/>
<path d="M36.8503 100.564C35.3974 100.564 34.2207 99.3875 34.2207 97.9347V36.5407C34.2207 35.0879 35.3974 33.9111 36.8503 33.9111C38.3031 33.9111 39.4799 35.0879 39.4799 36.5407V97.9347C39.4799 99.3875 38.3031 100.564 36.8503 100.564Z" fill="#D76F30"/>
<path d="M53.3113 52.634C52.6408 52.634 51.9768 52.3841 51.4641 51.8714L36.9817 37.5402L23.4065 51.661C22.4007 52.7063 20.7375 52.7391 19.6857 51.7333C18.6404 50.7275 18.6076 49.0643 19.6134 48.0125L36.8897 30.0459L55.1652 48.1308C56.1973 49.1498 56.2039 50.8196 55.1849 51.8517C54.6656 52.371 53.9885 52.634 53.3113 52.634Z" fill="#D76F30"/>
<path d="M53.4824 69.2599C52.8316 69.2599 52.1808 69.0232 51.6746 68.5367L36.9556 54.5803L22.986 68.1752C21.9473 69.1875 20.284 69.1678 19.2651 68.1226C18.2527 67.0839 18.2724 65.4141 19.3177 64.4017L36.903 47.2832L55.2837 64.7107C56.3355 65.71 56.3815 67.3731 55.3823 68.425C54.8761 68.9837 54.1793 69.2599 53.4824 69.2599Z" fill="#D76F30"/>
<path d="M53.4824 85.8849C52.8316 85.8849 52.1808 85.6482 51.6746 85.1618L36.9556 71.2053L22.986 84.8002C21.9473 85.8126 20.284 85.7928 19.2651 84.7476C18.2527 83.7089 18.2724 82.0391 19.3177 81.0267L36.903 63.9082L55.2837 81.3357C56.3355 82.335 56.3815 83.9982 55.3823 85.05C54.8761 85.6088 54.1793 85.8849 53.4824 85.8849Z" fill="#D76F30"/>
<defs>
<linearGradient id="paint0_linear_6120_43" x1="10.9512" y1="137.134" x2="136.195" y2="-8.71952" gradientUnits="userSpaceOnUse">
<stop stop-color="#FC927D"/>
<stop offset="0.25" stop-color="#FC927D" stop-opacity="0"/>
</linearGradient>
<linearGradient id="paint1_linear_6120_43" x1="129.854" y1="-16.6463" x2="10.9512" y2="130" gradientUnits="userSpaceOnUse">
<stop stop-color="#FC927D"/>
<stop offset="0.576615" stop-color="#FC927D" stop-opacity="0"/>
</linearGradient>
</defs>
</svg>
