<svg width="131" height="130" viewBox="0 0 131 130" fill="none" xmlns="http://www.w3.org/2000/svg">
<rect x="1.54878" y="0.798781" width="128.402" height="128.402" rx="19.2012" stroke="url(#paint0_linear_6120_163)" stroke-width="1.59756"/>
<rect x="1.54878" y="0.798781" width="128.402" height="128.402" rx="19.2012" stroke="url(#paint1_linear_6120_163)" stroke-width="1.59756"/>
<path d="M65.7502 101.92C45.3926 101.92 28.8301 85.3578 28.8301 65.0002C28.8301 44.6426 45.3926 28.0801 65.7502 28.0801C86.1078 28.0801 102.67 44.6426 102.67 65.0002C102.67 85.3578 86.1078 101.92 65.7502 101.92ZM65.7502 32.8928C48.0464 32.8928 33.6428 47.2964 33.6428 65.0002C33.6428 82.7039 48.0464 97.1076 65.7502 97.1076C83.454 97.1076 97.8576 82.7039 97.8576 65.0002C97.8576 47.2964 83.454 32.8928 65.7502 32.8928Z" fill="#D76F30"/>
<path d="M68.1564 30.6787H63.3438V99.5137H68.1564V30.6787Z" fill="#D76F30"/>
<path d="M100.264 62.5938H31.2363V67.4064H100.264V62.5938Z" fill="#D76F30"/>
<path d="M91.3256 88.2517C90.0881 87.3855 79.2527 79.3414 79.1839 65.0134C79.1152 50.5204 90.0743 42.3801 91.3256 41.4932L94.0963 45.4258C93.0582 46.1615 83.9347 52.9336 83.9966 64.9859C84.0516 76.9007 93.0719 83.5903 94.0963 84.3122L91.3256 88.2517Z" fill="#D76F30"/>
<path d="M39.6789 88.3624L37.252 84.2029C37.362 84.141 48.3073 77.6095 48.3692 64.9866C48.4105 57.0182 44.1478 49.5654 37.252 45.5365L39.6789 41.377C48.0598 46.2653 53.2369 55.32 53.1888 65.0072C53.1132 80.3528 40.2289 88.0462 39.6789 88.3624Z" fill="#D76F30"/>
<defs>
<linearGradient id="paint0_linear_6120_163" x1="11.4512" y1="137.134" x2="136.695" y2="-8.71952" gradientUnits="userSpaceOnUse">
<stop stop-color="#FC927D"/>
<stop offset="0.25" stop-color="#FC927D" stop-opacity="0"/>
</linearGradient>
<linearGradient id="paint1_linear_6120_163" x1="130.354" y1="-16.6463" x2="11.4512" y2="130" gradientUnits="userSpaceOnUse">
<stop stop-color="#FC927D"/>
<stop offset="0.576615" stop-color="#FC927D" stop-opacity="0"/>
</linearGradient>
</defs>
</svg>
