<svg width="40" height="40" viewBox="0 0 40 40" fill="none" xmlns="http://www.w3.org/2000/svg">
<path d="M38.5 20.5C38.5 30.4411 30.4411 38.5 20.5 38.5C10.5589 38.5 2.5 30.4411 2.5 20.5C2.5 10.5589 10.5589 2.5 20.5 2.5C30.4411 2.5 38.5 10.5589 38.5 20.5Z" fill="white"/>
<g clip-path="url(#clip0_2060_400)">
<path d="M20 17.332C17.976 17.332 16.332 18.976 16.332 21C16.332 23.024 17.976 24.672 20 24.672C22.024 24.672 23.672 23.024 23.672 21C23.672 18.976 22.024 17.332 20 17.332Z" fill="#666665"/>
<path d="M25.536 11H14.464C12.004 11 10 13.004 10 15.464V26.536C10 29 12.004 31 14.464 31H25.536C28 31 30 29 30 26.536V15.464C30 13.004 28 11 25.536 11ZM20 27.48C16.428 27.48 13.52 24.572 13.52 21C13.52 17.428 16.428 14.524 20 14.524C23.572 14.524 26.48 17.428 26.48 21C26.48 24.572 23.572 27.48 20 27.48ZM26.616 15.7C25.86 15.7 25.244 15.088 25.244 14.332C25.244 13.576 25.86 12.96 26.616 12.96C27.372 12.96 27.988 13.576 27.988 14.332C27.988 15.088 27.372 15.7 26.616 15.7Z" fill="#060401"/>
</g>
<defs>
<clipPath id="clip0_2060_400">
<rect width="20" height="20" fill="white" transform="translate(10 11)"/>
</clipPath>
</defs>
</svg>
