
<svg width="40" height="40" viewBox="0 0 40 40" fill="none" xmlns="http://www.w3.org/2000/svg">
<path d="M38 19C38 28.9411 29.9411 37 20 37C10.0589 37 2 28.9411 2 19C2 9.05887 10.0589 1 20 1C29.9411 1 38 9.05887 38 19Z" fill="white"/>
<path d="M24.36 21C24.44 20.34 24.5 19.68 24.5 19C24.5 18.32 24.44 17.66 24.36 17H27.74C27.9 17.64 28 18.31 28 19C28 19.69 27.9 20.36 27.74 21M22.59 26.56C23.19 25.45 23.65 24.25 23.97 23H26.92C25.9512 24.6683 24.4141 25.932 22.59 26.56ZM22.34 21H17.66C17.56 20.34 17.5 19.68 17.5 19C17.5 18.32 17.56 17.65 17.66 17H22.34C22.43 17.65 22.5 18.32 22.5 19C22.5 19.68 22.43 20.34 22.34 21ZM20 26.96C19.17 25.76 18.5 24.43 18.09 23H21.91C21.5 24.43 20.83 25.76 20 26.96ZM16 15H13.08C14.0386 13.327 15.5747 12.0612 17.4 11.44C16.8 12.55 16.35 13.75 16 15ZM13.08 23H16C16.35 24.25 16.8 25.45 17.4 26.56C15.5783 25.9323 14.0443 24.6682 13.08 23ZM12.26 21C12.1 20.36 12 19.69 12 19C12 18.31 12.1 17.64 12.26 17H15.64C15.56 17.66 15.5 18.32 15.5 19C15.5 19.68 15.56 20.34 15.64 21M20 11.03C20.83 12.23 21.5 13.57 21.91 15H18.09C18.5 13.57 19.17 12.23 20 11.03ZM26.92 15H23.97C23.6565 13.7616 23.1931 12.5661 22.59 11.44C24.43 12.07 25.96 13.34 26.92 15ZM20 9C14.47 9 10 13.5 10 19C10 21.6522 11.0536 24.1957 12.9289 26.0711C13.8575 26.9997 14.9599 27.7362 16.1732 28.2388C17.3864 28.7413 18.6868 29 20 29C22.6522 29 25.1957 27.9464 27.0711 26.0711C28.9464 24.1957 30 21.6522 30 19C30 17.6868 29.7413 16.3864 29.2388 15.1732C28.7362 13.9599 27.9997 12.8575 27.0711 11.9289C26.1425 11.0003 25.0401 10.2638 23.8268 9.7612C22.6136 9.25866 21.3132 9 20 9Z" fill="#060401"/>
</svg>
