<svg width="40" height="40" viewBox="0 0 40 40" fill="none" xmlns="http://www.w3.org/2000/svg">
<path fill-rule="evenodd" clip-rule="evenodd" d="M20 38C29.9411 38 38 29.9411 38 20C38 10.0589 29.9411 2 20 2C10.0589 2 2 10.0589 2 20C2 29.9411 10.0589 38 20 38ZM27.2375 11.1054C28.1583 10.7011 29.1429 11.5186 28.9826 12.5542L26.6108 27.8765C26.4666 28.8079 25.475 29.2934 24.7043 28.8101L17.8321 24.5006C17.1159 24.0515 16.9978 23.0113 17.5932 22.3974L23.7312 16.0691C23.9508 15.8426 23.6706 15.477 23.4134 15.6546L14.8863 21.5458C14.256 21.9813 13.4744 22.1002 12.7525 21.8703L8.97035 20.6659C8.28549 20.4478 8.23719 19.4476 8.89752 19.1577L27.2375 11.1054Z" fill="white"/>
</svg>
