<svg width="449" height="760" viewBox="0 0 449 760" fill="none" xmlns="http://www.w3.org/2000/svg">
<g clip-path="url(#clip0_2025_2117)">
<path d="M547.1 316.8C548.473 284.644 523.796 254.649 500.332 262.251C476.868 269.854 457.99 292.48 455.649 314.466C453.307 336.452 492.754 324.061 510.397 331.719C528.088 339.486 546.416 331.972 547.1 316.8Z" stroke="#5B5B5B" stroke-miterlimit="10"/>
<path d="M449.499 258.264C427.283 267.509 428.819 289.827 414.505 308.477C406.139 319.439 407.191 325.432 409.553 331.1C413.404 340.111 430.85 345.913 437.615 347.682C458.189 353.254 491.19 350.45 508.591 361.958C539.421 382.219 558.934 343.679 566.722 323.799C576.74 298.404 570.744 279.493 554.824 269.135C519.116 246.265 519.076 229.483 449.499 258.264Z" stroke="#5B5B5B" stroke-miterlimit="10"/>
<path d="M518.907 229.636C506.955 214.734 476.641 231.342 424.946 240.098C385.847 246.746 395.86 289.865 371.462 319.395C346.363 349.886 365.205 354.202 392.546 362.77C423.138 372.485 481.154 369.6 509.942 391.915C553.217 425.41 575.418 355.114 589.423 330.47C609.673 294.879 598.052 275.292 577.96 261.292C557.272 247.038 527.299 240.16 518.907 229.636Z" stroke="#5B5B5B" stroke-miterlimit="10"/>
<path d="M530.863 212.186C519.039 187.081 475.604 211.481 401.107 221.289C345.823 228.512 363.327 289.243 328.715 329.831C292.023 372.643 319.747 379.378 363.022 386.197C407.348 393.197 477.194 391.819 512.038 421.08C567.838 468.007 593.154 365.887 613.405 336.236C644.613 290.545 628.859 268.228 602.548 252.688C576.14 236.932 538.742 228.794 530.863 212.186Z" stroke="#5B5B5B" stroke-miterlimit="10"/>
<path d="M637.214 341.199C679.284 285.855 659.313 260.591 627.141 243.477C594.834 226.422 550.278 217.409 542.946 194.41C531.596 159.486 474.599 191.461 377.653 202.28C306.258 210.262 331.292 288.257 286.49 339.642C238.692 394.82 275.306 404.134 333.881 408.717C392.591 413.24 473.445 413.079 514.213 449.137C582.191 509.305 610.943 375.796 637.214 341.199Z" stroke="#5B5B5B" stroke-miterlimit="10"/>
<path d="M346.831 191.341C275.82 211.298 278.674 284.775 236.962 339.36C195.163 394.114 223.11 411.207 273.787 429.322C302.378 439.522 347.873 434.035 392.185 433.867C441.174 433.69 483.467 443.49 507.224 483.435C553.699 561.717 635.86 391.704 659.089 347.809C691.64 286.421 668.683 256.612 633.652 234.122C598.486 211.693 552.805 197.183 544.61 167.539C532.466 123.588 452.154 161.807 346.831 191.341Z" stroke="#5B5B5B" stroke-miterlimit="10"/>
<path d="M317.158 180.348C246.492 211.163 226.973 281.114 188.626 338.855C152.596 393.104 171.235 421.199 215.03 449.621C245.442 469.366 305.204 456.098 363.958 451.439C425.838 446.553 479.016 454.738 501.426 517.03C533.856 607.628 662.561 407.469 682.219 353.775C706.673 286.937 679.461 251.909 641.496 224.259C603.531 196.609 556.814 176.482 547.907 140.168C534.686 87.6428 431.327 130.553 317.158 180.348Z" stroke="#5B5B5B" stroke-miterlimit="10"/>
<path d="M291.116 172.734C220.503 213.755 178.547 280.738 143.608 341.748C112.928 395.293 121.308 435.85 159.421 473.27C190.32 503.543 265.728 481.624 338.919 472.476C413.6 463.053 480.631 468.692 498.863 554.202C520.696 656.497 693.438 426.779 708.575 363.32C725.891 290.991 693.335 250.837 652.569 217.965C611.754 184.985 563.912 159.408 554.292 116.424C540.53 55.0829 413.333 101.614 291.116 172.734Z" stroke="#5B5B5B" stroke-miterlimit="10"/>
</g>
<defs>
<clipPath id="clip0_2025_2117">
<rect width="656" height="539" fill="white" transform="translate(0 266.819) rotate(-24)"/>
</clipPath>
</defs>
</svg>
