<svg width="31" height="25" viewBox="0 0 31 25" fill="none" xmlns="http://www.w3.org/2000/svg">
<path d="M30.0711 24.9135H1.10564C0.82 24.9135 0.588379 24.629 0.588379 24.2781V18.5605H30.5884V24.2781C30.5884 24.6291 30.3568 24.9135 30.0711 24.9135Z" fill="#3FB47C"/>
<path d="M30.0711 0.913086H1.10564C0.82 0.913086 0.588379 1.19531 0.588379 1.54337V18.5601H30.5884V1.54337C30.5884 1.19531 30.3568 0.913086 30.0711 0.913086Z" fill="#FF4B55"/>
<path d="M4.62684 24.913H1.09321C0.814431 24.913 0.588379 24.6302 0.588379 24.2814V1.54469C0.588379 1.19591 0.814431 0.913086 1.09321 0.913086H4.62684V24.913Z" fill="#F5F5F5"/>
<path d="M1.16528 23.7926H1.33533V23.1707H1.16528V23.7926ZM2.52249 23.7926H2.69259V23.1707H2.52249V23.7926ZM3.88056 23.7926H4.04984V23.1707H3.88056V23.7926ZM1.84476 22.1251H2.01311V21.6068H1.84476V22.1251ZM3.20278 22.1251H3.37206V21.6068H3.20278V22.1251ZM1.16528 20.7731H1.33533V20.1511H1.16528V20.7731ZM2.52249 20.7731H2.69259V20.1511H2.52249V20.7731ZM3.88056 20.7731H4.04984V20.1511H3.88056V20.7731ZM1.5063 21.6068H1.67466V21.0839H1.84476V20.5656H2.01311V21.0839H2.18408V21.6068H2.35244V22.1251H2.18408V22.6478H2.01311V23.1705H1.84476V22.6478H1.67466V22.1251H1.5063V21.6068ZM2.86356 21.6068H3.0336V21.0839H3.20283V20.5656H3.37211V21.0839H3.54134V21.6068H3.71139V22.1251H3.54134V22.6478H3.37211V23.1705H3.20283V22.6478H3.0336V22.1251H2.86356V21.6068ZM3.20278 19.5247V20.043H3.03191V20.5657H2.86356V21.084H2.69259V21.6069H2.52249V21.084H2.35239V20.5657H2.18403V20.043H2.01306V19.5247H1.8447V20.043H1.6746V20.5657H1.50625V21.084H1.33527V21.6069H1.16528V22.1252H1.33533V22.6479H1.5063V23.1706H1.67466V23.6889H1.84476V24.2073H2.01486V23.6889H2.18408V23.1706H2.35244V22.6479H2.52254V22.1252H2.69264V22.6479H2.86361V23.1706H3.03366V23.6889H3.20289V24.2073H3.37217V23.6889H3.5414V23.1706H3.71144V22.6479H3.88154V22.1252H4.0499V21.6069H3.88062V21.084H3.71144V20.5657H3.5414V20.043H3.37217V19.5247H3.20278ZM3.62326 19.0065H3.7079V18.7992H3.79336V19.0065H3.87882V19.2137H3.79336V19.4255H3.7079V19.2137H3.62326V19.0065ZM3.62326 18.2808V18.5874H3.53954V18.9028H3.45409V19.3175H3.53954V19.6284H3.62326V19.9393H3.87887V19.6284H3.96351V19.3175H4.04723V18.9028H3.96351V18.5874H3.87887V18.2808H3.62326ZM1.33533 19.0019H1.42079V18.7947H1.50625V19.0019H1.58909V19.2137H1.50625V19.421H1.42079V19.2137H1.33533V19.0019ZM1.33533 18.2762V18.5873H1.25069V18.8982H1.16528V19.3173H1.25069V19.6282H1.33533V19.9391H1.58914V19.6282H1.6746V19.3173H1.75756V18.8982H1.6746V18.5873H1.58914V18.2762H1.33533ZM2.26862 19.0019H2.35233V18.7947H2.43872V19.0019H2.52243V19.2137H2.43872V19.421H2.35233V19.2137H2.26862V19.0019ZM2.69259 19.0019H2.77804V18.7947H2.8635V19.0019H2.94722V19.2137H2.8635V19.421H2.77804V19.2137H2.69259V19.0019ZM2.69259 18.2762V18.5873H2.52249V18.2762H2.26867V18.5873H2.18403V18.8982H2.09857V19.3173H2.18403V19.6282H2.26867V19.9391H2.52249V19.6282H2.69259V19.9391H2.94727V19.6282H3.0336V19.3173H3.11656V18.8982H3.0336V18.5873H2.94727V18.2762H2.69259ZM1.16528 18.0644H1.33533V17.4426H1.16528V18.0644ZM2.52249 18.0644H2.69259V17.4426H2.52249V18.0644ZM3.88056 18.0644H4.04984V17.4426H3.88056V18.0644ZM1.16528 15.464H1.33533V15.0494H1.16528V15.464ZM3.88056 15.464H4.04984V15.0494H3.88056V15.464ZM2.52249 14.0083H2.69259V13.49H2.52249V14.0083ZM1.16528 12.6023V12.9132V12.9177V13.2286H1.33533V12.9177V12.9132V12.6023H1.16528ZM2.09852 12.6023V12.9132V12.9177V13.2286H2.26862V12.9177V12.9132V12.6023H2.09852ZM2.94727 12.6023V12.9132V12.9177V13.2286H3.1165V12.9177V12.9132V12.6023H2.94727ZM3.88056 12.6023V12.9132V12.9177V13.2286H4.04984V12.9177V12.9132V12.6023H3.88056ZM2.77804 12.2373V12.4446H2.69259V12.6023H2.52249V12.4446H2.43877V12.2373H2.26867V12.5482H2.35239V12.7059H2.43877V12.9132V12.9177V13.1205H2.35239V13.2782H2.26867V13.5891H2.43877V13.3819H2.52249V13.2286H2.69259V13.3819H2.77804V13.5891H2.94727V13.2782H2.86356V13.1205H2.7781V12.9177V12.9132V12.7059H2.86356V12.5482H2.94727V12.2373H2.77804ZM2.52249 12.3408H2.69259V11.8225H2.52249V12.3408ZM1.16528 10.7814H1.33533V10.3669H1.16528V10.7814ZM3.88056 10.7814H4.04984V10.3669H3.88056V10.7814ZM1.16528 8.38834H1.33533V7.762H1.16528V8.38834ZM2.52249 8.38834H2.69259V7.762H2.52249V8.38834ZM3.88056 8.38834H4.04984V7.762H3.88056V8.38834ZM1.84476 12.9222V12.9087V12.7058H2.01311V12.3453H2.18408V11.9261H2.43877V11.435H2.52249V11.1961H2.608H2.69259V11.4304H2.77804V11.9262H3.03355V12.1335V12.3453H3.20278V12.7058H3.37206V12.9132V13.1204H3.20278V13.49H3.03355V13.6972V13.9045H2.77804V14.3958H2.69259V14.6301H2.608H2.52249V14.3958H2.43877V13.9045H2.18408V13.4898H2.01311V13.1203H1.84476V12.9222ZM3.20278 7.13552V7.65823H3.03191V8.17653H2.86356V8.69945H2.69259V9.11398V9.21768H2.52249V8.69938H2.35239V8.17646H2.18403V7.65816H2.01306V7.13545H1.8447V7.65816H1.6746V8.17646H1.5045V8.69938H1.33527V9.11391V9.21761H1.16528V9.74032H1.33533V10.263H1.50456V10.7813H1.67466V11.2997H1.84476V10.7813H2.01311V10.263H2.18408V9.74032H2.01311V9.11384H2.18408V9.21754V9.53299H2.35244V10.3668H2.43883V10.8806L2.18414 10.885V11.2997H2.01317V11.6106H1.84481V12.1333H1.67471V11.6106H1.50461V11.2997H1.33538V10.9887H1.16528V11.926H1.33533V12.3452H1.50456V12.7058H1.67466V12.9132V12.9177V13.1205H1.50456V13.4901H1.33533V13.9047H1.16528V14.8421H1.33533V14.5266H1.50456V14.2157H1.67466V13.6974H1.84476V14.2157H2.01311V14.5266H2.18408V14.9457L2.43877 14.9502V15.464H2.35239V16.2978H2.18403V16.6087V16.7169H2.01306V16.086H2.18403V15.5677H2.01306V15.0494H1.8447V14.5264H1.6746V15.0494H1.5045V15.5677H1.33527V16.086H1.16528V16.6087H1.33533V16.7169V17.127H1.5063V17.6499H1.67466V18.1726H1.84476V18.6909H2.01311V18.1726H2.18408V17.6499H2.35244V17.127H2.52254V16.6087H2.69264V16.7169V17.127H2.86361V17.6499H3.03366V18.1726H3.20289V18.6909H3.37217V18.1726H3.5414V17.6499H3.71144V17.127H3.88062V16.6087H4.04984V16.086H3.88056V15.5677H3.71139V15.0494H3.54134V14.5264H3.37211V15.0494H3.20283V15.5677H3.03197V16.086H3.20283V16.6087V16.7169H3.03197V16.6087V16.2978H2.86361V15.464H2.83937H2.77815V14.9457H2.83937H2.88518H2.94733H3.03366V14.5265H3.20289V14.2156H3.37217V13.6973H3.5414V14.2156H3.71144V14.5265H3.88154V14.842H4.0499V13.9047H3.88149V13.49H3.71139V13.1204H3.54134V12.9177V12.9132V12.7059H3.71139V12.3453H3.88149V11.9262H4.0499V10.9888H3.88149V11.2998H3.71139V11.6107H3.54134V12.1335H3.37211V11.6107H3.20283V11.2998H3.0336V10.8852H2.94727H2.88513H2.83932H2.7781V10.3669H2.83932H2.86356V9.53306H3.03191V9.21761V9.11391H3.20278V9.21761V9.74032H3.03191V10.263H3.20278V10.7813H3.37206V11.2997H3.54129V10.7813H3.71133V10.263H3.88051V9.74032H4.0499V9.21761H3.88062V8.69931H3.71144V8.17639H3.5414V7.65809H3.37217V7.13538H3.20278V7.13552ZM1.33533 6.61722H1.41915V6.40995H1.5063V6.61722H1.58914V6.82448H1.5063V7.03629H1.41915V6.82448H1.33533V6.61722ZM1.33533 6.19807H1.25069V6.51351H1.16528V6.92818H1.25069V7.24363H1.33533V7.55467H1.58914V7.24363H1.6746V6.92818H1.75756V6.51351H1.6746V6.19807H1.58914V5.89165H1.33533V6.19807ZM2.26862 6.61722H2.35233V6.40995H2.43872V6.61722H2.52243V6.82448H2.43872V7.03629H2.35233V6.82448H2.26862V6.61722ZM2.69259 6.61722H2.77804V6.40995H2.8635V6.61722H2.94722V6.82448H2.8635V7.03629H2.77804V6.82448H2.69259V6.61722ZM2.26862 6.19807H2.18398V6.51351H2.09852V6.92818H2.18398V7.24363H2.26862V7.55467H2.52243V7.24363H2.69253V7.55467H2.94722V7.24363H3.03355V6.92818H3.1165V6.51351H3.03355V6.19807H2.94722V5.89165H2.69253V6.19807H2.52243V5.89165H2.26862V6.19807ZM3.62326 6.61274H3.7079V6.40988H3.79336V6.61274H3.87882V6.82455H3.79336V7.03175H3.7079V6.82455H3.62326V6.61274ZM3.62326 5.88717V6.19807H3.53954V6.51351H3.45409V6.92818H3.53954V7.23908H3.62326V7.55012H3.87887V7.23908H3.96351V6.92818H4.04723V6.51351H3.96351V6.19807H3.87887V5.88717H3.62326ZM1.16528 5.67984H1.33533V5.0579H1.16528V5.67984ZM2.52249 5.67984H2.69259V5.0579H2.52249V5.67984ZM3.88056 5.67984H4.04984V5.0579H3.88056V5.67984ZM1.84476 4.22416H2.01311V3.70123H1.84476V4.22416ZM3.20278 4.22416H3.37206V3.70123H3.20278V4.22416ZM1.16528 2.66029H1.33533V2.03836H1.16528V2.66029ZM2.52249 2.66029H2.69259V2.03836H2.52249V2.66029ZM3.88056 2.66029H4.04984V2.03836H3.88056V2.66029ZM1.5063 3.70131H1.67466V3.183H1.84476V2.66029H2.01311V3.183H2.18408V3.70131H2.35244V4.22423H2.18408V4.74253H2.01311V5.26524H1.84476V4.74253H1.67466V4.22423H1.5063V3.70131ZM2.86356 3.70131H3.0336V3.183H3.20283V2.66029H3.37211V3.183H3.54134V3.70131H3.71139V4.22423H3.54134V4.74253H3.37211V5.26524H3.20283V4.74253H3.0336V4.22423H2.86356V3.70131ZM3.20278 1.61914V2.14206H3.03355V2.66037H2.8635V3.18307H2.69253V3.70138H2.52243V3.18307H2.35233V2.66037H2.18398V2.14206H2.0148V1.61914H1.8447V2.14206H1.6746V2.66037H1.50625V3.18307H1.33527V3.70138H1.16528V4.2243H1.33533V4.7426H1.5063V5.26531H1.67466V5.78802H1.84476V6.30632H2.01311V5.78802H2.18408V5.26531H2.35244V4.7426H2.52254V4.2243H2.69264V4.7426H2.86361V5.26531H3.03197V5.78802H3.20283V6.30632H3.37211V5.78802H3.54134V5.26531H3.71139V4.7426H3.88056V4.2243H4.04984V3.70138H3.88143V3.18307H3.71133V2.66037H3.54129V2.14206H3.37206V1.61914H3.20278Z" fill="#FF4B55"/>
</svg>
