<svg width="64" height="64" viewBox="0 0 64 64" fill="none" xmlns="http://www.w3.org/2000/svg">
<g clip-path="url(#clip0_4175_958)">
<mask id="mask0_4175_958" style="mask-type:luminance" maskUnits="userSpaceOnUse" x="0" y="0" width="64" height="64">
<path d="M64 0H0V64H64V0Z" fill="white"/>
</mask>
<g mask="url(#mask0_4175_958)">
<path d="M64 26.8387H61.6804L58.2233 28.6578C57.8342 28.443 57.4294 28.2611 56.9929 28.1517L52.6441 27.0635V26.5691C54.568 25.2263 55.7419 23.0081 55.7419 20.6452V18.8407C55.7419 14.8306 52.5998 11.4748 48.7379 11.3579C48.5418 11.3528 48.3488 11.3599 48.1547 11.3695L49.2823 8.72984L43.816 3.26512L40.5938 5.3624C39.3695 4.67288 38.0746 4.13609 36.7298 3.75958L35.934 0H28.067L27.2712 3.76058C25.9264 4.1371 24.6305 4.67389 23.4073 5.36341L20.185 3.26613L14.7233 8.72782L15.8317 11.3695C15.7893 11.3674 15.749 11.3599 15.7067 11.3589C13.7298 11.3014 11.8679 12.0227 10.4536 13.3957C9.0373 14.7676 8.25806 16.6089 8.25806 18.5806V20.6452C8.25806 23.0081 9.43095 25.2253 11.3548 26.568V27.0635L8.51814 27.7727L3.37651 24.7742H0V46.1638L10.1552 49.5484H12.1331L12.38 48.6835L15.4929 50.5519C15.5439 52.2445 16.9012 53.6063 18.5922 53.6658C18.6517 55.3498 20.005 56.7031 21.689 56.7626C21.7485 58.4466 23.1018 59.7999 24.7858 59.8594C24.8473 61.5827 26.2586 62.9677 27.996 62.9677C28.6411 62.9677 29.2737 62.7666 29.8054 62.4083L30.7198 63.2157C31.2928 63.7203 32.0307 64 32.7969 64H32.9879C34.7056 64 36.1033 62.6114 36.125 60.8992C37.8241 60.8775 39.2001 59.5015 39.2218 57.8024C40.9219 57.7807 42.2989 56.4027 42.3185 54.7026C44.0343 54.6623 45.4194 53.2606 45.4194 51.5353C45.4194 51.4314 45.4143 51.3291 45.4037 51.2258L64 41.9284V26.8387ZM53.6774 18.8407V20.6452C53.6774 22.4773 52.6875 24.189 51.0938 25.1119L50.5776 25.4103L50.5817 28.6769L55.7389 29.9652L44.3871 35.94V33.1593C44.3871 31.7717 43.8266 30.501 42.9088 29.562L46.4516 28.6769V25.4078L45.9365 25.1099C44.3438 24.189 43.3548 22.4773 43.3548 20.6452V18.5806C43.3548 17.1729 43.9113 15.8564 44.9229 14.876C45.9335 13.8962 47.2742 13.3679 48.6759 13.4224C51.4335 13.505 53.6774 15.936 53.6774 18.8407ZM33.5564 35.1285L28.8836 33.6351C26.754 32.9526 24.4491 32.8508 22.2692 33.3337L21.6774 33.4647V33.1593C21.6774 31.7359 22.6426 30.5 24.0227 30.1542L29.9355 28.6769V25.4078L29.4204 25.1099C27.8276 24.189 26.8387 22.4773 26.8387 20.6452V18.5806C26.8387 17.1729 27.3952 15.8564 28.4068 14.876C29.4173 13.8962 30.7666 13.3679 32.1598 13.4224C34.9173 13.505 37.1613 15.936 37.1613 18.8407V20.6452C37.1613 22.4773 36.1714 24.189 34.5776 25.1119L34.0615 25.4103L34.0655 28.6769L39.9773 30.1542C41.3574 30.5 42.3226 31.7359 42.3226 33.1593V37.0272L42.0675 37.1613H41.435L35.0887 35.3478C34.5887 35.2062 34.0736 35.1482 33.5564 35.1285ZM21.9088 15.4496C23.8473 11.6935 27.749 9.29032 32 9.29032C36.2107 9.29032 40.0958 11.6613 42.0489 15.3664C41.5575 16.3518 41.2903 17.443 41.2903 18.5806V20.6452C41.2903 23.0081 42.4632 25.2253 44.3871 26.568V27.0635L40.2581 28.0973L36.128 27.0635V26.5691C38.0519 25.2263 39.2258 23.0081 39.2258 20.6452V18.8407C39.2258 14.8306 36.0837 11.4748 32.2218 11.3579C30.246 11.2999 28.3831 12.0217 26.9688 13.3947C25.5534 14.7676 24.7742 16.6089 24.7742 18.5806V20.6452C24.7742 23.0081 25.9471 25.2253 27.871 26.568V27.0635L23.7419 28.0973L19.6119 27.0635V26.5691C21.5358 25.2263 22.7097 23.0081 22.7097 20.6452V18.8407C22.7097 17.626 22.4173 16.4728 21.9088 15.4496ZM17.1613 9.20665L20.4592 5.90877L23.3619 7.79788L23.9173 7.45716C25.309 6.60433 26.813 5.97984 28.3871 5.60333L29.0222 5.45111L29.7404 2.06452H34.2606L34.9768 5.4501L35.6119 5.60181C37.186 5.97883 38.69 6.60333 40.0817 7.45615L40.6371 7.79688L43.5398 5.90776L46.8337 9.20262L45.6628 11.9441C44.8659 12.2868 44.127 12.7692 43.4839 13.3926C43.4415 13.434 43.4052 13.4783 43.3639 13.5207C40.932 9.65474 36.6326 7.22581 32 7.22581C27.3342 7.22581 23.0227 9.67742 20.5968 13.5827C19.9476 12.9032 19.1754 12.3528 18.3196 11.9682L17.1613 9.20665ZM13.4194 28.6769V25.4078L12.9042 25.1099C11.3115 24.189 10.3226 22.4773 10.3226 20.6452V18.5806C10.3226 17.1729 10.879 15.8564 11.8906 14.876C12.9012 13.8962 14.245 13.3679 15.6436 13.4224C18.4012 13.505 20.6452 15.936 20.6452 18.8407V20.6452C20.6452 22.4773 19.6552 24.189 18.0615 25.1119L17.5454 25.4103L17.5494 28.6769L21.0912 29.562C20.1734 30.501 19.6129 31.7717 19.6129 33.1593V33.9239L16.3931 34.6396L16.4768 34.3473L16.5161 32.4395L11.0721 29.2636L13.4194 28.6769ZM2.06452 26.8387H2.81704L10.2409 31.1688L6.49496 46.1522L2.06452 44.6749V26.8387ZM10.4899 47.4839L8.45817 46.807L12.0973 32.252L14.4516 33.625V33.9199L10.5766 47.4839H10.4899ZM17.5484 50.4556C17.5484 50.1512 17.6714 49.8528 17.8871 49.6371L19.7016 47.8226C19.9173 47.6069 20.2157 47.4839 20.5202 47.4839C21.1583 47.4839 21.6774 48.003 21.6774 48.6411C21.6774 48.9456 21.5544 49.2439 21.3387 49.4597L19.5242 51.2742C19.3085 51.4899 19.0101 51.6129 18.7056 51.6129C18.0675 51.6129 17.5484 51.0938 17.5484 50.4556ZM20.6452 53.5524C20.6452 53.248 20.7681 52.9496 20.9839 52.7339L22.7984 50.9194C23.0141 50.7036 23.3125 50.5806 23.6169 50.5806C24.255 50.5806 24.7742 51.0998 24.7742 51.7379C24.7742 52.0423 24.6512 52.3407 24.4355 52.5564L22.621 54.371C22.4052 54.5867 22.1069 54.7097 21.8024 54.7097C21.1643 54.7097 20.6452 54.1905 20.6452 53.5524ZM23.7419 56.6492C23.7419 56.3448 23.8649 56.0464 24.0806 55.8306L25.8952 54.0161C26.1109 53.8004 26.4093 53.6774 26.7137 53.6774C27.3518 53.6774 27.871 54.1966 27.871 54.8347C27.871 55.1391 27.748 55.4375 27.5323 55.6532L25.7177 57.4677C25.502 57.6835 25.2036 57.8064 24.8992 57.8064C24.2611 57.8064 23.7419 57.2873 23.7419 56.6492ZM27.996 60.9032C27.3579 60.9032 26.8387 60.3841 26.8387 59.746C26.8387 59.4415 26.9617 59.1431 27.1774 58.9274L28.9919 57.1129C29.2077 56.8972 29.506 56.7742 29.8105 56.7742C30.4486 56.7742 30.9677 57.2933 30.9677 57.9314C30.9677 58.2359 30.8448 58.5343 30.629 58.75L28.8145 60.5645C28.5988 60.7802 28.3004 60.9032 27.996 60.9032ZM32.9879 61.9355H32.7969C32.5338 61.9355 32.2818 61.8397 32.0857 61.6658L31.3135 60.9849L32.0887 60.2097C32.3654 59.933 32.5801 59.6038 32.7389 59.2505L33.6774 60.0318C33.9229 60.2364 34.0645 60.5378 34.0645 60.8589C34.0645 61.4526 33.5817 61.9355 32.9879 61.9355ZM42.245 52.6452H42.0665C41.8075 52.6452 41.5544 52.5534 41.3563 52.3871L35.7586 47.7223L34.436 49.309L39.872 53.8382C40.1164 54.0428 40.2581 54.3443 40.2581 54.6653C40.2581 55.2591 39.7752 55.7419 39.1814 55.7419H38.9561C38.7056 55.7419 38.4607 55.6532 38.2676 55.4919L32.6608 50.8201L31.3382 52.4068L36.7742 56.9365C37.0197 57.1396 37.1613 57.441 37.1613 57.7621C37.1613 58.3558 36.6784 58.8387 36.0847 58.8387C35.6885 58.8387 35.3024 58.6981 34.9985 58.4456L32.6946 56.5252C32.187 55.4879 31.1442 54.7646 29.9229 54.7213C29.8634 53.0373 28.5101 51.684 26.8261 51.6245C26.7666 49.9405 25.4133 48.5872 23.7293 48.5277C23.6688 46.8044 22.2576 45.4194 20.5202 45.4194C19.6719 45.4194 18.8417 45.7631 18.2419 46.3629L16.4274 48.1774C16.3191 48.2858 16.2293 48.4088 16.1381 48.5307L12.9672 46.628L15.747 36.8992L22.7157 35.3498C24.5438 34.941 26.4713 35.0297 28.254 35.6003L29.7747 36.0867L24.6195 38.6643C23.4415 39.2545 22.7097 40.4395 22.7097 41.7571V41.9612C22.7097 43.8679 24.2611 45.4194 26.1678 45.4194C26.7944 45.4194 27.4108 45.249 27.9466 44.9259L31.7903 42.621C32.5625 42.1583 33.5988 42.2596 34.2656 42.8594L42.9874 50.7087C43.2208 50.9204 43.3548 51.2208 43.3548 51.5353C43.3548 52.1477 42.8574 52.6452 42.245 52.6452ZM61.9355 40.6522L44.5449 49.3483C44.4884 49.2883 44.4294 49.2313 44.3674 49.1759L35.6472 41.3266C34.8831 40.6371 33.8952 40.2581 32.8659 40.2581C32.1134 40.2581 31.3745 40.4627 30.7273 40.8508L26.8821 43.1568C26.6663 43.2868 26.4199 43.3548 26.1678 43.3548C25.3987 43.3548 24.7742 42.7303 24.7742 41.9612V41.7571C24.7742 41.2253 25.0696 40.7485 25.5444 40.5111L31.3024 37.6321C32.2878 37.1386 33.4577 37.0282 34.5197 37.3337L41.0065 39.1865L42.5776 39.2258L61.9355 29.0373V40.6522Z" fill="#F8B806"/>
</g>
</g>
<defs>
<clipPath id="clip0_4175_958">
<rect width="64" height="64" fill="white"/>
</clipPath>
</defs>
</svg>
