<svg width="66" height="66" viewBox="0 0 66 66" fill="none" xmlns="http://www.w3.org/2000/svg">
<path d="M61.6 33.677C61.6 31.5645 61.4104 29.5333 61.0583 27.5833H33V39.1208H49.0333C48.3292 42.8312 46.2167 45.9728 43.0479 48.0853V55.5874H52.7167C58.35 50.3874 61.6 42.7499 61.6 33.677Z" fill="#4285F4"/>
<path d="M32.9999 62.7917C41.0436 62.7917 47.7874 60.1375 52.7166 55.5875L43.0478 48.0854C40.3936 49.8729 37.0082 50.9562 32.9999 50.9562C25.2541 50.9562 18.6728 45.7292 16.3166 38.6875H6.40405V46.3792C11.3061 56.1021 21.3541 62.7917 32.9999 62.7917Z" fill="#34A853"/>
<path d="M16.3166 38.6604C15.7208 36.8729 15.3687 34.9771 15.3687 33C15.3687 31.0229 15.7208 29.1271 16.3166 27.3396V19.6479H6.40409C4.37284 23.6563 3.20825 28.1792 3.20825 33C3.20825 37.8209 4.37284 42.3438 6.40409 46.3521L14.1228 40.3396L16.3166 38.6604Z" fill="#FBBC05"/>
<path d="M32.9999 15.0708C37.3874 15.0708 41.2874 16.5874 44.402 19.5124L52.9332 10.9812C47.7603 6.16034 41.0436 3.20825 32.9999 3.20825C21.3541 3.20825 11.3061 9.89784 6.40405 19.6478L16.3166 27.3395C18.6728 20.2978 25.2541 15.0708 32.9999 15.0708Z" fill="#EA4335"/>
</svg>
