<svg width="142" height="32" viewBox="0 0 142 32" fill="none" xmlns="http://www.w3.org/2000/svg">
<g clip-path="url(#clip0_4175_106)">
<path d="M67.616 8.50382V14.4925C77.1476 10.4343 88.5827 11.2515 88.343 15.2252C88.343 15.2252 72.8048 12.7875 67.0802 18.4661C63.6962 21.7915 63.6962 25.7793 66.6854 28.6397C69.3221 31.2043 74.0738 32.2188 80.8418 30.9647C83.7887 30.4293 86.2703 29.1329 88.3148 27.4843L88.7237 30.3025H95.1533V15.2252C95.5763 6.27746 82.7312 3.52973 67.616 8.50382ZM81.9275 25.1311C78.4025 26.2443 74.7929 26.4697 72.9599 25.1311C71.7191 24.2152 71.8319 22.7356 72.9599 21.707C74.9762 19.847 80.6867 18.762 88.3007 20.0161L88.3289 21.2843C88.3289 21.2843 86.2703 23.7502 81.9275 25.1311ZM116.317 7.02428V12.9988H125.511V29.9361H132.307V12.9988H141.5V7.02428H116.317ZM36.0038 29.9361H60.8057V23.9615H42.518V20.622H57.9857V15.6902H42.518V12.9988H60.8057V7.02428H36.0038V29.9361ZM29.0666 17.8884C30.6435 16.0594 31.4784 13.707 31.4072 11.2938C31.4867 8.87937 30.6507 6.524 29.0666 4.69928C26.585 1.82473 22.5242 0.683366 17.2085 0.500184C14.036 0.401548 0.5 1.54291 0.5 1.54291V29.922H7.1693V21.552C10.2149 21.7634 13.5989 22.0029 15.7421 22.0452L23.0459 29.9361H31.5482L23.2997 21.242C25.5164 20.7309 27.5267 19.5618 29.0666 17.8884ZM6.9296 15.5634V6.982C10.2929 6.63668 13.6724 6.47205 17.0534 6.48882C22.9754 6.48882 24.0752 9.44791 24.0752 11.2797C24.0752 13.1115 22.9613 16.0284 17.0534 16.0284C13.6412 16.0284 10.4264 15.9015 6.9296 15.5493V15.5634ZM107.336 7.05246H100.441V29.9643H122.183V23.9897H107.336V7.05246Z" fill="#D8D8D8"/>
</g>
<defs>
<clipPath id="clip0_4175_106">
<rect width="141" height="31" fill="white" transform="translate(0.5 0.5)"/>
</clipPath>
</defs>
</svg>
