<svg width="116" height="57" viewBox="0 0 116 57" fill="none" xmlns="http://www.w3.org/2000/svg">
<g clip-path="url(#clip0_212_3685)">
<path d="M94.4708 27.7015C96.0488 27.7015 97.1666 27.4302 97.9995 26.8459V24.1957C97.1447 24.7591 96.1146 25.1139 94.668 25.1139C92.2352 25.1139 91.227 23.3192 91.227 20.4812C91.227 17.497 92.4544 15.9736 94.69 15.9736C96.005 15.9736 97.2981 16.4119 97.9776 16.8292V14.0746C97.2543 13.699 96.005 13.4277 94.2954 13.4277C89.9339 13.4277 87.6764 16.4119 87.6764 20.5855C87.6983 25.1556 89.9119 27.7015 94.4708 27.7015ZM73.1451 26.4912V23.8409C72.093 24.5296 70.2958 25.1348 68.652 25.1348C66.1534 25.1348 65.2109 24.0079 65.0575 21.7124H73.2985V20.0012C73.2985 15.2224 71.0848 13.4277 67.6876 13.4277C63.5233 13.4277 61.5507 16.4536 61.5507 20.6064C61.5507 25.3852 64.0274 27.7015 68.3671 27.7015C70.5369 27.7015 72.1369 27.1381 73.1451 26.4912ZM41.8688 13.6782V19.1039H37.31V13.6782H33.8909V27.4302H37.31V21.6915H41.8688V27.4302H45.288V13.6782H41.8688ZM60.6959 24.8426H59.1836V13.6782H49.2331V14.8468C49.2331 18.2065 49.0139 22.5471 47.8085 24.8426H46.7126V30.5605H49.8687V27.4302H57.5179V30.5605H60.674V24.8426H60.6959ZM84.0381 27.4302H87.9175L82.4381 20.0221L87.2599 13.6782H83.8189L78.997 20.0221V13.6782H75.5779V27.4302H78.997V20.669L84.0381 27.4302ZM67.6 15.9736C69.2876 15.9736 69.8136 17.3092 69.8136 19.0413V19.3125H65.0575C65.1452 17.1214 65.9781 15.9736 67.6 15.9736ZM55.7645 24.8426H50.9427C51.8851 22.7767 52.1481 19.0204 52.1481 16.6414V16.2241H55.7645V24.8426Z" fill="white"/>
<path d="M31.0416 27.4299H27.5567V11.0067H26.0005C23.1513 11.0067 21.6609 12.3631 21.6609 14.3874C21.6609 16.6829 22.691 17.7471 24.817 19.1036L26.5704 20.2304L21.5294 27.4299H17.7815L22.3184 21.0026C19.7102 19.2288 18.2418 17.4967 18.2418 14.5752C18.2418 10.9232 20.9157 8.43994 25.9786 8.43994H31.0196L31.0416 27.4299Z" fill="#FC3F1D"/>
</g>
<path d="M23.6819 39.5L25.8047 43.6833L30.2873 44.4897L27.1167 47.8815L27.7643 52.5631L23.6819 50.4761L19.5995 52.5631L20.2471 47.8815L17.0765 44.4897L21.5591 43.6833L23.6819 39.5Z" fill="#FFCC00"/>
<path d="M40.8413 39.5L42.9642 43.6833L47.4468 44.4897L44.2762 47.8815L44.9237 52.5631L40.8413 50.4761L36.759 52.5631L37.4065 47.8815L34.2359 44.4897L38.7185 43.6833L40.8413 39.5Z" fill="#FFCC00"/>
<path d="M58.0003 39.5L60.1231 43.6833L64.6057 44.4897L61.4351 47.8815L62.0826 52.5631L58.0003 50.4761L53.9179 52.5631L54.5655 47.8815L51.3949 44.4897L55.8774 43.6833L58.0003 39.5Z" fill="#FFCC00"/>
<path d="M75.1592 39.5L77.282 43.6833L81.7646 44.4897L78.594 47.8815L79.2416 52.5631L75.1592 50.4761L71.0768 52.5631L71.7244 47.8815L68.5538 44.4897L73.0364 43.6833L75.1592 39.5Z" fill="#FFCC00"/>
<path d="M92.3181 39.5L94.441 43.6833L98.9236 44.4897L95.753 47.8815L96.4005 52.5631L92.3181 50.4761L88.2358 52.5631L88.8833 47.8815L85.7127 44.4897L90.1953 43.6833L92.3181 39.5Z" fill="#FFCC00"/>
<defs>
<clipPath id="clip0_212_3685">
<rect width="80" height="22" fill="white" transform="translate(18 8.5)"/>
</clipPath>
</defs>
</svg>
