<svg width="64" height="64" viewBox="0 0 64 64" fill="none" xmlns="http://www.w3.org/2000/svg">
<g clip-path="url(#clip0_4175_123)">
<path d="M17.5489 27.8711C17.5489 28.4412 17.0867 28.9034 16.5166 28.9034C15.9466 28.9034 15.4844 28.4412 15.4844 27.8711C15.4844 27.3011 15.9466 26.8389 16.5166 26.8389C17.0867 26.8389 17.5489 27.3011 17.5489 27.8711Z" fill="#F8B806"/>
<path d="M27.8709 27.8711C27.8709 28.4412 27.4087 28.9034 26.8387 28.9034C26.2686 28.9034 25.8064 28.4412 25.8064 27.8711C25.8064 27.3011 26.2686 26.8389 26.8387 26.8389C27.4087 26.8389 27.8709 27.3011 27.8709 27.8711Z" fill="#F8B806"/>
<path d="M25.806 35.0967H23.7415C23.7415 36.2353 22.8156 37.1612 21.677 37.1612C20.5384 37.1612 19.6125 36.2353 19.6125 35.0967H17.5479C17.5479 37.3739 19.3998 39.2257 21.677 39.2257C23.9542 39.2257 25.806 37.3739 25.806 35.0967Z" fill="#F8B806"/>
<path d="M61.9355 37.1613V20.6452H53.6774V12.3871H51.6129V4.12903H49.5484V0H35.0968V4.12903H33.0323V11.4098C30.4642 8.82762 26.9108 7.22581 22.9904 7.22581C19.2051 7.22581 15.6472 8.7001 12.9703 11.3765L11.869 12.4778C8.56149 13.2893 6.19355 16.2818 6.19355 19.7152V30.9677C6.19355 33.6053 8.19002 35.7626 10.747 36.067C11.494 38.756 13.2026 41.0449 15.4839 42.5363V44.6749L4.94153 48.191C1.98488 49.1749 0 51.9299 0 55.0444V64H43.3548V55.0444C43.3548 51.9289 41.37 49.1739 38.4143 48.19L27.871 44.6749V43.3548H61.9355C63.0741 43.3548 64 42.4289 64 41.2903V39.2258C64 38.0872 63.0741 37.1613 61.9355 37.1613ZM53.6774 37.1613V26.8387H59.871V37.1613H53.6774ZM45.4194 37.1613H41.2903V28.9032H45.4194V37.1613ZM39.2258 26.8387V37.1613H32.2434C32.3831 36.8049 32.5045 36.4395 32.6079 36.067C35.1648 35.7626 37.1613 33.6053 37.1613 30.9677V24.7742H49.5484V16.5161H36.2767C36.0126 15.7999 35.7006 15.1084 35.3291 14.4516H51.6129V37.1613H47.4839V26.8387H39.2258ZM33.0323 28.061C34.2319 28.4884 35.0968 29.624 35.0968 30.9677C35.0968 32.3271 34.2102 33.4728 32.9889 33.8881C33.0106 33.6043 33.0323 33.3211 33.0323 33.0323V28.061ZM47.4839 18.5806V22.7097H43.3548V18.5806H47.4839ZM41.2903 22.7097H37.1613V21.3967C37.1613 20.4325 37.063 19.4909 36.8785 18.5806H41.2903V22.7097ZM45.4194 12.3871H43.3548V10.3226H45.4194V12.3871ZM41.2903 12.3871H39.2258V10.3226H41.2903V12.3871ZM59.871 22.7097V24.7742H53.6774V22.7097H59.871ZM37.1613 2.06452H47.4839V4.12903H37.1613V2.06452ZM49.5484 6.19355V12.3871H47.4839V8.25806H37.1613V12.3871H35.0968V6.19355H49.5484ZM8.25806 30.9677C8.25806 29.624 9.12399 28.4884 10.3226 28.061V33.0323C10.3226 33.3211 10.3443 33.6043 10.3659 33.8881C9.14466 33.4728 8.25806 32.3271 8.25806 30.9677ZM10.3226 21.3896V25.9108C9.55544 26.0675 8.86089 26.4083 8.25806 26.8644V19.7142C8.25806 17.1552 10.0801 14.9325 12.5892 14.4309L12.8962 14.369L14.4299 12.8352C16.7162 10.5499 19.7576 9.29032 22.9904 9.29032C29.6658 9.29032 35.0968 14.7213 35.0968 21.3967V26.8654C34.4939 26.4093 33.7994 26.0675 33.0323 25.9118V21.3906L31.751 21.7092C31.7102 21.7177 27.6532 22.7097 21.6774 22.7097C15.7016 22.7097 11.6447 21.7177 11.6048 21.7072L10.3226 21.3896ZM12.3871 33.0323V23.9783C14.0922 24.2944 17.3916 24.7742 21.6774 24.7742C25.9632 24.7742 29.2626 24.2944 30.9677 23.9783V33.0323C30.9677 38.1552 26.7994 42.3226 21.6774 42.3226C16.5554 42.3226 12.3871 38.1552 12.3871 33.0323ZM21.6774 44.3871C23.1351 44.3871 24.5242 44.1013 25.8064 43.5983V44.9919L21.6774 49.121L17.5484 44.9919V43.5983C18.8306 44.1013 20.2198 44.3871 21.6774 44.3871ZM20.4874 57.8064H22.8674L23.5559 61.9355H19.7989L20.4874 57.8064ZM23.1895 55.7419H20.1653L19.0691 54.0978L21.6774 51.9244L24.2858 54.0978L23.1895 55.7419ZM16.2374 46.6003L20.1487 50.5116L15.9854 53.9808L13.7974 47.4138L16.2374 46.6003ZM2.06452 55.0444C2.06452 52.8196 3.48286 50.8513 5.59375 50.1482L11.8377 48.067L14.9834 57.503L17.4753 55.4269L18.5292 57.0076L17.7061 61.9355H2.06452V55.0444ZM41.2903 55.0444V61.9355H25.6487L24.8266 57.0076L25.8805 55.4269L28.3725 57.503L31.5181 48.067L37.7621 50.1482C39.872 50.8523 41.2903 52.8196 41.2903 55.0444ZM29.5585 47.4138L27.3705 53.9808L23.2072 50.5116L27.1184 46.6003L29.5585 47.4138ZM61.9355 41.2903H29.4461C30.1018 40.6729 30.687 39.9824 31.1814 39.2258H61.9355V41.2903Z" fill="#F8B806"/>
</g>
<defs>
<clipPath id="clip0_4175_123">
<rect width="64" height="64" fill="white"/>
</clipPath>
</defs>
</svg>
