<svg width="64" height="64" viewBox="0 0 64 64" fill="none" xmlns="http://www.w3.org/2000/svg">
<path d="M58.396 1H31.604C29.065 1 27 3.065 27 5.604C27 5.939 27.037 6.275 27.11 6.603L29.864 19H7.626C3.973 19 1 21.973 1 25.626C1 25.918 1.02 26.211 1.058 26.502L4.358 51.249C4.795 54.527 7.619 57 10.926 57H18.666L26.022 62.517C26.438 62.828 26.953 63 27.471 63H27.586C28.917 63 30 61.917 30 60.586V57H45C48.308 57 51.131 54.527 51.568 51.249L54.868 26.501C54.907 26.211 54.926 25.918 54.926 25.626C54.926 25.415 54.9 25.208 54.88 25H55.108C57.282 25 59.13 23.518 59.603 21.395L62.89 6.604C62.963 6.276 63 5.94 63 5.604C63 3.065 60.935 1 58.396 1ZM58.396 3C58.636 3 58.865 3.043 59.086 3.105L45 14.705L30.914 3.105C31.136 3.043 31.364 3 31.604 3H58.396ZM52.926 25.626C52.926 25.831 52.912 26.035 52.885 26.237L49.585 50.985C49.281 53.274 47.309 55 45 55H28V60.586C28 60.814 27.814 61 27.586 61H27.471C27.383 61 27.294 60.971 27.223 60.917L19.333 55H10.926C8.617 55 6.645 53.274 6.34 50.985L3.04 26.238C3.014 26.036 3 25.831 3 25.626C3 23.075 5.075 21 7.626 21H30.308L30.396 21.395C30.869 23.518 32.717 25 34.891 25H43V26.586C43 27.917 44.083 29 45.414 29C46.059 29 46.665 28.749 47.121 28.293L50.414 25H52.881C52.909 25.207 52.926 25.416 52.926 25.626ZM60.938 6.169L57.651 20.96C57.384 22.162 56.339 23 55.109 23H49.586L45.707 26.879C45.469 27.117 45 26.924 45 26.586V23H34.891C33.661 23 32.616 22.162 32.349 20.961L29.062 6.169C29.021 5.984 29 5.794 29 5.604C29 5.16 29.122 4.748 29.319 4.381L45 17.295L60.681 4.382C60.878 4.748 61 5.16 61 5.604C61 5.794 60.979 5.984 60.938 6.169Z" fill="#F8B806"/>
<path d="M7 25.626C7 25.281 7.281 25 7.626 25H15V23H7.626C6.178 23 5 24.178 5 25.626C5 25.744 5.008 25.861 5.023 25.976L5.444 29.132L7.426 28.867L7 25.626Z" fill="#F8B806"/>
<path d="M31 32.101V28C31 26.346 29.654 25 28 25C26.512 25 25.283 26.092 25.049 27.514C22.042 30.402 18.111 32 13.929 32H10C8.346 32 7 33.346 7 35V39C7 40.654 8.346 42 10 42H10.198L12.198 51H17V42.296C20.016 42.877 22.792 44.318 25.049 46.486C25.283 47.909 26.512 49 28 49C29.654 49 31 47.654 31 46V41.899C33.279 41.434 35 39.415 35 37C35 34.585 33.279 32.566 31 32.101ZM15 33.948C18.668 33.734 22.124 32.435 25 30.194V43.807C22.124 41.566 18.668 40.266 15 40.053V33.948ZM9 39V38H11V36H9V35C9 34.448 9.449 34 10 34H13V40H10C9.449 40 9 39.552 9 39ZM15 49H13.802L12.246 42H13.928C14.288 42 14.643 42.029 14.999 42.052V49H15ZM29 46C29 46.552 28.551 47 28 47C27.449 47 27 46.552 27 46V28C27 27.449 27.449 27 28 27C28.551 27 29 27.449 29 28V46ZM31 39.816V34.185C32.161 34.599 33 35.699 33 37.001C33 38.303 32.161 39.402 31 39.816Z" fill="#F8B806"/>
<path d="M37 31H49V33H37V31Z" fill="#F8B806"/>
<path d="M37 35H49V37H37V35Z" fill="#F8B806"/>
<path d="M37 39H49V41H37V39Z" fill="#F8B806"/>
<path d="M47 43H49V45H47V43Z" fill="#F8B806"/>
<path d="M37 43H45V45H37V43Z" fill="#F8B806"/>
<path d="M37 47H39V49H37V47Z" fill="#F8B806"/>
<path d="M41 47H49V49H41V47Z" fill="#F8B806"/>
<path d="M17 23H19V25H17V23Z" fill="#F8B806"/>
</svg>
