<svg width="60" height="60" viewBox="0 0 60 60" fill="none" xmlns="http://www.w3.org/2000/svg">
<path d="M30.0096 0.5C17.6937 0.5 14.0917 0.51271 13.3915 0.5708C10.8641 0.780948 9.29138 1.17901 7.57795 2.03229C6.25753 2.68818 5.21613 3.44842 4.18836 4.51415C2.31661 6.45768 1.18221 8.84874 0.771543 11.691C0.571898 13.0708 0.513808 13.3522 0.502012 20.4001C0.497485 22.7494 0.502012 25.8413 0.502012 29.9884C0.502012 42.2978 0.515614 45.8971 0.574618 46.5961C0.778812 49.0561 1.1645 50.6039 1.98127 52.2969C3.54222 55.5376 6.5234 57.9704 10.0355 58.8782C11.2516 59.1914 12.5947 59.3638 14.319 59.4455C15.0496 59.4773 22.4958 59.5 29.9465 59.5C37.3973 59.5 44.8481 59.4909 45.5604 59.4546C47.557 59.3606 48.7164 59.205 49.9982 58.8736C53.533 57.9613 56.4598 55.5648 58.0525 52.2787C58.8534 50.6265 59.2595 49.0198 59.4433 46.6882C59.4832 46.1799 59.5 38.0748 59.5 29.9807C59.5 21.8852 59.4818 13.7952 59.4419 13.2868C59.2559 10.9175 58.8498 9.32442 58.023 7.6405C57.3446 6.26205 56.5914 5.23263 55.4978 4.18011C53.5462 2.31553 51.1594 1.18082 48.3153 0.770512C46.9372 0.571246 46.6627 0.512242 39.6112 0.5H30.0096Z" fill="url(#paint0_radial_4175_151)"/>
<path d="M30.0096 0.5C17.6937 0.5 14.0917 0.51271 13.3915 0.5708C10.8641 0.780948 9.29138 1.17901 7.57795 2.03229C6.25753 2.68818 5.21613 3.44842 4.18836 4.51415C2.31661 6.45768 1.18221 8.84874 0.771543 11.691C0.571898 13.0708 0.513808 13.3522 0.502012 20.4001C0.497485 22.7494 0.502012 25.8413 0.502012 29.9884C0.502012 42.2978 0.515614 45.8971 0.574618 46.5961C0.778812 49.0561 1.1645 50.6039 1.98127 52.2969C3.54222 55.5376 6.5234 57.9704 10.0355 58.8782C11.2516 59.1914 12.5947 59.3638 14.319 59.4455C15.0496 59.4773 22.4958 59.5 29.9465 59.5C37.3973 59.5 44.8481 59.4909 45.5604 59.4546C47.557 59.3606 48.7164 59.205 49.9982 58.8736C53.533 57.9613 56.4598 55.5648 58.0525 52.2787C58.8534 50.6265 59.2595 49.0198 59.4433 46.6882C59.4832 46.1799 59.5 38.0748 59.5 29.9807C59.5 21.8852 59.4818 13.7952 59.4419 13.2868C59.2559 10.9175 58.8498 9.32442 58.023 7.6405C57.3446 6.26205 56.5914 5.23263 55.4978 4.18011C53.5462 2.31553 51.1594 1.18082 48.3153 0.770512C46.9372 0.571246 46.6627 0.512242 39.6112 0.5H30.0096Z" fill="url(#paint1_radial_4175_151)"/>
<path d="M30.0096 0.5C17.6937 0.5 14.0917 0.51271 13.3915 0.5708C10.8641 0.780948 9.29138 1.17901 7.57795 2.03229C6.25753 2.68818 5.21613 3.44842 4.18836 4.51415C2.31661 6.45768 1.18221 8.84874 0.771543 11.691C0.571898 13.0708 0.513808 13.3522 0.502012 20.4001C0.497485 22.7494 0.502012 25.8413 0.502012 29.9884C0.502012 42.2978 0.515614 45.8971 0.574618 46.5961C0.778812 49.0561 1.1645 50.6039 1.98127 52.2969C3.54222 55.5376 6.5234 57.9704 10.0355 58.8782C11.2516 59.1914 12.5947 59.3638 14.319 59.4455C15.0496 59.4773 22.4958 59.5 29.9465 59.5C37.3973 59.5 44.8481 59.4909 45.5604 59.4546C47.557 59.3606 48.7164 59.205 49.9982 58.8736C53.533 57.9613 56.4598 55.5648 58.0525 52.2787C58.8534 50.6265 59.2595 49.0198 59.4433 46.6882C59.4832 46.1799 59.5 38.0748 59.5 29.9807C59.5 21.8852 59.4818 13.7952 59.4419 13.2868C59.2559 10.9175 58.8498 9.32442 58.023 7.6405C57.3446 6.26205 56.5914 5.23263 55.4978 4.18011C53.5462 2.31553 51.1594 1.18082 48.3153 0.770512C46.9372 0.571246 46.6627 0.512242 39.6112 0.5H30.0096Z" fill="url(#paint2_radial_4175_151)"/>
<path d="M30.0096 0.5C17.6937 0.5 14.0917 0.51271 13.3915 0.5708C10.8641 0.780948 9.29138 1.17901 7.57795 2.03229C6.25753 2.68818 5.21613 3.44842 4.18836 4.51415C2.31661 6.45768 1.18221 8.84874 0.771543 11.691C0.571898 13.0708 0.513808 13.3522 0.502012 20.4001C0.497485 22.7494 0.502012 25.8413 0.502012 29.9884C0.502012 42.2978 0.515614 45.8971 0.574618 46.5961C0.778812 49.0561 1.1645 50.6039 1.98127 52.2969C3.54222 55.5376 6.5234 57.9704 10.0355 58.8782C11.2516 59.1914 12.5947 59.3638 14.319 59.4455C15.0496 59.4773 22.4958 59.5 29.9465 59.5C37.3973 59.5 44.8481 59.4909 45.5604 59.4546C47.557 59.3606 48.7164 59.205 49.9982 58.8736C53.533 57.9613 56.4598 55.5648 58.0525 52.2787C58.8534 50.6265 59.2595 49.0198 59.4433 46.6882C59.4832 46.1799 59.5 38.0748 59.5 29.9807C59.5 21.8852 59.4818 13.7952 59.4419 13.2868C59.2559 10.9175 58.8498 9.32442 58.023 7.6405C57.3446 6.26205 56.5914 5.23263 55.4978 4.18011C53.5462 2.31553 51.1594 1.18082 48.3153 0.770512C46.9372 0.571246 46.6627 0.512242 39.6112 0.5H30.0096Z" fill="url(#paint3_radial_4175_151)"/>
<path d="M30.0119 8.07568C24.0543 8.07568 23.3067 8.10171 20.9667 8.20812C18.6314 8.31498 17.0373 8.68443 15.6425 9.22652C14.1997 9.78639 12.9759 10.5353 11.7566 11.7542C10.5363 12.9726 9.78682 14.1956 9.2247 15.6368C8.68085 17.0311 8.31066 18.6244 8.20556 20.9571C8.10091 23.2953 8.07349 24.0428 8.07349 29.996C8.07349 35.9493 8.1 36.6941 8.20601 39.0322C8.31343 41.3658 8.68315 42.9587 9.22515 44.3525C9.78591 45.7942 10.5354 47.0172 11.7552 48.2356C12.9741 49.4549 14.1979 50.2057 15.6398 50.7656C17.0355 51.3076 18.63 51.6771 20.9649 51.784C23.3048 51.8903 24.052 51.9164 30.0092 51.9164C35.9673 51.9164 36.7127 51.8904 39.0526 51.7839C41.3879 51.6771 42.9838 51.3076 44.3795 50.7655C45.8219 50.2057 47.0439 49.4549 48.2628 48.2356C49.483 47.0172 50.2325 45.7942 50.7946 44.353C51.3339 42.9587 51.7041 41.3654 51.8138 39.0327C51.9189 36.6945 51.9463 35.9492 51.9463 29.996C51.9463 24.0428 51.9189 23.2957 51.8138 20.9575C51.7041 18.6239 51.3339 17.0311 50.7946 15.6373C50.2325 14.1956 49.483 12.9726 48.2628 11.7542C47.0425 10.5349 45.8223 9.78592 44.3782 9.2265C42.9797 8.68443 41.3847 8.31498 39.0494 8.20812C36.7095 8.10171 35.9645 8.07568 30.0051 8.07568H30.0119ZM28.044 12.0259C28.6281 12.025 29.2798 12.0259 30.0119 12.0259C35.869 12.0259 36.5632 12.0469 38.8762 12.152C41.015 12.2497 42.1758 12.6068 42.9491 12.9068C43.9728 13.3041 44.7026 13.7791 45.47 14.5463C46.2377 15.3135 46.713 16.0442 47.1116 17.0671C47.4118 17.8389 47.7697 18.9989 47.867 21.1361C47.9721 23.4469 47.995 24.141 47.995 29.991C47.995 35.841 47.9721 36.5352 47.867 38.8459C47.7692 40.9832 47.4118 42.1431 47.1116 42.9149C46.714 43.9378 46.2377 44.6662 45.47 45.433C44.7022 46.2002 43.9732 46.6751 42.9491 47.0724C42.1767 47.3739 41.015 47.73 38.8762 47.8278C36.5637 47.9328 35.869 47.9556 30.0119 47.9556C24.1544 47.9556 23.4602 47.9328 21.1477 47.8278C19.0089 47.7292 17.8481 47.372 17.0744 47.072C16.0507 46.6747 15.3194 46.1997 14.5517 45.4325C13.7839 44.6653 13.3086 43.9365 12.9101 42.9131C12.6098 42.1413 12.252 40.9813 12.1546 38.8441C12.0495 36.5333 12.0285 35.8392 12.0285 29.9855C12.0285 24.1319 12.0495 23.4414 12.1546 21.1306C12.2524 18.9934 12.6098 17.8334 12.9101 17.0608C13.3076 16.0378 13.7839 15.3071 14.5517 14.5399C15.3194 13.7727 16.0507 13.2978 17.0744 12.8995C17.8476 12.5981 19.0089 12.2419 21.1477 12.1437C23.1714 12.0524 23.9556 12.025 28.0441 12.0204L28.044 12.0259ZM41.7216 15.6656C40.2682 15.6656 39.0891 16.8425 39.0891 18.2951C39.0891 19.7474 40.2682 20.9256 41.7216 20.9256C43.1748 20.9256 44.354 19.7474 44.354 18.2951C44.354 16.8429 43.1748 15.6647 41.7215 15.6647L41.7216 15.6656ZM30.0119 18.739C23.7906 18.739 18.7466 23.7793 18.7466 29.996C18.7466 36.2127 23.7906 41.2508 30.0119 41.2508C36.2333 41.2508 41.2755 36.2127 41.2755 29.996C41.2755 23.7793 36.2328 18.739 30.0115 18.739H30.0119ZM30.0119 22.6893C34.0501 22.6893 37.3242 25.9604 37.3242 29.996C37.3242 34.0312 34.0501 37.3028 30.0119 37.3028C25.9733 37.3028 22.6997 34.0312 22.6997 29.996C22.6997 25.9604 25.9733 22.6893 30.0119 22.6893Z" fill="white"/>
<defs>
<radialGradient id="paint0_radial_4175_151" cx="0" cy="0" r="1" gradientUnits="userSpaceOnUse" gradientTransform="translate(57.5949 28.154) rotate(164.25) scale(37.6977 27.1593)">
<stop stop-color="#FF005F"/>
<stop offset="1" stop-color="#FC01D8"/>
</radialGradient>
<radialGradient id="paint1_radial_4175_151" cx="0" cy="0" r="1" gradientUnits="userSpaceOnUse" gradientTransform="translate(16.1714 64.0442) rotate(-90) scale(47.0949 49.9667)">
<stop stop-color="#FFCC00"/>
<stop offset="0.1242" stop-color="#FFCC00"/>
<stop offset="0.5672" stop-color="#FE4A05"/>
<stop offset="0.6942" stop-color="#FF0F3F"/>
<stop offset="1" stop-color="#FE0657" stop-opacity="0"/>
</radialGradient>
<radialGradient id="paint2_radial_4175_151" cx="0" cy="0" r="1" gradientUnits="userSpaceOnUse" gradientTransform="translate(31.4909 58.6679) rotate(-59.8703) scale(19.4742 25.3532)">
<stop stop-color="#FFCC00"/>
<stop offset="1" stop-color="#FFCC00" stop-opacity="0"/>
</radialGradient>
<radialGradient id="paint3_radial_4175_151" cx="0" cy="0" r="1" gradientUnits="userSpaceOnUse" gradientTransform="translate(8.50503 2.90246) rotate(164.274) scale(37.2795 12.7011)">
<stop stop-color="#780CFF"/>
<stop offset="1" stop-color="#820BFF" stop-opacity="0"/>
</radialGradient>
</defs>
</svg>
