<svg width="125" height="51" viewBox="0 0 125 51" fill="none" xmlns="http://www.w3.org/2000/svg">
<g clip-path="url(#clip0_212_3662)">
<path d="M124.5 10.5602V15.7274H109.019V31.4549H103.896V15.7274H98.157V15.6597L99.7639 10.5602H103.896V6.49987L109.019 4.88477V10.5602H124.5Z" fill="white"/>
<path d="M14.4862 19.3472C16.1261 18.7536 17.5441 17.6636 18.5463 16.2262C19.5485 14.7887 20.086 13.0741 20.0851 11.3168V10.786C20.0859 9.65705 19.866 8.53905 19.438 7.49591C19.01 6.45278 18.3823 5.50497 17.5909 4.7067C16.7994 3.90842 15.8597 3.27534 14.8255 2.84366C13.7913 2.41198 12.6828 2.19018 11.5635 2.19092H0.5V31.4548H5.65104V19.8667H8.82564L15.5444 31.4548H21.4625L14.4862 19.3472ZM5.65104 6.66351H11.026C12.0567 6.70249 13.0323 7.14288 13.7478 7.89214C14.4634 8.6414 14.8631 9.64121 14.8631 10.6815C14.8631 11.7218 14.4634 12.7216 13.7478 13.4709C13.0323 14.2201 12.0567 14.6605 11.026 14.6995H5.65104V6.66351Z" fill="white"/>
<path d="M44.3012 22.7695C44.3915 22.181 44.4364 21.5862 44.4356 20.9906C44.4382 20.2896 44.3744 19.59 44.2452 18.9012C43.327 13.8187 39.1222 9.96729 34.0719 9.96729C28.3442 9.96729 23.7083 14.9029 23.7083 20.9906C23.7083 27.0783 28.3442 32.014 34.0719 32.014C36.0751 31.9884 38.0277 31.3765 39.6926 30.2527C41.3575 29.1289 42.6629 27.5415 43.4502 25.6835L38.2487 24.475C37.8075 25.1938 37.1955 25.7902 36.4682 26.2103C35.7408 26.6303 34.921 26.8608 34.0831 26.8807C31.7931 26.8807 29.8503 25.1865 29.1224 22.7695H44.3012ZM29.0385 18.9012C29.6935 16.3543 31.7036 14.502 34.0775 14.502C36.4515 14.502 38.4671 16.3543 39.1166 18.9012H29.0385Z" fill="white"/>
<path d="M58.4269 16.2074L62.4693 13.796C61.8577 12.8603 61.0702 12.0545 60.1513 11.4242C59.3187 10.8639 58.3962 10.4531 57.4246 10.21C56.1154 9.8427 54.7456 9.74854 53.399 9.93332C52.5688 10.0464 51.7583 10.2764 50.9914 10.6166C50.391 10.896 49.8268 11.2487 49.3118 11.667C48.7092 12.1335 48.1968 12.7078 47.8 13.3612C47.5437 13.7992 47.3424 14.2678 47.201 14.7561C46.9781 15.5252 46.9021 16.3301 46.977 17.1279C47.0359 17.8926 47.2656 18.634 47.6489 19.2964C47.8422 19.6074 48.0674 19.897 48.3207 20.1604C49.0145 20.8932 49.8291 21.4989 50.7283 21.9506C51.5859 22.3972 52.4965 22.7312 53.4382 22.9445C53.9981 23.0857 54.586 23.2325 55.1627 23.3681C55.5841 23.4602 55.9964 23.5906 56.3944 23.7577C56.7155 23.8674 57.0108 24.0423 57.2623 24.2716C57.5147 24.5312 57.6776 24.8658 57.727 25.226C57.7725 25.5916 57.6935 25.9619 57.503 26.2764C57.3795 26.481 57.2156 26.6578 57.0215 26.7959C56.7147 27.026 56.3639 27.1895 55.9913 27.2759C55.3408 27.4667 54.6574 27.5148 53.9869 27.4171C53.275 27.3101 52.5959 27.0438 51.9993 26.6378C51.5503 26.3307 51.1565 25.9488 50.8347 25.5083L46.5403 27.3606C46.6278 27.5537 46.725 27.7422 46.8314 27.9254C47.1223 28.4184 47.4721 28.8735 47.8728 29.2807C48.583 29.9691 49.4123 30.5204 50.3196 30.9071C51.0158 31.2261 51.7442 31.4684 52.492 31.6299C53.3793 31.8399 54.2915 31.9235 55.2019 31.8784C56.2657 31.8366 57.3122 31.5933 58.2869 31.1612C59.3628 30.6762 60.3189 29.9569 61.0864 29.0548C61.3875 28.7119 61.6452 28.3325 61.8534 27.9254C62.2179 27.1664 62.4092 26.3347 62.4133 25.4914C62.4682 24.8653 62.393 24.2346 62.1925 23.6394C61.992 23.0443 61.6705 22.498 61.2487 22.0353C60.5985 21.2824 59.8166 20.6565 58.942 20.1887C58.1447 19.7376 57.309 19.3596 56.4448 19.0592C56.4448 19.0592 55.4594 18.6809 54.5692 18.438L54.1828 18.3364L53.5334 18.1726C53.3206 18.1105 53.2086 18.071 53.1526 18.0484C53.0456 18.0137 52.9409 17.9722 52.8391 17.9241C52.6682 17.8532 52.5034 17.7682 52.3464 17.67C52.1952 17.579 52.0623 17.4602 51.9545 17.3199C51.8226 17.1292 51.7417 16.9075 51.7193 16.6761C51.7143 16.5858 51.7143 16.4953 51.7193 16.405C51.7211 16.2991 51.7305 16.1934 51.7473 16.0888C51.7656 15.9839 51.7899 15.8802 51.8201 15.7782C51.8506 15.687 51.8881 15.5982 51.9321 15.5128C51.9708 15.4424 52.0138 15.3745 52.0609 15.3095C52.0984 15.2576 52.1396 15.2086 52.184 15.1627C52.184 15.1627 52.2176 15.1231 52.2232 15.1231C52.2696 15.0702 52.3202 15.0211 52.3744 14.9763C52.4582 14.9061 52.5482 14.8437 52.6431 14.7899C52.7439 14.7278 52.8279 14.6883 52.8727 14.6657L53.0575 14.5697L53.2814 14.485L53.4158 14.4455L53.6342 14.3946C53.8637 14.3438 54.1101 14.3156 54.1213 14.3099C54.3816 14.2821 54.6434 14.2708 54.9051 14.276C55.3972 14.2818 55.8844 14.3755 56.344 14.5527C56.617 14.6617 56.8795 14.7959 57.1279 14.9537C57.2735 15.0441 57.3743 15.1175 57.3967 15.1344C57.6482 15.3088 57.876 15.5158 58.0741 15.75C58.1568 15.8428 58.2335 15.9409 58.3037 16.0436L58.4269 16.2074Z" fill="white"/>
<path d="M84.7077 10.5432V31.4379H79.5958V29.4953C78.9276 30.2808 78.0987 30.9112 77.166 31.343C76.2334 31.7749 75.2191 31.998 74.1929 31.997H73.9913C72.9048 31.9985 71.8287 31.784 70.8245 31.3659C69.8202 30.9477 68.9075 30.3341 68.1385 29.56C67.3695 28.7859 66.7592 27.8666 66.3426 26.8545C65.926 25.8425 65.7112 24.7576 65.7104 23.6617V10.6167C65.7104 10.5957 65.7187 10.5756 65.7334 10.5608C65.7481 10.5459 65.768 10.5376 65.7888 10.5376H70.8279V22.3629C70.8294 23.5211 71.2866 24.6315 72.0991 25.4499C72.9117 26.2684 74.0131 26.7282 75.1615 26.7282H75.4414C76.5447 26.7282 77.6029 26.2861 78.383 25.4992C79.1632 24.7123 79.6014 23.6451 79.6014 22.5323V10.5432H84.7077Z" fill="white"/>
<path d="M94.6297 0H89.5347V31.455H94.6297V0Z" fill="white"/>
<path d="M119.343 31.455C122.191 31.455 124.5 29.2175 124.5 26.4573C124.5 23.6971 122.191 21.4595 119.343 21.4595C116.495 21.4595 114.187 23.6971 114.187 26.4573C114.187 29.2175 116.495 31.455 119.343 31.455Z" fill="#F8B806"/>
<path d="M2.95739 44.9125C2.95739 45.1327 2.95739 45.4433 2.99098 45.8047C2.99098 45.8443 3.04137 46.3694 3.10296 46.7026C3.22819 47.3552 3.52834 47.9607 3.9708 48.4533C4.60141 49.0634 5.44292 49.4017 6.31676 49.3964C7.02736 49.3402 7.70595 49.0747 8.26832 48.633C8.83068 48.1913 9.25207 47.5927 9.48017 46.9116C9.47688 47.561 9.33109 48.2016 9.05327 48.7874C8.77544 49.3732 8.37246 49.8898 7.87327 50.2999C7.32438 50.6969 6.68114 50.9405 6.00882 51.0058C4.93322 51.1046 3.86056 50.7877 3.00778 50.1192C2.47633 49.6701 2.05965 49.0987 1.79281 48.4533C1.61344 48.0589 1.48366 47.6434 1.40648 47.2165C1.23757 46.46 1.21475 45.6777 1.33929 44.9125C1.48622 43.9487 1.89297 43.0442 2.51507 42.2978C2.87343 41.857 3.31494 41.4923 3.81403 41.2248C4.71886 40.7702 5.75318 40.6503 6.73668 40.886C7.13233 40.9511 7.51225 41.091 7.85647 41.2982C8.40155 41.6619 8.82963 42.1781 9.08824 42.7835C9.2631 43.1635 9.38374 43.5665 9.44657 43.9807C9.49645 44.2943 9.51707 44.6119 9.50816 44.9294L2.95739 44.9125ZM6.23278 44.2913C6.45089 44.2911 6.66781 44.2587 6.87665 44.1953C7.11037 44.1495 7.32724 44.0402 7.50374 43.879C7.62187 43.7461 7.71006 43.5889 7.76225 43.4183C7.81444 43.2477 7.82939 43.0677 7.80608 42.8908C7.76473 42.5363 7.60006 42.2081 7.34137 41.9646C7.02097 41.6915 6.63426 41.5094 6.22099 41.437C5.80772 41.3645 5.38277 41.4044 4.98981 41.5524C4.31867 41.8211 3.7728 42.3354 3.46129 42.9924C3.24055 43.3904 3.09797 43.8275 3.04137 44.28L6.23278 44.2913Z" fill="#F8B806"/>
<path d="M44.9501 44.9123C44.9501 45.1326 44.9501 45.4432 44.9837 45.8046C44.9837 45.8441 45.034 46.3693 45.0956 46.7025C45.2228 47.3511 45.5228 47.9524 45.9635 48.4418C46.5941 49.052 47.4356 49.3903 48.3094 49.3849C49.02 49.3287 49.6986 49.0633 50.261 48.6216C50.8234 48.1798 51.2447 47.5813 51.4728 46.9002C51.4696 47.5496 51.3238 48.1902 51.0459 48.776C50.7681 49.3618 50.3651 49.8783 49.8659 50.2885C49.3171 50.6855 48.6738 50.929 48.0015 50.9944C46.9259 51.0932 45.8532 50.7763 45.0005 50.1078C44.4733 49.6682 44.0569 49.1089 43.7855 48.4757C43.6061 48.0813 43.4763 47.6659 43.3992 47.239C43.2302 46.4825 43.2074 45.7002 43.332 44.9349C43.4789 43.9712 43.8856 43.0667 44.5077 42.3203C44.8661 41.8795 45.3076 41.5148 45.8067 41.2473C46.7115 40.7927 47.7459 40.6728 48.7294 40.9085C49.125 40.9736 49.5049 41.1135 49.8491 41.3207C50.3942 41.6844 50.8223 42.2005 51.0809 42.8059C51.2558 43.1859 51.3764 43.589 51.4392 44.0031C51.4891 44.3167 51.5097 44.6344 51.5008 44.9519L44.9501 44.9123ZM48.2254 44.2911C48.4436 44.2909 48.6605 44.2586 48.8693 44.1951C49.1031 44.1494 49.3199 44.04 49.4964 43.8789C49.6145 43.7459 49.7027 43.5888 49.7549 43.4182C49.8071 43.2476 49.8221 43.0676 49.7988 42.8906C49.7574 42.5362 49.5927 42.208 49.334 41.9645C49.0136 41.6914 48.6269 41.5093 48.2137 41.4369C47.8004 41.3644 47.3754 41.4042 46.9825 41.5522C46.3113 41.821 45.7655 42.3352 45.454 42.9923C45.2332 43.3903 45.0906 43.8274 45.034 44.2798L48.2254 44.2911Z" fill="#F8B806"/>
<path d="M11.703 46.759C11.8253 47.1442 11.9712 47.5214 12.1397 47.8884C12.6492 48.9784 12.9739 49.6899 13.7186 50.0909C14.2629 50.3769 14.8918 50.4532 15.4878 50.3055C15.7798 50.2247 16.046 50.069 16.2605 49.8537C16.3918 49.7154 16.4946 49.5523 16.5628 49.3737C16.6397 49.1742 16.674 48.9606 16.6636 48.7468C16.6679 48.4419 16.5906 48.1414 16.4397 47.8771C16.3089 47.6774 16.1394 47.5064 15.9414 47.3745C15.6515 47.1611 15.3376 46.9829 15.0063 46.8437C14.4464 46.5726 14.1105 46.4315 13.8586 46.279C13.4393 46.1111 13.0379 45.9011 12.6604 45.6521C12.3267 45.4055 12.0513 45.0872 11.8541 44.7204C11.687 44.3627 11.6003 43.9722 11.6003 43.5768C11.6003 43.1814 11.687 42.7909 11.8541 42.4332C12.414 41.1908 13.853 40.7391 14.872 40.7786C15.553 40.8037 16.2131 41.023 16.7756 41.4111L17.7106 40.7729V44.5227L16.4117 42.0153C15.9874 41.6836 15.4748 41.487 14.9391 41.4506C14.532 41.4101 14.1219 41.4885 13.7578 41.6765C13.5352 41.7804 13.3425 41.9398 13.1979 42.1396C13.1068 42.2645 13.0368 42.4038 12.9907 42.5518C12.942 42.7358 12.9287 42.9275 12.9515 43.1165C12.9655 43.2947 13.0211 43.4669 13.1139 43.6192C13.1896 43.7293 13.2822 43.8265 13.3882 43.9072C13.549 44.0437 13.7236 44.163 13.9089 44.2629C14.4688 44.5566 14.7936 44.7091 15.3927 44.9801C15.767 45.1471 16.1316 45.3357 16.4845 45.5449C17.0213 45.7984 17.4841 46.1874 17.8282 46.6743C18.1005 47.1238 18.2349 47.6445 18.2145 48.1708C18.209 48.669 18.0759 49.1572 17.8282 49.5883C16.9324 51.0961 14.8384 51.0565 14.6424 51.0509C14.3073 51.0312 13.9752 50.9764 13.6514 50.8871C13.3385 50.817 13.0419 50.6866 12.778 50.5031C12.6916 50.4431 12.611 50.375 12.5372 50.2998L11.675 51.0509L11.703 46.759Z" fill="#F8B806"/>
<path d="M32.2964 43.7547C32.2964 43.3199 32.2964 43.1053 32.2573 42.9528C32.2472 42.4852 32.061 42.039 31.7365 41.7048C31.4821 41.5154 31.1737 41.4143 30.8575 41.4167C30.4131 41.3579 29.963 41.4709 29.5978 41.733C29.4042 41.8794 29.2518 42.074 29.1554 42.2977C28.8867 42.902 29.2226 43.269 28.9259 43.7886C28.8249 43.9782 28.663 44.1276 28.4668 44.2121C28.3201 44.2667 28.1614 44.2803 28.0077 44.2515C27.8539 44.2227 27.7108 44.1525 27.5933 44.0484C27.459 43.8977 27.3673 43.7133 27.3279 43.5146C27.2885 43.3159 27.3028 43.1101 27.3694 42.9189C27.4424 42.6475 27.5876 42.4015 27.7893 42.2074C28.4713 41.5043 29.3507 41.0293 30.3088 40.8464C30.8687 40.773 32.2908 40.5753 33.2483 41.5862C33.7365 42.1323 34.0025 42.8443 33.9929 43.5796L34.0209 49.5826L35.9022 48.8598C35.3629 49.5121 34.7711 50.1184 34.1329 50.6725C33.978 50.8206 33.7827 50.9186 33.5722 50.9538C33.3617 50.989 33.1455 50.9599 32.9515 50.8702C32.7172 50.7087 32.5332 50.4833 32.4212 50.2203C32.3091 49.9573 32.2736 49.6676 32.3188 49.385C32.1733 49.481 31.9437 49.6334 31.6694 49.8254C31.2236 50.195 30.737 50.5115 30.2192 50.7685C29.8767 50.9174 29.5059 50.9887 29.133 50.9775C28.7488 50.9723 28.3726 50.8652 28.0424 50.667C27.7122 50.4687 27.4395 50.1863 27.2518 49.848C26.9505 49.2828 26.8649 48.6259 27.011 48.0014C27.0783 47.6401 27.2174 47.2963 27.4198 46.9906C27.7395 46.5496 28.1601 46.1931 28.6459 45.9515C29.0097 45.76 29.3835 45.5884 29.7657 45.4376C30.2248 45.2399 30.4376 45.1609 30.9471 44.9576C31.2718 44.8277 31.7478 44.63 32.3188 44.3928C32.302 44.2291 32.302 44.0145 32.2964 43.7547ZM32.2964 44.9971C31.6134 45.2569 31.0535 45.5053 30.6168 45.703C30.1186 45.888 29.6646 46.1766 29.2842 46.5501C29.0499 46.7971 28.8705 47.0916 28.7579 47.4141C28.6859 47.6499 28.6518 47.8959 28.6571 48.1426C28.6336 48.4821 28.7075 48.8212 28.8699 49.1195C28.9977 49.3519 29.1931 49.5392 29.4298 49.656C29.5821 49.7151 29.7427 49.7494 29.9057 49.7577C30.0917 49.7795 30.2796 49.7795 30.4656 49.7577C31.1388 49.5659 31.7582 49.2178 32.2741 48.7412L32.2964 44.9971Z" fill="#F8B806"/>
<path d="M22.823 38.627V41.1117H25.0233V41.8402H22.823V48.583C22.784 48.7728 22.7997 48.9698 22.8682 49.1509C22.9366 49.332 23.055 49.4896 23.2093 49.6051C23.4085 49.705 23.6345 49.7367 23.8532 49.6955C24.0217 49.6722 24.1848 49.6186 24.3347 49.5374C24.5704 49.4097 24.7903 49.2542 24.9898 49.0743L25.2473 48.8597C25.1465 49.0348 25.0009 49.2776 24.805 49.5543C24.6323 49.817 24.4335 50.061 24.2115 50.2828C23.9673 50.5282 23.6757 50.7204 23.3549 50.8475C23.2429 50.8946 23.1266 50.9306 23.0077 50.9548C22.6231 51.0293 22.2247 50.959 21.8879 50.7572C21.6855 50.6062 21.5166 50.4141 21.3922 50.1934C21.2678 49.9726 21.1906 49.7279 21.1657 49.4752C21.1429 49.3352 21.1316 49.1936 21.1321 49.0517V41.8289H19.4524L22.823 38.627Z" fill="#F8B806"/>
<path d="M39.4242 38.627V41.1117H41.6246V41.8402H39.4242V48.583C39.3853 48.7728 39.401 48.9698 39.4695 49.1509C39.5379 49.332 39.6562 49.4896 39.8106 49.6051C40.0098 49.705 40.2358 49.7367 40.4544 49.6955C40.623 49.6722 40.7861 49.6186 40.9359 49.5374C41.1706 49.4107 41.3888 49.2552 41.5854 49.0743L41.8486 48.8597C41.7478 49.0348 41.6022 49.2776 41.4063 49.5543C41.2336 49.817 41.0347 50.061 40.8128 50.2828C40.5685 50.5282 40.277 50.7204 39.9561 50.8475C39.8439 50.8938 39.7277 50.9297 39.609 50.9548C39.2243 51.0293 38.8259 50.959 38.4892 50.7572C38.2867 50.6062 38.1179 50.4141 37.9935 50.1934C37.8691 49.9726 37.7919 49.7279 37.7669 49.4752C37.7441 49.3352 37.7329 49.1936 37.7333 49.0517V41.8289H36.0369L39.4242 38.627Z" fill="#F8B806"/>
</g>
<defs>
<clipPath id="clip0_212_3662">
<rect width="124" height="51" fill="white" transform="translate(0.5)"/>
</clipPath>
</defs>
</svg>
