<svg width="64" height="64" viewBox="0 0 64 64" fill="none" xmlns="http://www.w3.org/2000/svg">
<path d="M0.5 32C0.5 14.6026 14.5994 0.5 32 0.5C49.3943 0.5 63.5 14.6026 63.5 32C63.5 49.3974 49.3943 63.5 32 63.5C14.5994 63.5 0.5 49.3974 0.5 32Z" fill="#FC3F1D"/>
<path d="M36.0325 18.3465H33.1219C27.7858 18.3465 24.9791 21.0492 24.9791 25.0339C24.9791 29.5384 26.9195 31.6489 30.9043 34.3548L34.196 36.5724L24.7366 50.7064H17.668L26.1572 38.0623C21.2747 34.5627 18.5342 31.1638 18.5342 25.4151C18.5342 18.2079 23.5585 13.2876 33.0872 13.2876H42.5467V50.6718H36.0325V18.3465Z" fill="white"/>
</svg>
