<svg width="54" height="62" viewBox="0 0 54 62" fill="none" xmlns="http://www.w3.org/2000/svg">
<path d="M22.2525 24.8309V22.4809C21.38 22.3656 20.501 22.3059 19.6209 22.3022C8.85717 22.3022 0.0983887 30.4938 0.0983887 40.5625C0.0983887 46.7378 3.39935 52.2062 8.43308 55.5113C5.06249 52.1398 3.1873 47.6961 3.19047 43.08C3.19047 33.1553 11.6992 25.0618 22.2525 24.8309Z" fill="#00F2EA"/>
<path d="M22.7697 50.7674C27.3208 50.7674 31.0316 47.1729 31.2009 42.6912L31.2167 2.69488H38.5751C38.4175 1.86011 38.3376 1.01257 38.3361 0.163086L28.2876 0.163086L28.2702 40.161C28.1025 44.6395 24.3885 48.234 19.839 48.234C18.4741 48.234 17.1296 47.903 15.9209 47.2693C16.7041 48.3523 17.7333 49.2341 18.924 49.8422C20.1146 50.4503 21.4326 50.7674 22.7697 50.7674ZM52.3169 16.2711V14.0476C49.6156 14.0506 46.9714 13.27 44.7054 11.8005C46.6943 14.0721 49.3632 15.6403 52.3169 16.2711Z" fill="#00F2EA"/>
<path d="M44.4069 12.368C42.1973 9.87342 40.977 6.65723 40.9762 3.32568H38.2908C38.6422 5.16901 39.3658 6.92146 40.4173 8.47611C41.4689 10.0308 42.8264 11.355 44.4069 12.368ZM19.6023 31.8934C14.9499 31.8997 11.1805 35.627 11.1758 40.2273C11.1806 41.7523 11.6044 43.2467 12.4007 44.5475C13.1971 45.8484 14.3356 46.9058 15.6921 47.6044C14.657 46.1952 14.0983 44.493 14.097 42.7448C14.1017 38.143 17.8711 34.4141 22.5234 34.4094C23.3938 34.4094 24.2246 34.5517 25.011 34.7952V24.6744C24.1868 24.5586 23.3557 24.4983 22.5234 24.4941C22.3778 24.4941 22.2338 24.5036 22.0898 24.5052V32.2792C21.2849 32.0259 20.4462 31.8959 19.6023 31.8934Z" fill="#FF004F"/>
<path d="M50.9789 17.5586V25.2821C45.9802 25.2895 41.1041 23.7353 37.0329 20.8368V41.0263C37.0329 51.1108 28.7567 59.315 18.5848 59.315C14.6525 59.315 11.0065 58.0847 8.01099 55.9989C9.74031 57.8438 11.8305 59.314 14.1519 60.3184C16.4733 61.3227 18.9764 61.8397 21.506 61.8373C31.6795 61.8373 39.9556 53.6331 39.9556 43.5502V23.3591C44.0271 26.257 48.9031 27.8107 53.9016 27.8028V17.867C52.9193 17.8667 51.9397 17.7633 50.9789 17.5586Z" fill="#FF004F"/>
<path d="M38.0436 40.3617V20.139C42.2332 23.0494 47.2162 24.6039 52.3187 24.5921V16.8592C49.3183 16.2386 46.5949 14.6761 44.5458 12.3997C41.267 10.3328 39.0041 7.05459 38.2857 3.32568H30.7738L30.758 43.2003C30.5839 47.6661 26.794 51.2495 22.1496 51.2495C19.374 51.2463 16.7724 49.9496 15.1552 47.7641C12.3163 46.3203 10.5361 43.4691 10.5345 40.3601C10.5392 35.7425 14.3956 32.0025 19.1588 31.9962C20.0449 31.9962 20.8963 32.1385 21.7033 32.3836V24.5826C11.495 24.8151 3.26318 32.9323 3.26318 42.8856C3.26318 47.7009 5.19217 52.0829 8.33489 55.3548C11.5262 57.5249 15.2987 58.6819 19.1588 58.6741C29.5712 58.6741 38.0436 50.4588 38.0436 40.3617Z" fill="white"/>
</svg>
