<svg width="83" height="53" viewBox="0 0 83 53" fill="none" xmlns="http://www.w3.org/2000/svg">
<path d="M78.1622 20.0404C79.7402 20.0404 80.858 19.7691 81.6909 19.1848V16.5346C80.8361 17.098 79.806 17.4528 78.3594 17.4528C75.9266 17.4528 74.9184 15.6581 74.9184 12.82C74.9184 9.83589 76.1458 8.31251 78.3814 8.31251C79.6964 8.31251 80.9895 8.75074 81.669 9.16811V6.41351C80.9457 6.03789 79.6964 5.7666 77.9868 5.7666C73.6253 5.7666 71.3678 8.75074 71.3678 12.9244C71.3897 17.4945 73.6034 20.0404 78.1622 20.0404ZM56.8365 18.83V16.1798C55.7844 16.8684 53.9872 17.4736 52.3434 17.4736C49.8448 17.4736 48.9024 16.3467 48.7489 14.0512H56.9899V12.3401C56.9899 7.56126 54.7762 5.7666 51.379 5.7666C47.2147 5.7666 45.2421 8.79248 45.2421 12.9452C45.2421 17.724 47.7188 20.0404 52.0585 20.0404C54.2283 20.0404 55.8283 19.477 56.8365 18.83ZM25.5602 6.01702V11.4427H21.0014V6.01702H17.5823V19.7691H21.0014V14.0304H25.5602V19.7691H28.9794V6.01702H25.5602ZM44.3874 17.1815H42.875V6.01702H32.9245V7.18563C32.9245 10.5454 32.7053 14.886 31.4999 17.1815H30.404V22.8993H33.5601V19.7691H41.2093V22.8993H44.3654V17.1815H44.3874ZM67.7295 19.7691H71.6089L66.1295 12.3609L70.9513 6.01702H67.5103L62.6884 12.3609V6.01702H59.2693V19.7691H62.6884V13.0078L67.7295 19.7691ZM51.2914 8.31251C52.979 8.31251 53.505 9.64807 53.505 11.3801V11.6514H48.7489C48.8366 9.46026 49.6695 8.31251 51.2914 8.31251ZM39.4559 17.1815H34.6341C35.5765 15.1155 35.8395 11.3593 35.8395 8.98029V8.56293H39.4559V17.1815Z" fill="white"/>
<path d="M14.733 19.7693H11.2481V3.34608H9.69195C6.84268 3.34608 5.35229 4.7025 5.35229 6.72671C5.35229 9.02221 6.38241 10.0865 8.50841 11.4429L10.2618 12.5698L5.22079 19.7693H1.4729L6.00982 13.3419C3.40164 11.5681 1.93317 9.83606 1.93317 6.91453C1.93317 3.2626 4.6071 0.779297 9.67004 0.779297H14.7111L14.733 19.7693Z" fill="#FC3F1D"/>
<path d="M7.41824 37.7793L9.54108 41.9626L14.0237 42.769L10.8531 46.1608L11.5006 50.8424L7.41824 48.7554L3.33587 50.8424L3.98343 46.1608L0.812829 42.769L5.29541 41.9626L7.41824 37.7793Z" fill="#FFCC00"/>
<path d="M24.5775 37.7793L26.7004 41.9626L31.183 42.769L28.0124 46.1608L28.6599 50.8424L24.5775 48.7554L20.4952 50.8424L21.1427 46.1608L17.9721 42.769L22.4547 41.9626L24.5775 37.7793Z" fill="#FFCC00"/>
<path d="M41.7366 37.7793L43.8594 41.9626L48.342 42.769L45.1714 46.1608L45.819 50.8424L41.7366 48.7554L37.6542 50.8424L38.3018 46.1608L35.1312 42.769L39.6138 41.9626L41.7366 37.7793Z" fill="#FFCC00"/>
<path d="M58.8955 37.7793L61.0184 41.9626L65.501 42.769L62.3304 46.1608L62.9779 50.8424L58.8955 48.7554L54.8132 50.8424L55.4607 46.1608L52.2901 42.769L56.7727 41.9626L58.8955 37.7793Z" fill="#FFCC00"/>
<path d="M76.0546 37.7793L78.1774 41.9626L82.66 42.769L79.4894 46.1608L80.137 50.8424L76.0546 48.7554L71.9722 50.8424L72.6198 46.1608L69.4492 42.769L73.9318 41.9626L76.0546 37.7793Z" fill="#FFCC00"/>
<path d="M20.7809 34.7793V26.3793H24.0569C24.7929 26.3793 25.4209 26.4953 25.9409 26.7273C26.4609 26.9593 26.8609 27.2953 27.1409 27.7353C27.4209 28.1753 27.5609 28.6993 27.5609 29.3073C27.5609 29.9153 27.4209 30.4393 27.1409 30.8793C26.8609 31.3113 26.4609 31.6473 25.9409 31.8873C25.4209 32.1193 24.7929 32.2353 24.0569 32.2353H21.4409L21.9809 31.6713V34.7793H20.7809ZM21.9809 31.7913L21.4409 31.1913H24.0209C24.7889 31.1913 25.3689 31.0273 25.7609 30.6993C26.1609 30.3713 26.3609 29.9073 26.3609 29.3073C26.3609 28.7073 26.1609 28.2433 25.7609 27.9153C25.3689 27.5873 24.7889 27.4233 24.0209 27.4233H21.4409L21.9809 26.8233V31.7913ZM31.8467 34.8513C31.1667 34.8513 30.5667 34.7113 30.0467 34.4313C29.5347 34.1513 29.1347 33.7673 28.8467 33.2793C28.5667 32.7913 28.4267 32.2313 28.4267 31.5993C28.4267 30.9673 28.5627 30.4073 28.8347 29.9193C29.1147 29.4313 29.4947 29.0513 29.9747 28.7793C30.4627 28.4993 31.0107 28.3593 31.6187 28.3593C32.2347 28.3593 32.7787 28.4953 33.2507 28.7673C33.7227 29.0393 34.0907 29.4233 34.3547 29.9193C34.6267 30.4073 34.7627 30.9793 34.7627 31.6353C34.7627 31.6833 34.7587 31.7393 34.7507 31.8033C34.7507 31.8673 34.7467 31.9273 34.7387 31.9833H29.3267V31.1553H34.1387L33.6707 31.4433C33.6787 31.0353 33.5947 30.6713 33.4187 30.3513C33.2427 30.0313 32.9987 29.7833 32.6867 29.6073C32.3827 29.4233 32.0267 29.3313 31.6187 29.3313C31.2187 29.3313 30.8627 29.4233 30.5507 29.6073C30.2387 29.7833 29.9947 30.0353 29.8187 30.3633C29.6427 30.6833 29.5547 31.0513 29.5547 31.4673V31.6593C29.5547 32.0833 29.6507 32.4633 29.8427 32.7993C30.0427 33.1273 30.3187 33.3833 30.6707 33.5673C31.0227 33.7513 31.4267 33.8433 31.8827 33.8433C32.2587 33.8433 32.5987 33.7793 32.9027 33.6513C33.2147 33.5233 33.4867 33.3313 33.7187 33.0753L34.3547 33.8193C34.0667 34.1553 33.7067 34.4113 33.2747 34.5873C32.8507 34.7633 32.3747 34.8513 31.8467 34.8513ZM36.5498 34.7793V28.4193H37.7018V33.0513L41.6018 28.4193H42.6458V34.7793H41.4938V30.1473L37.6058 34.7793H36.5498ZM39.5258 27.5913C38.9418 27.5913 38.4818 27.4513 38.1458 27.1713C37.8178 26.8833 37.6498 26.4713 37.6418 25.9353H38.4218C38.4298 26.2393 38.5298 26.4793 38.7218 26.6553C38.9218 26.8313 39.1858 26.9193 39.5138 26.9193C39.8418 26.9193 40.1058 26.8313 40.3058 26.6553C40.5058 26.4793 40.6098 26.2393 40.6178 25.9353H41.4218C41.4138 26.4713 41.2418 26.8833 40.9058 27.1713C40.5698 27.4513 40.1098 27.5913 39.5258 27.5913ZM46.1419 34.7793V29.1273L46.4299 29.4273H43.8139V28.4193H49.6219V29.4273H47.0179L47.2939 29.1273V34.7793H46.1419ZM50.7998 34.7793V28.4193H51.9518V33.0513L55.8518 28.4193H56.8958V34.7793H55.7438V30.1473L51.8558 34.7793H50.7998ZM59.1319 34.7793V28.4193H60.2839V31.1193H63.9079V28.4193H65.0599V34.7793H63.9079V32.1153H60.2839V34.7793H59.1319ZM67.2998 34.7793V28.4193H71.9798V29.4273H68.1758L68.4518 29.1633V34.7793H67.2998Z" fill="white"/>
</svg>
