<svg width="61" height="61" viewBox="0 0 61 61" fill="none" xmlns="http://www.w3.org/2000/svg">
<path fill-rule="evenodd" clip-rule="evenodd" d="M51.2728 47.6062L53.1135 49.1562C57.7243 43.5992 60.176 36.5656 60.0187 29.3466C59.8614 22.1275 57.1057 15.2074 52.2572 9.85645C47.4088 4.50552 40.7931 1.08284 33.6245 0.216681C27.0013 -0.583569 20.3168 0.848062 14.619 4.25844L15.1047 2.26718C15.1714 2.10401 15.2022 1.92839 15.195 1.75226C15.1877 1.57612 15.1426 1.40361 15.0627 1.24648C14.9828 1.08934 14.87 0.95125 14.732 0.841633C14.5939 0.732016 14.4339 0.653451 14.2627 0.611248C14.0916 0.569045 13.9133 0.564211 13.7401 0.597082C13.5669 0.629952 13.4028 0.699742 13.259 0.80172C13.1152 0.903698 12.9951 1.03546 12.9068 1.18804C12.8185 1.34061 12.7641 1.51042 12.7474 1.68591L11.4557 6.88505C11.3449 7.19847 11.3449 7.5404 11.4557 7.85382C11.6529 8.11857 11.94 8.30229 12.263 8.37052L17.5913 9.24241H17.8174C18.0987 9.29435 18.3893 9.24073 18.6336 9.09178C18.8779 8.94282 19.0586 8.709 19.1413 8.43509C19.1992 8.12313 19.134 7.80087 18.9594 7.53595C18.7848 7.27102 18.5144 7.08405 18.2048 7.01422L15.5767 6.51362C20.8778 3.29247 27.1211 1.94427 33.2999 2.70775C39.8671 3.51923 45.9245 6.66229 50.369 11.5646C54.8136 16.4669 57.3497 22.8024 57.5156 29.4175C57.6815 36.0326 55.4661 42.4873 51.2728 47.6062Z" fill="#F8A606"/>
<path fill-rule="evenodd" clip-rule="evenodd" d="M13.8505 55.321C18.6711 58.4003 24.2716 60.0372 29.9918 60.0388C35.4259 60.0537 40.7488 58.5782 45.387 55.7883L44.8465 58.0044C44.7676 58.3169 44.8148 58.6479 44.978 58.9258C45.1411 59.2038 45.4071 59.4064 45.7184 59.4899H46.009C46.2503 59.4553 46.4763 59.3515 46.6597 59.191C46.8432 59.0305 46.9761 58.8202 47.0424 58.5857L48.3341 53.3865C48.4449 53.0731 48.4449 52.7312 48.3341 52.4178C48.1368 52.153 47.8498 51.9693 47.5268 51.9011L42.1984 50.8677C42.0323 50.8124 41.8564 50.7932 41.6823 50.8115C41.5082 50.8298 41.34 50.8852 41.1891 50.9739C41.0381 51.0625 40.9079 51.1824 40.8072 51.3256C40.7064 51.4688 40.6374 51.6318 40.6049 51.8038C40.5723 51.9758 40.577 52.1528 40.6185 52.3229C40.66 52.4929 40.7374 52.6521 40.8455 52.7898C40.9536 52.9275 41.0899 53.0405 41.2453 53.1211C41.4007 53.2017 41.5715 53.2482 41.7463 53.2574L44.1449 53.7142C39.8823 56.2815 34.9877 57.6367 29.9918 57.6168C24.7302 57.6191 19.5777 56.1162 15.1424 53.2854C10.7072 50.4546 7.17431 46.4141 4.96077 41.6407C2.74722 36.8673 1.94541 31.5603 2.64995 26.346C3.35448 21.1318 5.53596 16.2279 8.93693 12.2132L7.09624 10.6631C3.40183 15.0302 1.03295 20.3626 0.268863 26.0315C-0.49522 31.7004 0.377338 37.4696 2.78368 42.659C5.19002 47.8484 9.02986 52.2417 13.8505 55.321Z" fill="#F8A606"/>
</svg>
