<svg width="186" height="32" viewBox="0 0 186 32" fill="none" xmlns="http://www.w3.org/2000/svg">
<mask id="mask0_4175_692" style="mask-type:luminance" maskUnits="userSpaceOnUse" x="0" y="0" width="23" height="32">
<path d="M22.1925 0.860352H0.5V31.1397H22.1925V0.860352Z" fill="white"/>
</mask>
<g mask="url(#mask0_4175_692)">
<path fill-rule="evenodd" clip-rule="evenodd" d="M2.93409 0.860352H6.17953C6.82509 0.860352 7.44422 1.12114 7.90069 1.58534C8.35717 2.04955 8.61362 2.67915 8.61362 3.33562V28.6644C8.61362 29.3209 8.35717 29.9505 7.90069 30.4148C7.44422 30.879 6.82509 31.1397 6.17953 31.1397H2.93409C2.28853 31.1397 1.66941 30.879 1.21293 30.4148C0.756447 29.9505 0.5 29.3209 0.5 28.6644V3.33562C0.5 2.67915 0.756447 2.04955 1.21293 1.58534C1.66941 1.12114 2.28853 0.860352 2.93409 0.860352ZM16.5129 0.860352H19.7584C20.078 0.860352 20.3946 0.924376 20.6899 1.04877C20.9852 1.17317 21.2536 1.35549 21.4795 1.58534C21.7055 1.81519 21.8849 2.08807 22.0072 2.38838C22.1295 2.68869 22.1925 3.01057 22.1925 3.33562V15.9922C22.1925 16.3173 22.1295 16.6391 22.0072 16.9395C21.8849 17.2398 21.7055 17.5126 21.4795 17.7426C21.2536 17.9724 20.9852 18.1548 20.6899 18.2792C20.3946 18.4035 20.078 18.4675 19.7584 18.4675H16.5129C15.8674 18.4675 15.2482 18.2068 14.7918 17.7426C14.3353 17.2784 14.0788 16.6488 14.0788 15.9922V3.33562C14.0788 2.67915 14.3353 2.04955 14.7918 1.58534C15.2482 1.12114 15.8674 0.860352 16.5129 0.860352ZM16.5129 22.811H19.7584C20.078 22.811 20.3946 22.8749 20.6899 22.9993C20.9852 23.1237 21.2536 23.3061 21.4795 23.5359C21.7055 23.7657 21.8849 24.0387 22.0072 24.339C22.1295 24.6392 22.1925 24.9611 22.1925 25.2862V28.6644C22.1925 28.9895 22.1295 29.3113 22.0072 29.6116C21.8849 29.912 21.7055 30.1848 21.4795 30.4148C21.2536 30.6446 20.9852 30.8269 20.6899 30.9513C20.3946 31.0757 20.078 31.1397 19.7584 31.1397H16.5129C15.8674 31.1397 15.2482 30.879 14.7918 30.4148C14.3353 29.9505 14.0788 29.3209 14.0788 28.6644V25.2862C14.0788 24.6297 14.3353 24.0001 14.7918 23.5359C15.2482 23.0717 15.8674 22.811 16.5129 22.811Z" fill="#D8D8D8"/>
</g>
<path d="M185.5 29.8326C184.999 30.2033 184.377 30.4867 183.636 30.6829C182.916 30.8573 182.153 30.9445 181.347 30.9445C179.254 30.9445 177.63 30.4104 176.474 29.3421C175.34 28.2738 174.773 26.704 174.773 24.6329V17.4055H172.059V13.4811H174.773V9.19702H179.875V13.4811H184.257V17.4055H179.875V24.5674C179.875 25.3087 180.06 25.8865 180.431 26.3007C180.823 26.6931 181.369 26.8894 182.066 26.8894C182.873 26.8894 183.56 26.6713 184.127 26.2353L185.5 29.8326Z" fill="#D8D8D8"/>
<path d="M163.039 6.41724H168.14V30.6829H163.039V6.41724Z" fill="#D8D8D8"/>
<path d="M149.95 12.8274C152.676 12.8274 154.769 13.4815 156.229 14.7896C157.69 16.0759 158.42 18.0272 158.42 20.6434V30.6832H153.646V28.4921C152.687 30.1273 150.899 30.9449 148.283 30.9449C146.931 30.9449 145.754 30.716 144.751 30.2581C143.77 29.8003 143.017 29.168 142.494 28.3613C141.971 27.5547 141.709 26.639 141.709 25.6143C141.709 23.9791 142.32 22.6928 143.541 21.7553C144.783 20.8178 146.691 20.3491 149.264 20.3491H153.319C153.319 19.2372 152.981 18.3869 152.305 17.7983C151.629 17.1878 150.615 16.8826 149.264 16.8826C148.326 16.8826 147.4 17.0352 146.484 17.3404C145.59 17.6238 144.827 18.0163 144.195 18.5177L142.363 14.9531C143.323 14.2772 144.467 13.754 145.797 13.3833C147.149 13.0127 148.533 12.8274 149.95 12.8274ZM149.558 27.5111C150.43 27.5111 151.204 27.3148 151.88 26.9224C152.556 26.5082 153.035 25.9086 153.319 25.1237V23.3251H149.82C147.727 23.3251 146.68 24.0118 146.68 25.3854C146.68 26.0394 146.931 26.5627 147.432 26.9551C147.956 27.3257 148.664 27.5111 149.558 27.5111Z" fill="#D8D8D8"/>
<path d="M139.937 21.9515C139.937 22.0169 139.904 22.4748 139.839 23.3251H126.529C126.768 24.4152 127.335 25.2763 128.229 25.9086C129.123 26.5409 130.235 26.857 131.565 26.857C132.481 26.857 133.287 26.7262 133.985 26.4646C134.704 26.1811 135.369 25.7451 135.98 25.1564L138.694 28.0997C137.037 29.9965 134.617 30.9449 131.434 30.9449C129.45 30.9449 127.695 30.5633 126.169 29.8003C124.643 29.0154 123.465 27.9362 122.637 26.5627C121.809 25.1891 121.394 23.6303 121.394 21.8861C121.394 20.1638 121.798 18.6158 122.604 17.2423C123.433 15.847 124.556 14.7678 125.973 14.0047C127.412 13.2198 129.014 12.8274 130.78 12.8274C132.502 12.8274 134.061 13.198 135.457 13.9393C136.852 14.6806 137.942 15.7489 138.727 17.1442C139.534 18.5177 139.937 20.1202 139.937 21.9515ZM130.813 16.6863C129.657 16.6863 128.687 17.0134 127.902 17.6674C127.117 18.3215 126.638 19.2154 126.463 20.3491H135.13C134.955 19.2372 134.476 18.3542 133.691 17.7001C132.906 17.0243 131.946 16.6863 130.813 16.6863Z" fill="#D8D8D8"/>
<path d="M113.6 30.6824L109.185 24.3053H108.924H104.313V30.6824H99.0146V7.79028H108.924C110.951 7.79028 112.706 8.12821 114.189 8.80408C115.693 9.47994 116.849 10.4392 117.655 11.6819C118.462 12.9247 118.865 14.3963 118.865 16.0969C118.865 17.7974 118.451 19.269 117.623 20.5118C116.816 21.7327 115.66 22.6702 114.156 23.3242L119.291 30.6824H113.6ZM113.502 16.0969C113.502 14.8105 113.088 13.8294 112.259 13.1536C111.431 12.4559 110.221 12.1071 108.629 12.1071H104.313V20.0866H108.629C110.221 20.0866 111.431 19.7378 112.259 19.0401C113.088 18.3425 113.502 17.3614 113.502 16.0969Z" fill="#D8D8D8"/>
<path d="M91.6 13.481H96.113V17.4054H91.7308V30.6828H86.6291V17.4054H83.9148V13.481H86.6291V12.6961C86.6291 10.6903 87.2178 9.09879 88.3951 7.92148C89.5942 6.74417 91.273 6.15552 93.4314 6.15552C94.1945 6.15552 94.9139 6.24273 95.5898 6.41714C96.2874 6.56976 96.8652 6.79868 97.323 7.10391L95.9822 10.7993C95.3936 10.3851 94.7068 10.178 93.9219 10.178C92.374 10.178 91.6 11.0283 91.6 12.7288V13.481Z" fill="#D8D8D8"/>
<path d="M72.9499 30.9449C71.0967 30.9449 69.4288 30.5633 67.9463 29.8003C66.4856 29.0154 65.341 27.9362 64.5125 26.5627C63.684 25.1891 63.2698 23.6303 63.2698 21.8861C63.2698 20.142 63.684 18.5831 64.5125 17.2096C65.341 15.8361 66.4856 14.7678 67.9463 14.0047C69.4288 13.2198 71.0967 12.8274 72.9499 12.8274C74.803 12.8274 76.46 13.2198 77.9207 14.0047C79.3815 14.7678 80.5261 15.8361 81.3545 17.2096C82.183 18.5831 82.5973 20.142 82.5973 21.8861C82.5973 23.6303 82.183 25.1891 81.3545 26.5627C80.5261 27.9362 79.3815 29.0154 77.9207 29.8003C76.46 30.5633 74.803 30.9449 72.9499 30.9449ZM72.9499 26.7589C74.258 26.7589 75.3263 26.3228 76.1548 25.4508C77.005 24.5569 77.4302 23.3687 77.4302 21.8861C77.4302 20.4036 77.005 19.2263 76.1548 18.3542C75.3263 17.4603 74.258 17.0134 72.9499 17.0134C71.6418 17.0134 70.5625 17.4603 69.7123 18.3542C68.862 19.2263 68.4369 20.4036 68.4369 21.8861C68.4369 23.3687 68.862 24.5569 69.7123 25.4508C70.5625 26.3228 71.6418 26.7589 72.9499 26.7589Z" fill="#D8D8D8"/>
<path d="M55.6542 15.4109C56.2647 14.5607 57.0823 13.9175 58.107 13.4815C59.1535 13.0454 60.3526 12.8274 61.7043 12.8274V17.5366C61.1375 17.493 60.7559 17.4712 60.5597 17.4712C59.099 17.4712 57.9544 17.8855 57.1259 18.7139C56.2974 19.5206 55.8832 20.7415 55.8832 22.3767V30.6832H50.7815V13.089H55.6542V15.4109Z" fill="#D8D8D8"/>
<path d="M37.4173 7.79028C39.4449 7.79028 41.2 8.12821 42.6825 8.80408C44.1868 9.47994 45.3424 10.4392 46.149 11.6819C46.9557 12.9247 47.359 14.3963 47.359 16.0969C47.359 17.7756 46.9557 19.2472 46.149 20.5118C45.3424 21.7545 44.1868 22.7138 42.6825 23.3896C41.2 24.0437 39.4449 24.3707 37.4173 24.3707H32.8062V30.6824H27.5083V7.79028H37.4173ZM37.123 20.0539C38.7145 20.0539 39.9246 19.716 40.753 19.0401C41.5815 18.3425 41.9957 17.3614 41.9957 16.0969C41.9957 14.8105 41.5815 13.8294 40.753 13.1536C39.9246 12.4559 38.7145 12.1071 37.123 12.1071H32.8062V20.0539H37.123Z" fill="#D8D8D8"/>
</svg>
