<svg width="471" height="156" viewBox="0 0 471 156" fill="none" xmlns="http://www.w3.org/2000/svg">
<g clip-path="url(#clip0_4001_2229)">
<path d="M199.1 14.9808C200.473 -17.1748 175.796 -47.1703 152.332 -39.5676C128.868 -31.965 109.99 -9.33917 107.649 12.647C105.307 34.6331 144.754 22.2416 162.397 29.9002C180.088 37.6667 198.416 30.1531 199.1 14.9808Z" stroke="#DCDCDC" stroke-miterlimit="10"/>
<path d="M101.5 -43.5556C79.2837 -34.3103 80.8199 -11.9917 66.5062 6.6579C58.1396 17.6197 59.1923 23.6125 61.5543 29.2807C65.405 38.2922 82.8507 44.0939 89.6158 45.8633C110.19 51.435 143.191 48.6313 160.592 60.1388C191.422 80.3994 210.935 41.8599 218.723 21.9802C228.741 -3.41505 222.745 -22.3263 206.825 -32.6841C171.117 -55.5545 171.077 -72.3362 101.5 -43.5556Z" stroke="#DCDCDC" stroke-miterlimit="10"/>
<path d="M170.907 -72.1835C158.955 -87.0854 128.641 -70.4778 76.9459 -61.7216C37.8475 -55.0738 47.8602 -11.9548 23.4619 17.5759C-1.63691 48.0666 17.2045 52.3823 44.5463 60.951C75.1377 70.6656 133.154 67.781 161.942 90.0952C205.217 123.591 227.418 53.2949 241.423 28.651C261.673 -6.94038 250.052 -26.5271 229.96 -40.5275C209.272 -54.7811 179.299 -61.6597 170.907 -72.1835Z" stroke="#DCDCDC" stroke-miterlimit="10"/>
<path d="M182.863 -89.6332C171.04 -114.738 127.604 -90.3378 53.1078 -80.5306C-2.17686 -73.3071 15.3278 -12.5757 -19.2842 28.0123C-55.9765 70.8243 -28.2527 77.5588 15.0227 84.3776C59.3484 91.3776 129.195 90.0002 164.039 119.261C219.838 166.187 245.155 64.0683 265.405 34.4169C296.614 -11.2746 280.86 -33.5914 254.549 -49.1311C228.141 -64.8875 190.743 -73.025 182.863 -89.6332Z" stroke="#DCDCDC" stroke-miterlimit="10"/>
<path d="M289.214 39.3801C331.284 -15.9642 311.314 -41.228 279.141 -58.3425C246.835 -75.397 202.278 -84.4101 194.946 -107.409C183.596 -142.333 126.599 -110.358 29.6534 -99.5391C-41.7417 -91.5572 -16.708 -13.5627 -61.5098 37.8228C-109.308 93.0003 -72.6933 102.315 -14.1182 106.898C44.5917 111.421 125.445 111.26 166.213 147.317C234.191 207.485 262.943 73.9763 289.214 39.3801Z" stroke="#DCDCDC" stroke-miterlimit="10"/>
<path d="M-1.16902 -110.479C-72.1799 -90.5217 -69.3259 -17.0443 -111.038 37.5411C-152.837 92.2945 -124.89 109.388 -74.213 127.503C-45.622 137.703 -0.127303 132.215 44.1849 132.048C93.1737 131.871 135.467 141.67 159.224 181.616C205.699 259.897 287.86 89.8844 311.089 45.9895C343.64 -15.3985 320.683 -45.2074 285.652 -67.6971C250.486 -90.1268 204.805 -104.636 196.61 -134.281C184.466 -178.231 104.154 -140.012 -1.16902 -110.479Z" stroke="#DCDCDC" stroke-miterlimit="10"/>
<path d="M-30.8416 -121.471C-101.507 -90.6564 -121.027 -20.7052 -159.374 37.036C-195.404 91.2846 -176.764 119.379 -132.969 147.801C-102.558 167.547 -42.7958 154.279 15.9581 149.62C77.8383 144.734 131.016 152.918 153.426 215.21C185.857 305.808 314.561 105.65 334.219 51.9559C358.674 -14.8826 331.461 -49.9104 293.496 -77.5606C255.531 -105.211 208.814 -125.338 199.907 -161.651C186.687 -214.177 83.3277 -171.267 -30.8416 -121.471Z" stroke="#DCDCDC" stroke-miterlimit="10"/>
<path d="M-56.8834 -129.085C-127.497 -88.0637 -169.453 -21.0806 -204.391 39.9286C-235.071 93.4737 -226.692 134.031 -188.578 171.451C-157.68 201.724 -82.2714 179.804 -9.08064 170.657C65.6007 161.234 132.632 166.873 150.863 252.383C172.696 354.678 345.439 124.96 360.575 61.5008C377.892 -10.8285 345.336 -50.9819 304.569 -83.8538C263.755 -116.834 215.913 -142.411 206.292 -185.395C192.531 -246.736 65.3338 -200.205 -56.8834 -129.085Z" stroke="#DCDCDC" stroke-miterlimit="10"/>
</g>
<defs>
<clipPath id="clip0_4001_2229">
<rect width="656" height="539" fill="white" transform="translate(-348 -35) rotate(-24)"/>
</clipPath>
</defs>
</svg>
