<svg width="41" height="41" viewBox="0 0 41 41" fill="none" xmlns="http://www.w3.org/2000/svg">
<path d="M30.7372 12.8787C30.503 12.2756 30.223 11.8448 29.7708 11.3925C29.3186 10.9401 28.8879 10.6601 28.2849 10.4259C27.8299 10.2481 27.1462 10.0381 25.8864 9.98159C24.5243 9.91966 24.1151 9.9062 20.6641 9.9062C20.2334 9.9062 19.8485 9.9062 19.5039 9.9062C17.0947 9.9062 16.6344 9.92235 15.4418 9.9762C14.182 10.0327 13.4983 10.2428 13.0434 10.4205C12.4404 10.6547 12.0097 10.9347 11.5574 11.3871C11.1052 11.8394 10.8252 12.2702 10.5911 12.8733C10.4134 13.3284 10.2034 14.0123 10.1469 15.2724C10.085 16.6348 10.0715 17.0414 10.0715 20.4932C10.0715 23.945 10.085 24.3542 10.1469 25.7166C10.2034 26.9767 10.4161 27.6606 10.5911 28.1157C10.8252 28.7188 11.1052 29.1496 11.5574 29.6019C12.0097 30.0543 12.4404 30.3343 13.0434 30.5686C13.4983 30.7463 14.182 30.9563 15.4418 31.0155C16.8039 31.0774 17.2131 31.0909 20.6641 31.0909C24.1151 31.0909 24.5243 31.0774 25.8864 31.0155C27.1462 30.959 27.8299 30.749 28.2849 30.5712C28.8879 30.337 29.3186 30.057 29.7708 29.6046C30.223 29.1523 30.503 28.7242 30.7372 28.1211C30.9149 27.666 31.1248 26.9821 31.1813 25.722C31.2433 24.3596 31.2567 23.9504 31.2567 20.5012C31.2567 17.0521 31.2433 16.6429 31.1813 15.2805C31.1248 14.0204 30.9122 13.3365 30.7372 12.8814V12.8787ZM20.6641 27.1383C17.0005 27.1383 14.0286 24.1684 14.0286 20.5012C14.0286 16.834 17.0005 13.8642 20.6641 13.8642C24.3278 13.8642 27.2996 16.8367 27.2996 20.5012C27.2996 24.1658 24.3305 27.1383 20.6641 27.1383ZM27.5608 15.1539C26.7047 15.1539 26.0102 14.4592 26.0102 13.603C26.0102 12.7468 26.7047 12.0521 27.5608 12.0521C28.4168 12.0521 29.1113 12.7468 29.1113 13.603C29.1113 14.4592 28.4168 15.1539 27.5608 15.1539Z" fill="white"/>
<path d="M20.6641 24.8094C23.0428 24.8094 24.9711 22.8806 24.9711 20.5014C24.9711 18.1221 23.0428 16.1934 20.6641 16.1934C18.2853 16.1934 16.357 18.1221 16.357 20.5014C16.357 22.8806 18.2853 24.8094 20.6641 24.8094Z" fill="white"/>
<path d="M38.1344 10.5848C38.0241 9.17932 37.7845 8.23425 37.2919 7.23533C36.8881 6.4168 36.4412 5.80829 35.7925 5.18363C34.635 4.07701 33.219 3.40388 31.5312 3.16155C30.7129 3.04308 30.5514 3.00808 26.3682 3H20.6721C13.3663 3 11.229 3.00808 10.8144 3.04308C9.31503 3.16694 8.38095 3.40388 7.3661 3.91007C6.58276 4.30048 5.96363 4.75013 5.35526 5.38288C4.24351 6.53527 3.57053 7.95153 3.32826 9.63974C3.20982 10.4583 3.17482 10.6252 3.16675 14.804C3.16675 16.1987 3.16675 18.0323 3.16675 20.4933C3.16675 27.7954 3.17482 29.9305 3.20982 30.3452C3.33095 31.8045 3.55976 32.7227 4.04431 33.727C4.97032 35.6494 6.73889 37.0926 8.82242 37.6311C9.54384 37.8169 10.3406 37.9192 11.3636 37.9677C11.797 37.9865 16.2144 38 20.6344 38C25.0545 38 29.4746 37.9946 29.8973 37.9731C31.0817 37.9165 31.7708 37.825 32.5299 37.6284C34.6269 37.0872 36.3632 35.6656 37.308 33.7162C37.7818 32.7361 38.0241 31.783 38.1344 30.399C38.1587 30.0975 38.1667 25.2886 38.1667 20.4879C38.1667 15.6871 38.156 10.8864 38.1318 10.5848H38.1344ZM33.5071 25.8298C33.4425 27.2057 33.2244 28.1454 32.9068 28.9666C32.5757 29.8174 32.1342 30.5363 31.4155 31.2552C30.6967 31.9741 29.978 32.4157 29.1274 32.7469C28.3063 33.0673 27.3642 33.2854 25.9886 33.3473C24.6104 33.4093 24.1716 33.4254 20.6614 33.4254C17.1511 33.4254 16.7124 33.4093 15.3341 33.3473C13.9585 33.2854 13.0191 33.0673 12.1981 32.7469C11.3474 32.4157 10.6287 31.9741 9.90994 31.2552C9.19121 30.5363 8.74973 29.8148 8.41863 28.9666C8.0983 28.1454 7.88295 27.2057 7.81834 25.8298C7.75643 24.4513 7.74027 24.0124 7.74027 20.5013C7.74027 16.9903 7.75643 16.5514 7.81834 15.1729C7.88025 13.797 8.0983 12.8573 8.41863 12.0361C8.74973 11.1852 9.19121 10.4663 9.90994 9.74744C10.6287 9.02854 11.3501 8.58697 12.1981 8.25848C13.0191 7.93807 13.9585 7.71998 15.3341 7.65805C16.7124 7.59612 17.1538 7.57997 20.6587 7.57997H20.6641C24.1716 7.57997 24.6104 7.59612 25.9886 7.65805C27.3642 7.71998 28.3036 7.93807 29.1274 8.25848C29.978 8.58697 30.6967 9.02854 31.4155 9.74744C32.1342 10.4663 32.5757 11.1879 32.9068 12.0361C33.2244 12.8573 33.4425 13.797 33.5071 15.1729C33.569 16.5514 33.5851 16.993 33.5851 20.5013C33.5851 24.0097 33.569 24.4513 33.5071 25.8298Z" fill="white"/>
</svg>
