<svg width="77" height="75" viewBox="0 0 77 75" fill="none" xmlns="http://www.w3.org/2000/svg">
<path d="M44.2235 24.3915C44.2067 24.9786 44.0279 25.55 43.7062 26.0439C43.3845 26.5377 42.9323 26.9353 42.3984 27.1935C42.1316 27.2311 41.8695 27.2958 41.6162 27.3867C39.2371 28.063 36.8579 28.8038 34.4462 29.4479L33.6966 29.6733C33.6966 29.6733 33.6966 29.6733 33.4685 29.6733L31.3175 29.0292C29.8509 28.5783 28.3843 28.063 26.8525 27.6121C26.3637 38.8199 25.8096 50.1564 25.3533 61.2997C25.3694 61.4065 25.1533 62.776 25.1373 62.8828C24.8879 63.5177 24.9765 63.6307 24.549 64.0593C23.9693 64.4276 23.3726 64.6475 22.1961 64.6475C21.508 64.6082 20.376 64.4912 19.8432 64.0593C19.4677 63.7549 19.3346 61.9267 19.1611 61.2675C19.2055 61.6935 19.1589 62.124 19.0243 62.531C18.8898 62.9381 18.6702 63.3127 18.3799 63.6307C18.0896 63.9486 17.735 64.2028 17.3391 64.3767C16.9431 64.5507 16.5146 64.6406 16.0812 64.6406C15.6479 64.6406 15.2193 64.5507 14.8234 64.3767C14.4274 64.2028 14.0728 63.9486 13.7825 63.6307C13.4922 63.3127 13.2726 62.9381 13.1381 62.531C13.0035 62.124 12.957 61.6935 13.0014 61.2675C12.6103 54.3754 12.23 47.4618 11.8607 40.5268C11.2251 40.4224 10.6351 40.1341 10.1652 39.6985C9.69535 39.2628 9.36671 38.6993 9.2208 38.0791C9.20473 37.9724 9.20473 37.8638 9.2208 37.7571C9.2356 37.6287 9.2356 37.499 9.2208 37.3706C9.2208 32.9584 8.99267 28.5783 8.92749 24.1661C8.96762 23.6391 9.11154 23.1249 9.35116 22.6524C9.35116 22.6524 9.35116 22.427 9.5467 22.3625C10.2225 21.498 11.1318 20.8398 12.1697 20.4637C13.2076 20.0876 14.3319 20.009 15.4131 20.2369C15.7186 22.0098 16.1322 23.7629 16.6515 25.4865C17.0752 26.9036 17.5315 28.1918 17.9878 29.3835C18.1833 27.3867 18.4115 25.3899 18.6722 23.3931C18.2811 22.9422 17.9226 22.4914 17.5315 22.0727L17.9878 21.3319H20.3669C20.3669 21.5574 20.5625 21.7828 20.7254 22.0727C20.5125 22.2937 20.3757 22.5755 20.3343 22.8778C20.2281 23.2899 20.2281 23.7218 20.3343 24.1339V29.1258C20.6928 27.9342 21.0839 26.7104 21.4098 25.5187C21.7357 24.3271 22.4201 22.2981 22.9742 20.6234C23.2337 20.5881 23.4969 20.5881 23.7564 20.6234C24.5933 20.6522 25.3869 20.9981 25.9726 21.5896L33.5989 23.7152L40.1171 21.6218C40.4824 21.4492 40.8862 21.3716 41.2903 21.3964C42.0744 21.4293 42.8158 21.7584 43.3616 22.3157C43.9074 22.873 44.2159 23.616 44.2235 24.3915Z" fill="white"/>
<path d="M23.3978 13.5697C23.3725 14.4993 23.1438 15.4124 22.7275 16.2463C22.3112 17.0802 21.7171 17.8152 20.9861 18.4007C20.2957 18.7987 19.5029 18.9889 18.7047 18.9482C17.9169 18.9883 17.1347 18.7978 16.4559 18.4007C15.7058 17.8323 15.0981 17.1009 14.6798 16.2632C14.2616 15.4255 14.0441 14.5039 14.0442 13.5697C13.7509 11.5408 13.425 9.89824 14.5982 8.51338C15.1279 7.9781 15.7705 7.5649 16.4804 7.30325C17.1902 7.0416 17.9497 6.93795 18.7047 6.99969C19.4601 6.93338 20.2209 7.0349 20.9315 7.29681C21.642 7.55872 22.2842 7.9744 22.8112 8.51338C23.9844 9.89824 23.6911 11.5408 23.3978 13.5697Z" fill="white"/>
<path d="M68.3084 45.5186C68.0337 45.8525 67.6374 46.0666 67.2047 46.1147C66.772 46.1629 66.3374 46.0414 65.9944 45.7762L49.6989 33.1192L40.8668 39.8503L38.5854 41.525L32.3279 46.2915C32.0595 46.5026 31.7259 46.6162 31.3828 46.6136C31.1256 46.6113 30.8721 46.5523 30.641 46.4408C30.4098 46.3294 30.2067 46.1684 30.0466 45.9695C29.9199 45.7983 29.8286 45.6042 29.7781 45.3981C29.7275 45.192 29.7186 44.9781 29.7519 44.7686C29.7852 44.5592 29.8601 44.3583 29.9722 44.1775C30.0842 43.9967 30.2314 43.8395 30.4051 43.715L35.75 39.7215V32.4429H40.8668V35.6635L48.8841 29.7054C49.1662 29.4963 49.5093 29.3833 49.8619 29.3833C50.2145 29.3833 50.5576 29.4963 50.8396 29.7054L68.0151 43.1353C68.1991 43.268 68.3536 43.4367 68.4689 43.6308C68.5843 43.825 68.658 44.0405 68.6855 44.264C68.713 44.4875 68.6937 44.7142 68.6288 44.93C68.564 45.1458 68.4549 45.3462 68.3084 45.5186Z" fill="white"/>
<path d="M66.0597 66.7744H63.6154V49.7374L50.0575 39.8501L35.196 50.2849V66.6456H32.7517V49.5119C32.7541 49.3214 32.8028 49.1343 32.8935 48.9661C32.9842 48.798 33.1144 48.6539 33.2732 48.5457L49.2427 37.2736C49.454 37.131 49.7039 37.0547 49.9597 37.0547C50.2156 37.0547 50.4655 37.131 50.6768 37.2736L65.4405 48.0305C65.5992 48.1386 65.7294 48.2827 65.8202 48.4508C65.9109 48.619 65.9595 48.8061 65.9619 48.9966L66.0597 66.7744Z" fill="white"/>
<path d="M68.6666 64.0693H30.47V67.0001H68.6666V64.0693Z" fill="white"/>
<path d="M42.4308 50.6069C43.4594 50.6069 44.4459 51.0107 45.1732 51.7295C45.9005 52.4482 46.3091 53.423 46.3091 54.4395V64.1013H38.5525V54.4395C38.5525 53.423 38.9611 52.4482 39.6884 51.7295C40.4158 51.0107 41.4022 50.6069 42.4308 50.6069Z" fill="white"/>
<path d="M58.4334 51.9922H55.9239C55.6179 51.9922 55.3699 52.2373 55.3699 52.5397V55.0196C55.3699 55.3219 55.6179 55.5671 55.9239 55.5671H58.4334C58.7394 55.5671 58.9875 55.3219 58.9875 55.0196V52.5397C58.9875 52.2373 58.7394 51.9922 58.4334 51.9922Z" fill="#F8A606"/>
<path d="M53.8055 51.9922H51.296C50.99 51.9922 50.7419 52.2373 50.7419 52.5397V55.0196C50.7419 55.3219 50.99 55.5671 51.296 55.5671H53.8055C54.1115 55.5671 54.3595 55.3219 54.3595 55.0196V52.5397C54.3595 52.2373 54.1115 51.9922 53.8055 51.9922Z" fill="#F8A606"/>
<path d="M58.4334 56.9194H55.9239C55.6179 56.9194 55.3699 57.1646 55.3699 57.4669V59.9468C55.3699 60.2492 55.6179 60.4943 55.9239 60.4943H58.4334C58.7394 60.4943 58.9875 60.2492 58.9875 59.9468V57.4669C58.9875 57.1646 58.7394 56.9194 58.4334 56.9194Z" fill="#F8A606"/>
<path d="M53.8055 56.9194H51.296C50.99 56.9194 50.7419 57.1646 50.7419 57.4669V59.9468C50.7419 60.2492 50.99 60.4943 51.296 60.4943H53.8055C54.1115 60.4943 54.3595 60.2492 54.3595 59.9468V57.4669C54.3595 57.1646 54.1115 56.9194 53.8055 56.9194Z" fill="#F8A606"/>
</svg>
