<svg width="75" height="70" viewBox="0 0 75 70" fill="none" xmlns="http://www.w3.org/2000/svg">
<path d="M66.7812 31.5861C66.3555 32.0992 65.7429 32.4269 65.075 32.4988C64.4072 32.5707 63.7375 32.3811 63.2097 31.9707L38.3071 12.4813L24.5409 22.7389L21.0019 25.3354L11.2617 32.5156C10.8393 32.8527 10.3112 33.034 9.76817 33.0285C9.2394 33.0263 8.72459 32.8608 8.29595 32.5551C7.8673 32.2494 7.5463 31.8189 7.37801 31.324C7.20973 30.8291 7.20257 30.2946 7.35755 29.7954C7.51253 29.2963 7.82188 28.8576 8.24219 28.5408L16.5214 22.3863V11.4235H24.4435V16.5523L36.7487 7.35253C37.1882 7.02489 37.7239 6.84766 38.2747 6.84766C38.8254 6.84766 39.3611 7.02489 39.8006 7.35253L66.4565 28.3806C66.8905 28.7879 67.1619 29.3355 67.2215 29.9238C67.2811 30.5121 67.1248 31.1019 66.7812 31.5861Z" fill="white"/>
<path d="M45.3201 26.5537H38.5019C38.1971 26.5537 37.95 26.7977 37.95 27.0986V33.8302C37.95 34.1311 38.1971 34.3751 38.5019 34.3751H45.3201C45.6249 34.3751 45.872 34.1311 45.872 33.8302V27.0986C45.872 26.7977 45.6249 26.5537 45.3201 26.5537Z" fill="#F8A606"/>
<path d="M35.1253 26.5537H28.3071C28.0022 26.5537 27.7551 26.7977 27.7551 27.0986V33.8302C27.7551 34.1311 28.0022 34.3751 28.3071 34.3751H35.1253C35.4301 34.3751 35.6772 34.1311 35.6772 33.8302V27.0986C35.6772 26.7977 35.4301 26.5537 35.1253 26.5537Z" fill="#F8A606"/>
<path d="M45.3201 37.4199H38.5019C38.1971 37.4199 37.95 37.6639 37.95 37.9649V44.6964C37.95 44.9974 38.1971 45.2413 38.5019 45.2413H45.3201C45.6249 45.2413 45.872 44.9974 45.872 44.6964V37.9649C45.872 37.6639 45.6249 37.4199 45.3201 37.4199Z" fill="#F8A606"/>
<path d="M35.1253 37.4199H28.3071C28.0022 37.4199 27.7551 37.6639 27.7551 37.9649V44.6964C27.7551 44.9974 28.0022 45.2413 28.3071 45.2413H35.1253C35.4301 45.2413 35.6772 44.9974 35.6772 44.6964V37.9649C35.6772 37.6639 35.4301 37.4199 35.1253 37.4199Z" fill="#F8A606"/>
<path d="M44.2163 51.5244C45.2421 51.3849 46.2329 51.0589 47.1384 50.5628C48.5297 49.7585 49.6971 48.6258 50.5357 47.2663C51.3744 45.9068 51.8581 44.363 51.9435 42.7734C51.8774 42.5201 51.8634 42.2562 51.9025 41.9974C51.9415 41.7386 52.0328 41.4902 52.1708 41.2668C52.3263 41.0809 52.5275 40.9374 52.7552 40.8501C53.2856 40.6346 53.8807 40.6346 54.4111 40.8501C55.5799 41.4271 55.7098 43.1581 55.7098 43.4145C55.694 44.8131 55.3377 46.1874 54.6708 47.4214C54.3786 47.9022 54.0539 48.4471 54.2487 48.7677C54.4435 49.0882 55.028 49.0562 55.3526 49.0562C59.7033 48.8638 60.7422 49.0562 61.2293 49.6011C61.3947 49.842 61.5055 50.1154 61.5539 50.4025C61.6608 50.9786 61.545 51.5734 61.2293 52.0693C61.098 52.3039 60.9216 52.5108 60.7098 52.6784C60.8755 53.1563 60.8755 53.675 60.7098 54.1529C60.6209 54.5881 60.4067 54.9888 60.0929 55.3069C60.2048 56.049 60.1381 56.8068 59.8981 57.5187C59.712 58.0413 59.4376 58.529 59.0864 58.9611C59.0864 59.6343 58.8591 60.2434 58.7617 60.7563C58.7131 61.2329 58.5335 61.6873 58.2422 62.0705C58.0625 62.2607 57.8545 62.4229 57.6254 62.5513C54.8759 63.0109 52.0611 62.9237 49.3462 62.2949L47.1059 61.9423L43.8591 61.6217L44.2163 51.5244Z" fill="white"/>
<path d="M42.8205 52.1654V60.9806C42.8687 61.1591 42.8687 61.347 42.8205 61.5255C42.8205 61.5255 42.6257 61.7499 42.4633 61.8781C42.2935 61.9985 42.1078 62.0956 41.9114 62.1666C41.039 62.2864 40.1539 62.2864 39.2815 62.1666C38.3399 62.1666 38.2101 62.1666 37.301 62.1666C36.9338 62.2002 36.5643 62.2002 36.1971 62.1666C34.4763 61.4934 35.2555 56.5249 35.4179 52.5501C35.4298 52.2283 35.5071 51.9122 35.6452 51.6205C35.8241 51.2255 36.1037 50.8831 36.4568 50.6268C36.8087 50.3676 37.2045 50.1722 37.6257 50.0498C39.5629 50.0956 41.4139 50.8495 42.8205 52.1654Z" fill="#F8A606"/>
</svg>
