<svg width="91" height="37" viewBox="0 0 91 37" fill="none" xmlns="http://www.w3.org/2000/svg">
<g clip-path="url(#clip0_4181_3675)">
<path d="M90.4999 7.65355V11.3987H79.2636V22.7978H75.5452V11.3987H71.3799V11.3496L72.5462 7.65355H75.5452V4.71065L79.2636 3.54004V7.65355H90.4999Z" fill="white"/>
<path d="M10.6513 14.0226C11.8415 13.5924 12.8707 12.8023 13.5981 11.7605C14.3256 10.7187 14.7156 9.47592 14.715 8.20225V7.81751C14.7156 6.99927 14.5559 6.18895 14.2453 5.4329C13.9347 4.67684 13.4791 3.98988 12.9047 3.4113C12.3302 2.83272 11.6482 2.37387 10.8975 2.06099C10.1469 1.74812 9.34236 1.58735 8.52998 1.58789H0.5V22.798H4.23866V14.3991H6.54281L11.4193 22.798H15.7147L10.6513 14.0226ZM4.23866 4.82958H8.13986C8.88794 4.85784 9.59603 5.17702 10.1154 5.72008C10.6347 6.26313 10.9248 6.98779 10.9248 7.74179C10.9248 8.49579 10.6347 9.22044 10.1154 9.7635C9.59603 10.3066 8.88794 10.6257 8.13986 10.654H4.23866V4.82958Z" fill="white"/>
<path d="M32.2907 16.5035C32.3563 16.077 32.3889 15.6459 32.3883 15.2142C32.3901 14.7061 32.3439 14.199 32.2501 13.6998C31.5836 10.0161 28.5318 7.22461 24.8662 7.22461C20.709 7.22461 17.3442 10.8019 17.3442 15.2142C17.3442 19.6265 20.709 23.2039 24.8662 23.2039C26.3202 23.1853 27.7374 22.7418 28.9458 21.9273C30.1542 21.1127 31.1016 19.9622 31.673 18.6155L27.8978 17.7396C27.5776 18.2606 27.1334 18.6929 26.6055 18.9974C26.0775 19.3018 25.4826 19.4688 24.8744 19.4833C23.2123 19.4833 21.8022 18.2554 21.2739 16.5035H32.2907ZM21.2129 13.6998C21.6884 11.8538 23.1473 10.5113 24.8703 10.5113C26.5933 10.5113 28.0563 11.8538 28.5277 13.6998H21.2129Z" fill="white"/>
<path d="M42.5434 11.7469L45.4774 9.99915C45.0335 9.32093 44.4619 8.73689 43.795 8.28007C43.1906 7.87397 42.5211 7.57625 41.816 7.40007C40.8657 7.13382 39.8715 7.06558 38.8941 7.1995C38.2915 7.28148 37.7033 7.44819 37.1467 7.69477C36.7109 7.89722 36.3014 8.15291 35.9276 8.45607C35.4902 8.7942 35.1183 9.21042 34.8304 9.68398C34.6443 10.0015 34.4982 10.3411 34.3955 10.695C34.2338 11.2525 34.1787 11.8358 34.233 12.414C34.2757 12.9683 34.4424 13.5056 34.7206 13.9858C34.8609 14.2112 35.0244 14.4211 35.2083 14.612C35.7118 15.1431 36.3031 15.5821 36.9557 15.9095C37.5781 16.2332 38.2391 16.4753 38.9226 16.6299C39.3289 16.7322 39.7556 16.8386 40.1742 16.9369C40.4801 17.0036 40.7793 17.0981 41.0682 17.2193C41.3013 17.2988 41.5156 17.4255 41.6981 17.5917C41.8813 17.7799 41.9996 18.0224 42.0354 18.2835C42.0684 18.5485 42.0111 18.8169 41.8729 19.0448C41.7832 19.1931 41.6642 19.3212 41.5234 19.4213C41.3007 19.5881 41.0461 19.7066 40.7756 19.7692C40.3035 19.9075 39.8074 19.9424 39.3208 19.8716C38.8041 19.794 38.3112 19.601 37.8782 19.3067C37.5523 19.0842 37.2665 18.8074 37.0329 18.4881L33.916 19.8306C33.9796 19.9706 34.0501 20.1072 34.1273 20.2399C34.3385 20.5973 34.5923 20.9272 34.8832 21.2223C35.3986 21.7212 36.0005 22.1208 36.6591 22.4011C37.1644 22.6323 37.693 22.8079 38.2358 22.925C38.8799 23.0772 39.5419 23.1378 40.2026 23.1051C40.9748 23.0748 41.7344 22.8984 42.4418 22.5853C43.2227 22.2338 43.9166 21.7124 44.4737 21.0586C44.6922 20.81 44.8792 20.535 45.0304 20.2399C45.2949 19.6898 45.4338 19.0871 45.4368 18.4758C45.4766 18.0221 45.422 17.5649 45.2765 17.1336C45.1309 16.7022 44.8976 16.3062 44.5915 15.9709C44.1195 15.4252 43.552 14.9715 42.9172 14.6325C42.3386 14.3056 41.732 14.0316 41.1048 13.8139C41.1048 13.8139 40.3896 13.5396 39.7434 13.3636L39.463 13.29L38.9916 13.1713C38.8372 13.1262 38.7559 13.0976 38.7153 13.0812C38.6376 13.0561 38.5616 13.026 38.4877 12.9912C38.3637 12.9398 38.2441 12.8782 38.1301 12.807C38.0204 12.741 37.9239 12.6549 37.8457 12.5532C37.75 12.415 37.6912 12.2543 37.675 12.0866C37.6713 12.0212 37.6713 11.9556 37.675 11.8901C37.6763 11.8133 37.6831 11.7367 37.6953 11.6609C37.7086 11.5849 37.7262 11.5098 37.7481 11.4358C37.7703 11.3697 37.7975 11.3054 37.8294 11.2434C37.8575 11.1924 37.8887 11.1432 37.9229 11.0961C37.9501 11.0585 37.98 11.023 38.0123 10.9897C38.0123 10.9897 38.0367 10.961 38.0407 10.961C38.0744 10.9226 38.1111 10.887 38.1504 10.8546C38.2113 10.8037 38.2766 10.7585 38.3455 10.7195C38.4187 10.6745 38.4796 10.6458 38.5121 10.6295L38.6462 10.5599L38.8088 10.4985L38.9063 10.4698L39.0648 10.433C39.2314 10.3962 39.4102 10.3757 39.4183 10.3716C39.6073 10.3514 39.7973 10.3432 39.9873 10.3471C40.3444 10.3512 40.698 10.4192 41.0317 10.5476C41.2298 10.6266 41.4203 10.7239 41.6006 10.8382C41.7062 10.9037 41.7794 10.9569 41.7956 10.9692C41.9782 11.0956 42.1435 11.2456 42.2874 11.4153C42.3474 11.4826 42.403 11.5537 42.454 11.6282L42.5434 11.7469Z" fill="white"/>
<path d="M61.6189 7.64179V22.7861H57.9087V21.378C57.4236 21.9474 56.822 22.4043 56.1451 22.7173C55.4682 23.0303 54.732 23.192 53.9872 23.1913H53.8409C53.0523 23.1923 52.2713 23.0369 51.5424 22.7338C50.8135 22.4308 50.151 21.986 49.5929 21.4249C49.0347 20.8639 48.5918 20.1976 48.2894 19.4641C47.987 18.7305 47.8311 17.9442 47.8306 17.1499V7.695C47.8306 7.6798 47.8366 7.66522 47.8472 7.65448C47.8579 7.64373 47.8724 7.6377 47.8875 7.6377H51.5448V16.2085C51.5459 17.048 51.8778 17.8528 52.4675 18.446C53.0573 19.0392 53.8567 19.3725 54.6902 19.3725H54.8934C55.6942 19.3725 56.4621 19.0521 57.0284 18.4817C57.5946 17.9114 57.9127 17.1379 57.9127 16.3313V7.64179H61.6189Z" fill="white"/>
<path d="M68.8201 0H65.1221V22.7983H68.8201V0Z" fill="white"/>
<path d="M86.7574 22.7984C88.8244 22.7984 90.5001 21.1766 90.5001 19.1761C90.5001 17.1755 88.8244 15.5537 86.7574 15.5537C84.6903 15.5537 83.0146 17.1755 83.0146 19.1761C83.0146 21.1766 84.6903 22.7984 86.7574 22.7984Z" fill="#F9B807"/>
<path d="M2.28404 32.5517C2.28404 32.7113 2.28404 32.9364 2.30842 33.1984C2.30842 33.227 2.34499 33.6077 2.38969 33.8492C2.48059 34.3221 2.69844 34.761 3.01958 35.118C3.47728 35.5602 4.08805 35.8054 4.72229 35.8016C5.23805 35.7608 5.73057 35.5684 6.13874 35.2483C6.54691 34.9281 6.85275 34.4943 7.01831 34.0006C7.01593 34.4713 6.91011 34.9356 6.70846 35.3602C6.50681 35.7848 6.21433 36.1592 5.85202 36.4564C5.45363 36.7442 4.98676 36.9207 4.49878 36.9681C3.71811 37.0397 2.93956 36.81 2.32061 36.3255C1.93489 35.9999 1.63245 35.5858 1.43878 35.118C1.30859 34.8322 1.21439 34.531 1.15838 34.2216C1.03578 33.6733 1.01922 33.1063 1.10961 32.5517C1.21626 31.8531 1.51147 31.1976 1.963 30.6566C2.2231 30.3371 2.54355 30.0728 2.90579 29.8789C3.56253 29.5494 4.31324 29.4625 5.02707 29.6333C5.31424 29.6805 5.58998 29.7819 5.83982 29.9321C6.23545 30.1957 6.54615 30.5698 6.73385 31.0086C6.86077 31.284 6.94833 31.5762 6.99393 31.8763C7.03013 32.1036 7.0451 32.3338 7.03863 32.5639L2.28404 32.5517ZM4.66134 32.1014C4.81965 32.1013 4.97708 32.0778 5.12866 32.0319C5.2983 31.9987 5.4557 31.9194 5.58381 31.8026C5.66955 31.7063 5.73356 31.5924 5.77144 31.4687C5.80932 31.3451 5.82017 31.2146 5.80325 31.0864C5.77324 30.8294 5.65372 30.5916 5.46596 30.4151C5.23341 30.2172 4.95274 30.0852 4.65278 30.0327C4.35282 29.9802 4.0444 30.009 3.75918 30.1163C3.27207 30.3111 2.87587 30.6838 2.64977 31.16C2.48956 31.4485 2.38607 31.7653 2.34499 32.0932L4.66134 32.1014Z" fill="#F9B807"/>
<path d="M32.7621 32.5519C32.7621 32.7115 32.7621 32.9366 32.7864 33.1986C32.7864 33.2273 32.823 33.6079 32.8677 33.8494C32.96 34.3195 33.1778 34.7553 33.4976 35.1101C33.9553 35.5523 34.5661 35.7975 35.2003 35.7936C35.7161 35.7529 36.2086 35.5605 36.6168 35.2403C37.0249 34.9201 37.3308 34.4863 37.4963 33.9927C37.494 34.4633 37.3881 34.9276 37.1865 35.3522C36.9848 35.7768 36.6924 36.1512 36.33 36.4485C35.9317 36.7362 35.4648 36.9127 34.9768 36.9601C34.1961 37.0317 33.4176 36.802 32.7986 36.3175C32.416 35.9989 32.1138 35.5935 31.9168 35.1346C31.7866 34.8488 31.6924 34.5476 31.6364 34.2382C31.5138 33.6899 31.4973 33.1229 31.5876 32.5683C31.6943 31.8697 31.9895 31.2142 32.441 30.6732C32.7011 30.3537 33.0216 30.0894 33.3838 29.8955C34.0406 29.566 34.7913 29.4791 35.5051 29.6499C35.7923 29.6971 36.068 29.7985 36.3179 29.9487C36.7135 30.2123 37.0242 30.5864 37.2119 31.0252C37.3388 31.3006 37.4264 31.5928 37.472 31.8929C37.5082 32.1202 37.5231 32.3504 37.5167 32.5806L32.7621 32.5519ZM35.1394 32.1017C35.2977 32.1015 35.4551 32.0781 35.6067 32.0321C35.7763 31.9989 35.9337 31.9197 36.0618 31.8029C36.1476 31.7065 36.2116 31.5926 36.2495 31.4689C36.2873 31.3453 36.2982 31.2149 36.2813 31.0866C36.2513 30.8297 36.1317 30.5918 35.944 30.4153C35.7114 30.2174 35.4308 30.0854 35.1308 30.0329C34.8308 29.9804 34.5224 30.0093 34.2372 30.1165C33.7501 30.3113 33.3539 30.684 33.1278 31.1603C32.9676 31.4487 32.8641 31.7656 32.823 32.0935L35.1394 32.1017Z" fill="#F9B807"/>
<path d="M8.63161 33.8904C8.72042 34.1696 8.82628 34.443 8.94858 34.709C9.31838 35.499 9.55408 36.0147 10.0946 36.3053C10.4896 36.5126 10.9461 36.5679 11.3787 36.4608C11.5906 36.4023 11.7838 36.2895 11.9395 36.1334C12.0348 36.0332 12.1094 35.9149 12.1589 35.7855C12.2147 35.6409 12.2396 35.4861 12.2321 35.3311C12.2352 35.1101 12.1791 34.8924 12.0695 34.7008C11.9746 34.556 11.8516 34.4321 11.7079 34.3365C11.4975 34.1818 11.2697 34.0527 11.0292 33.9518C10.6228 33.7553 10.379 33.653 10.1962 33.5425C9.89186 33.4208 9.60051 33.2686 9.32651 33.0881C9.0843 32.9094 8.88444 32.6787 8.74133 32.4128C8.62003 32.1536 8.55713 31.8705 8.55713 31.584C8.55713 31.2974 8.62003 31.0143 8.74133 30.7551C9.14771 29.8546 10.1921 29.5272 10.9317 29.5559C11.426 29.5741 11.9051 29.733 12.3134 30.0143L12.992 29.5518V32.2695L12.0492 30.4522C11.7413 30.2118 11.3692 30.0693 10.9805 30.0429C10.685 30.0136 10.3873 30.0704 10.123 30.2066C9.96145 30.282 9.8216 30.3975 9.71663 30.5423C9.65049 30.6328 9.59969 30.7338 9.56627 30.8411C9.53092 30.9744 9.52127 31.1134 9.53783 31.2504C9.54795 31.3795 9.58834 31.5043 9.65567 31.6147C9.7106 31.6945 9.77782 31.7649 9.8548 31.8234C9.97151 31.9224 10.0982 32.0088 10.2327 32.0813C10.6391 32.2941 10.8748 32.4046 11.3096 32.6011C11.5813 32.7221 11.8459 32.8588 12.1021 33.0104C12.4917 33.1942 12.8276 33.4761 13.0774 33.829C13.275 34.1548 13.3725 34.5322 13.3578 34.9136C13.3537 35.2747 13.2571 35.6286 13.0774 35.941C12.4272 37.0339 10.9073 37.0052 10.7651 37.0011C10.5219 36.9869 10.2808 36.9471 10.0458 36.8824C9.81867 36.8316 9.60342 36.7371 9.41185 36.6041C9.34916 36.5606 9.29066 36.5112 9.23711 36.4567L8.61129 37.0011L8.63161 33.8904Z" fill="#F9B807"/>
<path d="M23.5781 31.7131C23.5781 31.3979 23.5781 31.2424 23.5497 31.1319C23.5424 30.793 23.4072 30.4695 23.1718 30.2273C22.9871 30.0901 22.7632 30.0168 22.5337 30.0186C22.2112 29.9759 21.8845 30.0578 21.6194 30.2478C21.4789 30.3539 21.3683 30.4949 21.2984 30.6571C21.1033 31.095 21.3471 31.3611 21.1317 31.7377C21.0585 31.8751 20.941 31.9833 20.7985 32.0446C20.692 32.0842 20.5769 32.0941 20.4653 32.0732C20.3537 32.0523 20.2498 32.0014 20.1646 31.9259C20.0671 31.8167 20.0005 31.6831 19.9719 31.5391C19.9433 31.395 19.9537 31.2459 20.002 31.1073C20.055 30.9106 20.1604 30.7323 20.3068 30.5916C20.8018 30.0821 21.4401 29.7378 22.1355 29.6052C22.5419 29.552 23.5741 29.4087 24.269 30.1414C24.6234 30.5372 24.8164 31.0532 24.8094 31.5862L24.8298 35.9371L26.1952 35.4132C25.8038 35.886 25.3743 36.3255 24.911 36.7271C24.7986 36.8344 24.6569 36.9054 24.5041 36.9309C24.3513 36.9565 24.1944 36.9354 24.0536 36.8703C23.8835 36.7533 23.75 36.5899 23.6687 36.3993C23.5873 36.2087 23.5616 35.9987 23.5944 35.7939C23.4887 35.8634 23.3221 35.974 23.123 36.1131C22.7994 36.381 22.4462 36.6103 22.0705 36.7967C21.8218 36.9045 21.5527 36.9562 21.2821 36.9481C21.0032 36.9444 20.7302 36.8667 20.4905 36.7231C20.2508 36.5794 20.0529 36.3746 19.9167 36.1295C19.698 35.7198 19.6359 35.2437 19.7419 34.7911C19.7908 34.5292 19.8917 34.28 20.0386 34.0584C20.2706 33.7388 20.576 33.4804 20.9286 33.3053C21.1926 33.1665 21.4639 33.0421 21.7413 32.9328C22.0745 32.7896 22.229 32.7323 22.5988 32.5849C22.8345 32.4908 23.1799 32.3475 23.5944 32.1756C23.5822 32.0569 23.5822 31.9014 23.5781 31.7131ZM23.5781 32.6136C23.0823 32.8018 22.676 32.9819 22.359 33.1252C21.9974 33.2593 21.6679 33.4685 21.3918 33.7392C21.2218 33.9182 21.0915 34.1317 21.0098 34.3654C20.9575 34.5363 20.9328 34.7146 20.9367 34.8934C20.9196 35.1395 20.9732 35.3853 21.0911 35.6015C21.1839 35.7699 21.3257 35.9056 21.4975 35.9903C21.608 36.0331 21.7246 36.058 21.8429 36.064C21.9779 36.0798 22.1143 36.0798 22.2493 36.064C22.7379 35.925 23.1875 35.6727 23.5619 35.3273L23.5781 32.6136Z" fill="#F9B807"/>
<path d="M16.7022 27.9961V29.797H18.2993V30.325H16.7022V35.2121C16.674 35.3497 16.6854 35.4925 16.7351 35.6238C16.7847 35.755 16.8706 35.8693 16.9826 35.953C17.1272 36.0253 17.2913 36.0483 17.45 36.0185C17.5723 36.0015 17.6907 35.9627 17.7995 35.9039C17.9705 35.8113 18.1301 35.6986 18.2749 35.5682L18.4618 35.4127C18.3887 35.5396 18.283 35.7156 18.1408 35.9161C18.0155 36.1065 17.8712 36.2834 17.71 36.4441C17.5328 36.622 17.3212 36.7613 17.0883 36.8534C17.007 36.8876 16.9226 36.9136 16.8363 36.9312C16.5571 36.9852 16.268 36.9342 16.0236 36.7879C15.8766 36.6785 15.7541 36.5393 15.6638 36.3793C15.5735 36.2193 15.5175 36.042 15.4994 35.8588C15.4828 35.7574 15.4747 35.6547 15.475 35.5519V30.3168H14.2559L16.7022 27.9961Z" fill="#F9B807"/>
<path d="M28.751 27.9961V29.797H30.3481V30.325H28.751V35.2121C28.7228 35.3497 28.7342 35.4925 28.7839 35.6238C28.8336 35.755 28.9195 35.8693 29.0314 35.953C29.176 36.0253 29.3401 36.0483 29.4988 36.0185C29.6211 36.0015 29.7395 35.9627 29.8483 35.9039C30.0186 35.8121 30.1769 35.6993 30.3197 35.5682L30.5107 35.4127C30.4375 35.5396 30.3319 35.7156 30.1896 35.9161C30.0643 36.1065 29.92 36.2834 29.7589 36.4441C29.5816 36.622 29.37 36.7613 29.1371 36.8534C29.0556 36.887 28.9713 36.913 28.8852 36.9312C28.606 36.9852 28.3168 36.9342 28.0724 36.7879C27.9255 36.6785 27.8029 36.5393 27.7126 36.3793C27.6223 36.2193 27.5663 36.042 27.5482 35.8588C27.5316 35.7574 27.5235 35.6547 27.5238 35.5519V30.3168H26.2925L28.751 27.9961Z" fill="#F9B807"/>
</g>
<defs>
<clipPath id="clip0_4181_3675">
<rect width="90" height="36.9643" fill="white" transform="translate(0.5)"/>
</clipPath>
</defs>
</svg>
