<svg width="60" height="56" viewBox="0 0 60 56" fill="none" xmlns="http://www.w3.org/2000/svg">
<g clip-path="url(#clip0_4123_66)">
<path d="M59.4481 25.1282C59.245 25.3919 58.9918 25.6123 58.7032 25.7767C58.4146 25.941 58.0964 26.046 57.767 26.0855C57.4376 26.1249 57.1037 26.0981 56.7847 26.0066C56.4658 25.9151 56.1681 25.7607 55.9091 25.5524L30.974 5.71094L17.2078 16.1538L13.6688 18.7646L3.92856 26.1072C3.5031 26.4411 2.97456 26.6143 2.43505 26.5967C2.04285 26.6061 1.65433 26.5188 1.30343 26.3425C0.952527 26.1661 0.649941 25.9061 0.422083 25.5851C0.219178 25.3233 0.0705737 25.0234 -0.0149223 24.7029C-0.100418 24.3825 -0.121072 24.048 -0.0756602 23.7194C-0.0302489 23.3907 0.0803067 23.0746 0.249456 22.7896C0.418605 22.5047 0.642893 22.2568 0.909077 22.0606L9.22078 15.7948V4.63401H17.2078V9.82281L29.513 0.456861C29.9525 0.123308 30.4882 -0.0571289 31.039 -0.0571289C31.5897 -0.0571289 32.1254 0.123308 32.5649 0.456861L59.026 21.5058C59.3018 21.7072 59.5331 21.9638 59.7054 22.2596C59.8776 22.5553 59.987 22.8837 60.0267 23.2241C60.0663 23.5644 60.0354 23.9093 59.9358 24.237C59.8362 24.5648 59.6701 24.8682 59.4481 25.1282Z" fill="white"/>
<path d="M30.0001 40.1726C27.7205 40.1726 25.4921 39.4932 23.5966 38.2202C21.7012 36.9472 20.2239 35.1379 19.3515 33.021C18.4791 30.9041 18.2509 28.5747 18.6956 26.3274C19.1403 24.0801 20.2381 22.0158 21.85 20.3956C23.4619 18.7754 25.5157 17.6721 27.7515 17.2251C29.9873 16.778 32.3048 17.0075 34.4109 17.8843C36.517 18.7611 38.3171 20.246 39.5836 22.1512C40.8501 24.0563 41.5261 26.2962 41.5261 28.5875C41.5261 31.6601 40.3117 34.6068 38.1502 36.7794C35.9886 38.9521 33.057 40.1726 30.0001 40.1726ZM30.0001 18.9931C28.1122 18.9931 26.2667 19.5558 24.6969 20.6101C23.1272 21.6643 21.9037 23.1627 21.1812 24.9159C20.4588 26.669 20.2697 28.5982 20.638 30.4593C21.0064 32.3205 21.9155 34.03 23.2504 35.3718C24.5854 36.7136 26.2862 37.6274 28.1379 37.9976C29.9895 38.3678 31.9088 38.1778 33.653 37.4516C35.3972 36.7254 36.888 35.4957 37.9369 33.9179C38.9857 32.3401 39.5455 30.4851 39.5455 28.5875C39.5455 26.0429 38.5399 23.6026 36.7497 21.8033C34.9596 20.004 32.5317 18.9931 30.0001 18.9931Z" fill="#F8A606"/>
<rect x="28" y="21.1265" width="2" height="9" rx="1" fill="#F8A606"/>
<rect x="35" y="28.1265" width="2" height="7" rx="1" transform="rotate(90 35 28.1265)" fill="#F8A606"/>
<path d="M51.6722 37.6831L20.3515 47.11C19.2865 47.4306 18.6816 48.5582 19.0005 49.6287L20.4814 54.5995C20.8003 55.6699 21.9222 56.2779 22.9872 55.9573L54.308 46.5304C55.373 46.2099 55.9778 45.0822 55.6589 44.0118L54.178 39.041C53.8591 37.9705 52.7372 37.3626 51.6722 37.6831Z" fill="#F8A606"/>
<path d="M22.8571 53.3568L21.6558 49.4081L25.1298 48.3638L26.3311 52.3778L25.3895 52.6715L24.448 49.4081L22.8895 49.8976L23.7986 53.161L22.8571 53.3568Z" fill="white"/>
<path d="M27.2728 52.0186L26.0715 48.0046L27.6949 47.5151C27.9728 47.452 28.2612 47.452 28.5391 47.5151C28.7899 47.5443 29.0269 47.6463 29.2209 47.8088C29.4233 47.9734 29.5613 48.2046 29.6105 48.4615C29.6924 48.7161 29.6924 48.9901 29.6105 49.2447C29.5436 49.476 29.4076 49.6811 29.2209 49.8321C29.0007 50.0371 28.7328 50.183 28.4417 50.2563L27.7923 50.4522L28.2144 51.8228L27.2728 52.0186ZM27.5975 49.5711L28.1819 49.4079C28.3543 49.3642 28.5115 49.2739 28.6365 49.1468C28.6764 49.0773 28.6974 48.9986 28.6974 48.9184C28.6974 48.8382 28.6764 48.7594 28.6365 48.6899C28.6277 48.608 28.5954 48.5305 28.5435 48.4667C28.4916 48.403 28.4224 48.3558 28.3443 48.3309C28.1852 48.2847 28.0163 48.2847 27.8573 48.3309H27.2404L27.5975 49.5711Z" fill="white"/>
<path d="M32.9545 50.4194C32.6548 50.4837 32.345 50.4837 32.0454 50.4194C31.7583 50.397 31.4804 50.3076 31.2337 50.1583C30.993 50.0311 30.7825 49.853 30.6168 49.6362C30.4263 49.4055 30.2829 49.1393 30.1947 48.853C30.1314 48.5627 30.1314 48.2621 30.1947 47.9718C30.2318 47.6967 30.3199 47.4311 30.4545 47.1887C30.5924 46.9356 30.7802 46.7135 31.0064 46.5359C31.2434 46.3374 31.5203 46.1928 31.8181 46.1117C32.1069 46.048 32.4059 46.048 32.6947 46.1117C32.9798 46.1441 33.2556 46.2328 33.5064 46.3728C33.7621 46.4909 33.985 46.6701 34.1558 46.8949C34.3462 47.1256 34.4896 47.3918 34.5778 47.6781C34.6263 47.9698 34.6263 48.2676 34.5778 48.5593C34.5516 48.8324 34.4745 49.098 34.3506 49.3425C34.2027 49.5884 34.0163 49.8088 33.7986 49.9951C33.5521 50.1978 33.2637 50.3428 32.9545 50.4194ZM32.6947 49.5056C32.8476 49.4731 32.9913 49.4063 33.115 49.3103C33.2386 49.2142 33.3391 49.0914 33.409 48.9509C33.4415 48.8003 33.4415 48.6445 33.409 48.494C33.4387 48.3212 33.4387 48.1446 33.409 47.9718C33.3408 47.7562 33.2304 47.5565 33.0843 47.3844C32.931 47.239 32.7415 47.138 32.5357 47.092C32.33 47.0461 32.1156 47.0569 31.9155 47.1234C31.7594 47.1476 31.6131 47.2155 31.4934 47.3192C31.3697 47.4145 31.2696 47.5374 31.2012 47.6781C31.154 47.8267 31.154 47.9864 31.2012 48.135C31.1558 48.3061 31.1558 48.4861 31.2012 48.6572C31.2421 48.8836 31.3562 49.0901 31.5259 49.2446C31.6696 49.4049 31.8651 49.5089 32.0779 49.5383C32.2921 49.5623 32.5083 49.5165 32.6947 49.4077V49.5056Z" fill="white"/>
<path d="M39.026 47.5476L38.0844 44.2842L34.8376 45.2306L35.1948 46.3728C35.2872 46.695 35.363 47.0217 35.4221 47.3518C35.4493 47.5576 35.4493 47.7661 35.4221 47.9718C35.4404 48.1127 35.4404 48.2553 35.4221 48.3961L35.0324 48.6898L35.5844 50.5173L36.4935 50.2236L36.2013 49.212L38.9285 48.3961L39.2208 49.4077H40.2597L39.6753 47.515L39.026 47.5476ZM36.5584 48.2982C36.6063 48.0065 36.6063 47.7088 36.5584 47.4171C36.4962 47.0068 36.3985 46.6028 36.2662 46.2096V45.9159L37.4675 45.557L38.1493 47.8413L36.5584 48.2982Z" fill="white"/>
<path d="M40.0649 48.1678L40.3896 43.697L41.461 43.3706L44.1883 46.9278L43.1169 47.2541L42.5974 46.5361L41.1688 46.9604V47.8741L40.0649 48.1678ZM41.1364 46.1119L42.1429 45.8182L41.2013 44.5781L41.1364 46.1119Z" fill="white"/>
<path d="M44.6754 46.7973L43.5066 42.8812L44.4482 42.5875L44.9027 44.0887L46.4936 43.5992L46.0391 42.098L46.9806 41.8369L48.1819 45.8509L47.2404 46.1446L46.7533 44.4803L45.1624 44.9372L45.6495 46.6015L44.6754 46.7973Z" fill="white"/>
<path d="M51.0065 44.9698C50.7068 45.0341 50.397 45.0341 50.0974 44.9698C49.8153 44.9437 49.5402 44.8663 49.2857 44.7414C49.0479 44.596 48.8296 44.4205 48.6364 44.2192C48.4683 43.9792 48.3369 43.7152 48.2467 43.436C48.1834 43.1457 48.1834 42.8451 48.2467 42.5548C48.2836 42.2694 48.3716 41.9929 48.5065 41.739C48.653 41.492 48.8395 41.2714 49.0584 41.0863C49.3052 40.911 49.5796 40.7786 49.8701 40.6947C50.1589 40.6311 50.458 40.6311 50.7467 40.6947C51.0297 40.7161 51.3056 40.7937 51.5584 40.9231C51.8163 41.0527 52.039 41.2431 52.2078 41.478C52.404 41.6922 52.5485 41.949 52.6298 42.2285C52.6783 42.5202 52.6783 42.818 52.6298 43.1097C52.6039 43.3932 52.5269 43.6697 52.4026 43.9255C52.2462 44.1652 52.0608 44.3845 51.8506 44.5782C51.5939 44.7569 51.3083 44.8894 51.0065 44.9698ZM50.7467 44.0886L51.1688 43.8602C51.3 43.773 51.4019 43.6478 51.461 43.5013C51.4981 43.3513 51.4981 43.1944 51.461 43.0444C51.4907 42.8716 51.4907 42.695 51.461 42.5222C51.3928 42.3066 51.2824 42.1069 51.1363 41.9348C50.9706 41.8057 50.7839 41.7063 50.5844 41.6411C50.3816 41.5925 50.1703 41.5925 49.9675 41.6411C49.8139 41.6903 49.6708 41.7677 49.5454 41.8696C49.4217 41.9649 49.3216 42.0877 49.2532 42.2285C49.2012 42.3763 49.2012 42.5376 49.2532 42.6854C49.2078 42.8565 49.2078 43.0365 49.2532 43.2076C49.3086 43.4285 49.4205 43.631 49.5779 43.795C49.732 43.9236 49.908 44.0231 50.0974 44.0886C50.3111 44.1376 50.533 44.1376 50.7467 44.0886Z" fill="white"/>
<path d="M37.013 37.1701V37.529C37.0899 38.1191 36.9639 38.7178 36.6559 39.226C36.3479 39.7541 35.847 40.1405 35.2598 40.303C34.9724 40.4001 34.6679 40.4357 34.366 40.4076C34.0641 40.3795 33.7713 40.2883 33.5065 40.1398C32.9659 39.9085 32.5353 39.4757 32.3053 38.9323C32.2923 38.8239 32.2923 38.7144 32.3053 38.606C32.2115 38.2931 32.1799 37.9647 32.2123 37.6396C32.2448 37.3145 32.3406 36.999 32.4944 36.7111C32.6481 36.4233 32.8568 36.1686 33.1084 35.9618C33.3601 35.755 33.6498 35.6 33.9611 35.5057C34.2723 35.4115 34.599 35.3797 34.9225 35.4123C35.2459 35.4449 35.5598 35.5413 35.8462 35.6958C36.1326 35.8504 36.386 36.0601 36.5917 36.313C36.7975 36.566 36.9517 36.8572 37.0455 37.1701H37.013Z" fill="white"/>
<path d="M37.013 37.1701V37.529C37.0899 38.1191 36.9639 38.7178 36.6559 39.226C36.3479 39.7541 35.847 40.1405 35.2598 40.303C34.9724 40.4001 34.6679 40.4357 34.366 40.4076C34.0641 40.3795 33.7713 40.2883 33.5065 40.1398C32.9659 39.9085 32.5353 39.4757 32.3053 38.9323C32.2923 38.8239 32.2923 38.7144 32.3053 38.606C32.2115 38.2931 32.1799 37.9647 32.2123 37.6396C32.2448 37.3145 32.3406 36.999 32.4944 36.7111C32.6481 36.4233 32.8568 36.1686 33.1084 35.9618C33.3601 35.755 33.6498 35.6 33.9611 35.5057C34.2723 35.4115 34.599 35.3797 34.9225 35.4123C35.2459 35.4449 35.5598 35.5413 35.8462 35.6958C36.1326 35.8504 36.386 36.0601 36.5917 36.313C36.7975 36.566 36.9517 36.8572 37.0455 37.1701H37.013Z" fill="white"/>
<path d="M31.8831 40.042C32.2143 40.5095 32.6622 40.881 33.1818 41.1189L30.5195 46.1445C30.4685 46.239 30.3995 46.3224 30.3163 46.39C30.2332 46.4576 30.1376 46.508 30.035 46.5383C29.9324 46.5686 29.8249 46.5783 29.7186 46.5667C29.6123 46.5551 29.5093 46.5226 29.4156 46.4709C29.2263 46.3669 29.0837 46.1939 29.0173 45.9875C28.9509 45.7812 28.9656 45.5571 29.0584 45.3613L31.8831 40.042Z" fill="#F8A606"/>
<path d="M43.8961 42.0977C43.8514 42.191 43.7878 42.2739 43.7096 42.3413C43.6314 42.4087 43.5401 42.4591 43.4416 42.4894C43.2325 42.5697 43.0013 42.5697 42.7922 42.4894L37.8247 39.6175C38.1165 39.1234 38.2733 38.5605 38.2793 37.9858L43.5714 40.8577C43.6841 40.9068 43.7843 40.981 43.8643 41.0747C43.9443 41.1683 44.0021 41.279 44.0333 41.3984C44.0646 41.5178 44.0685 41.6428 44.0447 41.7639C44.021 41.8851 43.9702 41.9992 43.8961 42.0977Z" fill="#F8A606"/>
<path d="M34.7403 40.1072C35.9596 40.1072 36.9481 39.1136 36.9481 37.8881C36.9481 36.6625 35.9596 35.6689 34.7403 35.6689C33.5209 35.6689 32.5325 36.6625 32.5325 37.8881C32.5325 39.1136 33.5209 40.1072 34.7403 40.1072Z" fill="white"/>
<path d="M35.4546 40.3028C35.1309 40.4135 34.7882 40.4571 34.4472 40.4311C34.1063 40.4051 33.7741 40.3099 33.4707 40.1514C33.1673 39.9928 32.899 39.7741 32.6819 39.5085C32.4649 39.2429 32.3036 38.9358 32.2079 38.6059C32.0779 38.1343 32.0878 37.6348 32.2363 37.1688C32.3848 36.7027 32.6654 36.2904 33.0438 35.9824C33.4221 35.6744 33.8817 35.4842 34.3661 35.4351C34.8505 35.3859 35.3386 35.48 35.7706 35.7058C36.2025 35.9315 36.5595 36.2792 36.7977 36.706C37.0358 37.1328 37.1448 37.6202 37.1112 38.1083C37.0777 38.5965 36.9031 39.0642 36.6088 39.4541C36.3145 39.8439 35.9134 40.1389 35.4546 40.3028ZM34.1884 36.0277C33.6941 36.1719 33.2767 36.5068 33.0273 36.9593C32.7779 37.4117 32.7168 37.945 32.8572 38.4427C33.0036 38.9447 33.3424 39.3677 33.7991 39.6186C34.2557 39.8695 34.7929 39.9278 35.2923 39.7807C35.7917 39.6335 36.2126 39.293 36.4622 38.834C36.7118 38.375 36.7698 37.8351 36.6235 37.3331C36.5492 37.0865 36.4273 36.857 36.2646 36.6578C36.102 36.4586 35.9018 36.2936 35.6756 36.1723C35.4493 36.051 35.2015 35.9758 34.9463 35.951C34.6911 35.9262 34.4336 35.9523 34.1884 36.0277Z" fill="#F8A606"/>
</g>
<defs>
<clipPath id="clip0_4123_66">
<rect width="60" height="56" fill="white"/>
</clipPath>
</defs>
</svg>
