<svg width="95" height="40" viewBox="0 0 95 40" fill="none" xmlns="http://www.w3.org/2000/svg">
<path d="M90.4999 9.15355V12.8987H79.2636V24.2978H75.5452V12.8987H71.3799V12.8496L72.5462 9.15355H75.5452V6.21065L79.2636 5.04004V9.15355H90.4999Z" fill="#1E1E1E"/>
<path d="M10.6513 15.5226C11.8415 15.0924 12.8707 14.3023 13.5981 13.2605C14.3256 12.2187 14.7156 10.9759 14.715 9.70225V9.31751C14.7156 8.49927 14.5559 7.68895 14.2453 6.9329C13.9347 6.17684 13.4791 5.48988 12.9047 4.9113C12.3302 4.33272 11.6482 3.87387 10.8975 3.56099C10.1469 3.24812 9.34236 3.08735 8.52998 3.08789H0.5V24.298H4.23866V15.8991H6.54281L11.4193 24.298H15.7147L10.6513 15.5226ZM4.23866 6.32958H8.13986C8.88794 6.35784 9.59603 6.67702 10.1154 7.22008C10.6347 7.76313 10.9248 8.48779 10.9248 9.24179C10.9248 9.99579 10.6347 10.7204 10.1154 11.2635C9.59603 11.8066 8.88794 12.1257 8.13986 12.154H4.23866V6.32958Z" fill="#1E1E1E"/>
<path d="M32.2902 18.0035C32.3558 17.577 32.3884 17.1459 32.3878 16.7142C32.3897 16.2061 32.3434 15.699 32.2496 15.1998C31.5831 11.5161 28.5313 8.72461 24.8658 8.72461C20.7085 8.72461 17.3438 12.3019 17.3438 16.7142C17.3438 21.1265 20.7085 24.7039 24.8658 24.7039C26.3197 24.6853 27.7369 24.2418 28.9453 23.4273C30.1537 22.6127 31.1011 21.4622 31.6726 20.1155L27.8973 19.2396C27.5771 19.7606 27.1329 20.1929 26.605 20.4974C26.0771 20.8018 25.4821 20.9688 24.8739 20.9833C23.2118 20.9833 21.8017 19.7554 21.2734 18.0035H32.2902ZM21.2124 15.1998C21.6879 13.3538 23.1468 12.0113 24.8698 12.0113C26.5929 12.0113 28.0558 13.3538 28.5272 15.1998H21.2124Z" fill="#1E1E1E"/>
<path d="M42.5434 13.2469L45.4774 11.4992C45.0335 10.8209 44.4619 10.2369 43.795 9.78007C43.1906 9.37397 42.5211 9.07625 41.816 8.90007C40.8657 8.63382 39.8715 8.56558 38.8941 8.6995C38.2915 8.78148 37.7033 8.94819 37.1467 9.19477C36.7109 9.39722 36.3014 9.65291 35.9276 9.95607C35.4902 10.2942 35.1183 10.7104 34.8304 11.184C34.6443 11.5015 34.4982 11.8411 34.3955 12.195C34.2338 12.7525 34.1787 13.3358 34.233 13.914C34.2757 14.4683 34.4424 15.0056 34.7206 15.4858C34.8609 15.7112 35.0244 15.9211 35.2083 16.112C35.7118 16.6431 36.3031 17.0821 36.9557 17.4095C37.5781 17.7332 38.2391 17.9753 38.9226 18.1299C39.3289 18.2322 39.7556 18.3386 40.1742 18.4369C40.4801 18.5036 40.7793 18.5981 41.0682 18.7193C41.3013 18.7988 41.5156 18.9255 41.6981 19.0917C41.8813 19.2799 41.9996 19.5224 42.0354 19.7835C42.0684 20.0485 42.0111 20.3169 41.8729 20.5448C41.7832 20.6931 41.6642 20.8212 41.5234 20.9213C41.3007 21.0881 41.0461 21.2066 40.7756 21.2692C40.3035 21.4075 39.8074 21.4424 39.3208 21.3716C38.8041 21.294 38.3112 21.101 37.8782 20.8067C37.5523 20.5842 37.2665 20.3074 37.0329 19.9881L33.916 21.3306C33.9796 21.4706 34.0501 21.6072 34.1273 21.7399C34.3385 22.0973 34.5923 22.4272 34.8832 22.7223C35.3986 23.2212 36.0005 23.6208 36.6591 23.9011C37.1644 24.1323 37.693 24.3079 38.2358 24.425C38.8799 24.5772 39.5419 24.6378 40.2026 24.6051C40.9748 24.5748 41.7344 24.3984 42.4418 24.0853C43.2227 23.7338 43.9166 23.2124 44.4737 22.5586C44.6922 22.31 44.8792 22.035 45.0304 21.7399C45.2949 21.1898 45.4338 20.5871 45.4368 19.9758C45.4766 19.5221 45.422 19.0649 45.2765 18.6336C45.1309 18.2022 44.8976 17.8062 44.5915 17.4709C44.1195 16.9252 43.552 16.4715 42.9172 16.1325C42.3386 15.8056 41.732 15.5316 41.1048 15.3139C41.1048 15.3139 40.3896 15.0396 39.7434 14.8636L39.463 14.79L38.9916 14.6713C38.8372 14.6262 38.7559 14.5976 38.7153 14.5812C38.6376 14.5561 38.5616 14.526 38.4877 14.4912C38.3637 14.4398 38.2441 14.3782 38.1301 14.307C38.0204 14.241 37.9239 14.1549 37.8457 14.0532C37.75 13.915 37.6912 13.7543 37.675 13.5866C37.6713 13.5212 37.6713 13.4556 37.675 13.3901C37.6763 13.3133 37.6831 13.2367 37.6953 13.1609C37.7086 13.0849 37.7262 13.0098 37.7481 12.9358C37.7703 12.8697 37.7975 12.8054 37.8294 12.7434C37.8575 12.6924 37.8887 12.6432 37.9229 12.5961C37.9501 12.5585 37.98 12.523 38.0123 12.4897C38.0123 12.4897 38.0367 12.461 38.0407 12.461C38.0744 12.4226 38.1111 12.387 38.1504 12.3546C38.2113 12.3037 38.2766 12.2585 38.3455 12.2195C38.4187 12.1745 38.4796 12.1458 38.5121 12.1295L38.6462 12.0599L38.8088 11.9985L38.9063 11.9698L39.0648 11.933C39.2314 11.8962 39.4102 11.8757 39.4183 11.8716C39.6073 11.8514 39.7973 11.8432 39.9873 11.8471C40.3444 11.8512 40.698 11.9192 41.0317 12.0476C41.2298 12.1266 41.4203 12.2239 41.6006 12.3382C41.7062 12.4037 41.7794 12.4569 41.7956 12.4692C41.9782 12.5956 42.1435 12.7456 42.2874 12.9153C42.3474 12.9826 42.403 13.0537 42.454 13.1282L42.5434 13.2469Z" fill="#1E1E1E"/>
<path d="M61.6184 9.14179V24.2861H57.9082V22.878C57.4232 23.4474 56.8215 23.9043 56.1446 24.2173C55.4677 24.5303 54.7315 24.692 53.9867 24.6913H53.8404C53.0518 24.6923 52.2708 24.5369 51.5419 24.2338C50.813 23.9308 50.1505 23.486 49.5924 22.9249C49.0342 22.3639 48.5913 21.6976 48.2889 20.9641C47.9865 20.2305 47.8306 19.4442 47.8301 18.6499V9.195C47.8301 9.1798 47.8361 9.16522 47.8467 9.15448C47.8574 9.14373 47.8719 9.1377 47.887 9.1377H51.5444V17.7085C51.5454 18.548 51.8773 19.3528 52.467 19.946C53.0568 20.5392 53.8562 20.8725 54.6897 20.8725H54.8929C55.6937 20.8725 56.4617 20.5521 57.0279 19.9817C57.5941 19.4114 57.9123 18.6379 57.9123 17.8313V9.14179H61.6184Z" fill="#1E1E1E"/>
<path d="M68.8201 1.5H65.1221V24.2983H68.8201V1.5Z" fill="#1E1E1E"/>
<path d="M86.7574 24.2984C88.8244 24.2984 90.5001 22.6766 90.5001 20.6761C90.5001 18.6755 88.8244 17.0537 86.7574 17.0537C84.6903 17.0537 83.0146 18.6755 83.0146 20.6761C83.0146 22.6766 84.6903 24.2984 86.7574 24.2984Z" fill="#F9B807"/>
<path d="M2.28452 34.0517C2.28452 34.2113 2.28453 34.4364 2.30891 34.6984C2.30891 34.727 2.34548 35.1077 2.39018 35.3492C2.48108 35.8221 2.69893 36.261 3.02007 36.618C3.47777 37.0602 4.08854 37.3054 4.72278 37.3016C5.23853 37.2608 5.73106 37.0684 6.13923 36.7483C6.5474 36.4281 6.85324 35.9943 7.0188 35.5006C7.01642 35.9713 6.9106 36.4356 6.70895 36.8602C6.5073 37.2848 6.21482 37.6592 5.8525 37.9564C5.45412 38.2442 4.98725 38.4207 4.49927 38.4681C3.71859 38.5397 2.94005 38.31 2.3211 37.8255C1.93537 37.4999 1.63294 37.0858 1.43926 36.618C1.30908 36.3322 1.21488 36.031 1.15886 35.7216C1.03627 35.1733 1.01971 34.6063 1.1101 34.0517C1.21674 33.3531 1.51196 32.6976 1.96349 32.1566C2.22359 31.8371 2.54404 31.5728 2.90628 31.3789C3.56301 31.0494 4.31373 30.9625 5.02756 31.1333C5.31473 31.1805 5.59047 31.2819 5.84031 31.4321C6.23594 31.6957 6.54664 32.0698 6.73434 32.5086C6.86125 32.784 6.94882 33.0762 6.99442 33.3763C7.03062 33.6036 7.04558 33.8338 7.03912 34.0639L2.28452 34.0517ZM4.66182 33.6014C4.82013 33.6013 4.97757 33.5778 5.12915 33.5319C5.29879 33.4987 5.45619 33.4194 5.58429 33.3026C5.67003 33.2063 5.73404 33.0924 5.77192 32.9687C5.8098 32.8451 5.82066 32.7146 5.80374 32.5864C5.77373 32.3294 5.65421 32.0916 5.46645 31.9151C5.2339 31.7172 4.95323 31.5852 4.65327 31.5327C4.35331 31.4802 4.04488 31.509 3.75967 31.6163C3.27255 31.8111 2.87636 32.1838 2.65026 32.66C2.49004 32.9485 2.38656 33.2653 2.34548 33.5932L4.66182 33.6014Z" fill="#F9B807"/>
<path d="M32.7621 34.0519C32.7621 34.2115 32.7621 34.4366 32.7864 34.6986C32.7864 34.7273 32.823 35.1079 32.8677 35.3494C32.96 35.8195 33.1778 36.2553 33.4976 36.6101C33.9553 37.0523 34.5661 37.2975 35.2003 37.2936C35.7161 37.2529 36.2086 37.0605 36.6168 36.7403C37.0249 36.4201 37.3308 35.9863 37.4963 35.4927C37.494 35.9633 37.3881 36.4276 37.1865 36.8522C36.9848 37.2768 36.6924 37.6512 36.33 37.9485C35.9317 38.2362 35.4648 38.4127 34.9768 38.4601C34.1961 38.5317 33.4176 38.302 32.7986 37.8175C32.416 37.4989 32.1138 37.0935 31.9168 36.6346C31.7866 36.3488 31.6924 36.0476 31.6364 35.7382C31.5138 35.1899 31.4973 34.6229 31.5876 34.0683C31.6943 33.3697 31.9895 32.7142 32.441 32.1732C32.7011 31.8537 33.0216 31.5894 33.3838 31.3955C34.0406 31.066 34.7913 30.9791 35.5051 31.1499C35.7923 31.1971 36.068 31.2985 36.3179 31.4487C36.7135 31.7123 37.0242 32.0864 37.2119 32.5252C37.3388 32.8006 37.4264 33.0928 37.472 33.3929C37.5082 33.6202 37.5231 33.8504 37.5167 34.0806L32.7621 34.0519ZM35.1394 33.6017C35.2977 33.6015 35.4551 33.5781 35.6067 33.5321C35.7763 33.4989 35.9337 33.4197 36.0618 33.3029C36.1476 33.2065 36.2116 33.0926 36.2495 32.9689C36.2873 32.8453 36.2982 32.7149 36.2813 32.5866C36.2513 32.3297 36.1317 32.0918 35.944 31.9153C35.7114 31.7174 35.4308 31.5854 35.1308 31.5329C34.8308 31.4804 34.5224 31.5093 34.2372 31.6165C33.7501 31.8113 33.3539 32.184 33.1278 32.6603C32.9676 32.9487 32.8641 33.2656 32.823 33.5935L35.1394 33.6017Z" fill="#F9B807"/>
<path d="M8.63112 35.3904C8.71993 35.6696 8.82579 35.943 8.94809 36.209C9.31789 36.999 9.55359 37.5147 10.0941 37.8053C10.4891 38.0126 10.9456 38.0679 11.3782 37.9608C11.5901 37.9023 11.7833 37.7895 11.939 37.6334C12.0343 37.5332 12.1089 37.4149 12.1585 37.2855C12.2142 37.1409 12.2392 36.9861 12.2316 36.8311C12.2347 36.6101 12.1786 36.3924 12.0691 36.2008C11.9741 36.056 11.8511 35.9321 11.7074 35.8365C11.497 35.6818 11.2692 35.5527 11.0287 35.4518C10.6224 35.2553 10.3785 35.153 10.1957 35.0425C9.89138 34.9208 9.60003 34.7686 9.32602 34.5881C9.08381 34.4094 8.88396 34.1787 8.74084 33.9128C8.61954 33.6536 8.55664 33.3705 8.55664 33.084C8.55664 32.7974 8.61954 32.5143 8.74084 32.2551C9.14722 31.3546 10.1916 31.0272 10.9312 31.0559C11.4255 31.0741 11.9046 31.233 12.3129 31.5143L12.9915 31.0518V33.7695L12.0487 31.9522C11.7408 31.7118 11.3687 31.5693 10.98 31.5429C10.6845 31.5136 10.3868 31.5704 10.1225 31.7066C9.96096 31.782 9.82111 31.8975 9.71614 32.0423C9.65 32.1328 9.5992 32.2338 9.56578 32.3411C9.53043 32.4744 9.52078 32.6134 9.53734 32.7504C9.54746 32.8795 9.58785 33.0043 9.65519 33.1147C9.71011 33.1945 9.77733 33.2649 9.85431 33.3234C9.97103 33.4224 10.0977 33.5088 10.2322 33.5813C10.6386 33.7941 10.8743 33.9046 11.3091 34.1011C11.5808 34.2221 11.8454 34.3588 12.1016 34.5104C12.4912 34.6942 12.8271 34.9761 13.0769 35.329C13.2745 35.6548 13.372 36.0322 13.3573 36.4136C13.3532 36.7747 13.2566 37.1286 13.0769 37.441C12.4267 38.5339 10.9068 38.5052 10.7646 38.5011C10.5214 38.4869 10.2803 38.4471 10.0453 38.3824C9.81818 38.3316 9.60293 38.2371 9.41136 38.1041C9.34867 38.0606 9.29017 38.0112 9.23662 37.9567L8.6108 38.5011L8.63112 35.3904Z" fill="#F9B807"/>
<path d="M23.5781 33.2131C23.5781 32.8979 23.5781 32.7424 23.5497 32.6319C23.5424 32.293 23.4072 31.9695 23.1718 31.7273C22.9871 31.5901 22.7632 31.5168 22.5337 31.5186C22.2112 31.4759 21.8845 31.5578 21.6194 31.7478C21.4789 31.8539 21.3683 31.9949 21.2984 32.1571C21.1033 32.595 21.3471 32.8611 21.1317 33.2377C21.0585 33.3751 20.941 33.4833 20.7985 33.5446C20.692 33.5842 20.5769 33.5941 20.4653 33.5732C20.3537 33.5523 20.2498 33.5014 20.1646 33.4259C20.0671 33.3167 20.0005 33.1831 19.9719 33.0391C19.9433 32.895 19.9537 32.7459 20.002 32.6073C20.055 32.4106 20.1604 32.2323 20.3068 32.0916C20.8018 31.5821 21.4401 31.2378 22.1355 31.1052C22.5419 31.052 23.5741 30.9087 24.269 31.6414C24.6234 32.0372 24.8164 32.5532 24.8094 33.0862L24.8298 37.4371L26.1952 36.9132C25.8038 37.386 25.3743 37.8255 24.911 38.2271C24.7986 38.3344 24.6569 38.4054 24.5041 38.4309C24.3513 38.4565 24.1944 38.4354 24.0536 38.3703C23.8835 38.2533 23.75 38.0899 23.6687 37.8993C23.5873 37.7087 23.5616 37.4987 23.5944 37.2939C23.4887 37.3634 23.3221 37.474 23.123 37.6131C22.7994 37.881 22.4462 38.1103 22.0705 38.2967C21.8218 38.4045 21.5527 38.4562 21.2821 38.4481C21.0032 38.4444 20.7302 38.3667 20.4905 38.2231C20.2508 38.0794 20.0529 37.8746 19.9167 37.6295C19.698 37.2198 19.6359 36.7437 19.7419 36.2911C19.7908 36.0292 19.8917 35.78 20.0386 35.5584C20.2706 35.2388 20.576 34.9804 20.9286 34.8053C21.1926 34.6665 21.4639 34.5421 21.7413 34.4328C22.0745 34.2896 22.229 34.2323 22.5988 34.0849C22.8345 33.9908 23.1799 33.8475 23.5944 33.6756C23.5822 33.5569 23.5822 33.4014 23.5781 33.2131ZM23.5781 34.1136C23.0823 34.3018 22.676 34.4819 22.359 34.6252C21.9974 34.7593 21.6679 34.9685 21.3918 35.2392C21.2218 35.4182 21.0915 35.6317 21.0098 35.8654C20.9575 36.0363 20.9328 36.2146 20.9367 36.3934C20.9196 36.6395 20.9732 36.8853 21.0911 37.1015C21.1839 37.2699 21.3257 37.4056 21.4975 37.4903C21.608 37.5331 21.7246 37.558 21.8429 37.564C21.9779 37.5798 22.1143 37.5798 22.2493 37.564C22.7379 37.425 23.1875 37.1727 23.5619 36.8273L23.5781 34.1136Z" fill="#F9B807"/>
<path d="M16.7022 29.4961V31.297H18.2993V31.825H16.7022V36.7121C16.674 36.8497 16.6854 36.9925 16.7351 37.1238C16.7847 37.255 16.8706 37.3693 16.9826 37.453C17.1272 37.5253 17.2913 37.5483 17.45 37.5185C17.5723 37.5015 17.6907 37.4627 17.7995 37.4039C17.9705 37.3113 18.1301 37.1986 18.2749 37.0682L18.4618 36.9127C18.3887 37.0396 18.283 37.2156 18.1408 37.4161C18.0155 37.6065 17.8712 37.7834 17.71 37.9441C17.5328 38.122 17.3212 38.2613 17.0883 38.3534C17.007 38.3876 16.9226 38.4136 16.8363 38.4312C16.5571 38.4852 16.268 38.4342 16.0236 38.2879C15.8766 38.1785 15.7541 38.0393 15.6638 37.8793C15.5735 37.7193 15.5175 37.542 15.4994 37.3588C15.4828 37.2574 15.4747 37.1547 15.475 37.0519V31.8168H14.2559L16.7022 29.4961Z" fill="#F9B807"/>
<path d="M28.7515 29.4961V31.297H30.3486V31.825H28.7515V36.7121C28.7233 36.8497 28.7347 36.9925 28.7844 37.1238C28.834 37.255 28.9199 37.3693 29.0319 37.453C29.1765 37.5253 29.3406 37.5483 29.4993 37.5185C29.6216 37.5015 29.74 37.4627 29.8488 37.4039C30.0191 37.3121 30.1774 37.1993 30.3201 37.0682L30.5111 36.9127C30.438 37.0396 30.3323 37.2156 30.1901 37.4161C30.0648 37.6065 29.9205 37.7834 29.7594 37.9441C29.5821 38.122 29.3705 38.2613 29.1376 38.3534C29.0561 38.387 28.9718 38.413 28.8856 38.4312C28.6064 38.4852 28.3173 38.4342 28.0729 38.2879C27.9259 38.1785 27.8034 38.0393 27.7131 37.8793C27.6228 37.7193 27.5668 37.542 27.5487 37.3588C27.5321 37.2574 27.524 37.1547 27.5243 37.0519V31.8168H26.293L28.7515 29.4961Z" fill="#F9B807"/>
</svg>
