<svg width="155" height="62" viewBox="0 0 155 62" fill="none" xmlns="http://www.w3.org/2000/svg">
<path d="M154.593 12.7698V19.0186H135.343V38.0378H128.973V19.0186H121.837V18.9366L123.835 12.7698H128.973V7.85966L135.343 5.90651V12.7698H154.593Z" fill="white"/>
<path d="M17.7979 23.3967C19.837 22.679 21.6002 21.3608 22.8464 19.6225C24.0926 17.8842 24.7609 15.8107 24.7598 13.6856V13.0437C24.7607 11.6785 24.4873 10.3265 23.9551 9.06499C23.4229 7.80352 22.6425 6.65733 21.6584 5.69198C20.6742 4.72663 19.5058 3.96104 18.2198 3.43901C16.9338 2.91698 15.5555 2.64875 14.1638 2.64965H0.406975V38.0385H6.81196V24.025H10.7594L19.1137 38.0385H26.4725L17.7979 23.3967ZM6.81196 8.05837H13.4954C14.777 8.1055 15.9901 8.63806 16.8798 9.54414C17.7695 10.4502 18.2666 11.6593 18.2666 12.9173C18.2666 14.1754 17.7695 15.3845 16.8798 16.2905C15.9901 17.1966 14.777 17.7292 13.4954 17.7763H6.81196V8.05837Z" fill="white"/>
<path d="M54.8702 27.5359C54.9825 26.8242 55.0383 26.105 55.0373 25.3847C55.0405 24.537 54.9612 23.6909 54.8005 22.8579C53.6588 16.7117 48.4304 12.0542 42.1507 12.0542C35.0286 12.0542 29.2642 18.0229 29.2642 25.3847C29.2642 32.7466 35.0286 38.7153 42.1507 38.7153C44.6415 38.6844 47.0695 37.9444 49.1397 36.5854C51.2098 35.2263 52.833 33.3067 53.812 31.0598L47.3443 29.5983C46.7957 30.4676 46.0347 31.1888 45.1303 31.6968C44.2259 32.2048 43.2065 32.4835 42.1646 32.5076C39.3172 32.5076 36.9014 30.4588 35.9963 27.5359H54.8702ZM35.8919 22.8579C36.7065 19.778 39.2058 17.538 42.1577 17.538C45.1095 17.538 47.6158 19.778 48.4234 22.8579H35.8919Z" fill="white"/>
<path d="M72.4352 19.5999L77.4617 16.6838C76.7012 15.5522 75.722 14.5778 74.5794 13.8156C73.5441 13.138 72.397 12.6413 71.189 12.3473C69.561 11.9031 67.8577 11.7892 66.1833 12.0127C65.151 12.1494 64.1433 12.4276 63.1897 12.839C62.4431 13.1768 61.7416 13.6034 61.1011 14.1092C60.3519 14.6734 59.7147 15.3679 59.2214 16.158C58.9026 16.6877 58.6524 17.2544 58.4765 17.8448C58.1994 18.775 58.1049 19.7483 58.198 20.7131C58.2712 21.6378 58.5568 22.5344 59.0334 23.3355C59.2738 23.7115 59.5538 24.0617 59.8689 24.3803C60.7315 25.2665 61.7444 25.999 62.8625 26.5452C63.9288 27.0852 65.0612 27.4892 66.2321 27.7471C66.9283 27.9179 67.6593 28.0954 68.3764 28.2593C68.9004 28.3707 69.413 28.5284 69.908 28.7305C70.3072 28.8632 70.6744 29.0747 70.9871 29.352C71.301 29.6659 71.5036 30.0705 71.5649 30.5061C71.6215 30.9482 71.5233 31.3961 71.2864 31.7763C71.1328 32.0238 70.929 32.2376 70.6877 32.4046C70.3062 32.6829 69.87 32.8806 69.4067 32.9851C68.5979 33.2158 67.748 33.274 66.9143 33.1558C66.0292 33.0264 65.1847 32.7044 64.4429 32.2134C63.8846 31.8421 63.3949 31.3802 62.9948 30.8476L57.655 33.0876C57.7638 33.321 57.8847 33.549 58.017 33.7705C58.3787 34.3667 58.8136 34.9171 59.3119 35.4095C60.195 36.242 61.2261 36.9086 62.3543 37.3763C63.22 37.7621 64.1257 38.0551 65.0555 38.2504C66.1589 38.5044 67.2931 38.6055 68.4251 38.5509C69.7479 38.5003 71.0492 38.2061 72.2611 37.6836C73.599 37.0971 74.7878 36.2272 75.7421 35.1363C76.1165 34.7216 76.4369 34.2628 76.6959 33.7705C77.1491 32.8526 77.387 31.8469 77.3921 30.8271C77.4604 30.07 77.3668 29.3072 77.1175 28.5875C76.8681 27.8679 76.4685 27.2071 75.944 26.6476C75.1354 25.7372 74.1632 24.9802 73.0757 24.4145C72.0844 23.869 71.0452 23.4119 69.9706 23.0486C69.9706 23.0486 68.7453 22.5911 67.6384 22.2974L67.158 22.1745L66.3504 21.9765C66.0859 21.9013 65.9466 21.8535 65.877 21.8262C65.744 21.7843 65.6138 21.7341 65.4872 21.676C65.2747 21.5902 65.0698 21.4875 64.8745 21.3687C64.6865 21.2586 64.5213 21.115 64.3872 20.9453C64.2232 20.7146 64.1226 20.4465 64.0948 20.1667C64.0885 20.0575 64.0885 19.9481 64.0948 19.8389C64.097 19.7108 64.1087 19.583 64.1296 19.4565C64.1524 19.3297 64.1826 19.2043 64.2201 19.0809C64.2581 18.9706 64.3046 18.8633 64.3593 18.7599C64.4074 18.6748 64.4609 18.5927 64.5194 18.5141C64.5661 18.4514 64.6173 18.392 64.6726 18.3365C64.6726 18.3365 64.7144 18.2887 64.7213 18.2887C64.779 18.2247 64.8419 18.1653 64.9093 18.1111C65.0135 18.0263 65.1254 17.9508 65.2435 17.8858C65.3688 17.8107 65.4732 17.7629 65.5289 17.7355L65.7587 17.6194L66.0371 17.517L66.2042 17.4692L66.4757 17.4077C66.7612 17.3463 67.0675 17.3121 67.0814 17.3053C67.4051 17.2716 67.7307 17.258 68.0561 17.2643C68.668 17.2713 69.2737 17.3846 69.8453 17.599C70.1848 17.7307 70.5111 17.893 70.82 18.0838C71.001 18.1931 71.1263 18.2819 71.1542 18.3024C71.467 18.5133 71.7502 18.7635 71.9966 19.0467C72.0994 19.159 72.1947 19.2776 72.282 19.4019L72.4352 19.5999Z" fill="white"/>
<path d="M105.115 12.7502V38.0182H98.7582V35.669C97.9273 36.6189 96.8966 37.3812 95.7369 37.9034C94.5772 38.4257 93.316 38.6955 92.04 38.6943H91.7894C90.4384 38.6961 89.1003 38.4367 87.8516 37.9311C86.6029 37.4254 85.468 36.6833 84.5118 35.7472C83.5555 34.8111 82.7967 33.6994 82.2787 32.4755C81.7607 31.2516 81.4936 29.9396 81.4926 28.6144V12.839C81.4926 12.8136 81.5029 12.7893 81.5212 12.7714C81.5395 12.7534 81.5643 12.7434 81.5901 12.7434H87.8559V27.0437C87.8577 28.4444 88.4262 29.7871 89.4366 30.7769C90.4469 31.7667 91.8165 32.3227 93.2444 32.3227H93.5925C94.9644 32.3227 96.2801 31.7881 97.2502 30.8365C98.2202 29.8849 98.7652 28.5943 98.7652 27.2486V12.7502H105.115Z" fill="white"/>
<path d="M117.451 0H111.116V38.0386H117.451V0Z" fill="white"/>
<path d="M148.181 38.0386C151.722 38.0386 154.593 35.3327 154.593 31.9948C154.593 28.6568 151.722 25.9509 148.181 25.9509C144.64 25.9509 141.769 28.6568 141.769 31.9948C141.769 35.3327 144.64 38.0386 148.181 38.0386Z" fill="#F8B806"/>
<path d="M3.46334 54.312C3.46334 54.5784 3.46335 54.954 3.50512 55.391C3.50512 55.4388 3.56778 56.0739 3.64436 56.4769C3.80008 57.266 4.17329 57.9982 4.72346 58.5939C5.50759 59.3318 6.55395 59.7409 7.64051 59.7344C8.52409 59.6664 9.36788 59.3454 10.0672 58.8113C10.7664 58.2771 11.2904 57.5532 11.574 56.7296C11.5699 57.5149 11.3886 58.2896 11.0432 58.998C10.6977 59.7064 10.1966 60.3311 9.57594 60.8271C8.89342 61.3072 8.0936 61.6017 7.25761 61.6807C5.92017 61.8002 4.58638 61.417 3.526 60.6085C2.86519 60.0654 2.34707 59.3745 2.01527 58.5939C1.79224 58.117 1.63086 57.6146 1.53489 57.0983C1.32486 56.1834 1.29649 55.2374 1.45135 54.312C1.63405 53.1465 2.13981 52.0527 2.91336 51.1501C3.35895 50.6171 3.90794 50.176 4.52853 49.8526C5.65363 49.3028 6.93974 49.1578 8.16265 49.4428C8.65462 49.5216 9.12702 49.6907 9.55504 49.9413C10.2328 50.3811 10.7651 51.0053 11.0867 51.7374C11.3041 52.197 11.4541 52.6844 11.5322 53.1852C11.5943 53.5645 11.6199 53.9486 11.6088 54.3325L3.46334 54.312ZM7.53608 53.5608C7.8073 53.5606 8.07702 53.5215 8.3367 53.4447C8.62732 53.3894 8.89698 53.2572 9.11644 53.0623C9.26333 52.9015 9.37299 52.7114 9.43789 52.5051C9.50278 52.2988 9.52137 52.0812 9.49239 51.8672C9.44098 51.4385 9.23622 51.0417 8.91455 50.7472C8.51615 50.417 8.03531 50.1967 7.52143 50.1091C7.00755 50.0215 6.47916 50.0697 5.99053 50.2486C5.15602 50.5736 4.47726 51.1955 4.08992 51.9901C3.81544 52.4714 3.63815 53 3.56778 53.5471L7.53608 53.5608Z" fill="#F8B806"/>
<path d="M55.6778 54.3126C55.6778 54.5789 55.6778 54.9545 55.7196 55.3916C55.7196 55.4394 55.7822 56.0745 55.8588 56.4774C56.0169 57.2617 56.39 57.9889 56.9379 58.5808C57.7221 59.3186 58.7684 59.7277 59.855 59.7213C60.7386 59.6533 61.5823 59.3323 62.2816 58.7981C62.9809 58.2639 63.5048 57.5401 63.7885 56.7164C63.7844 57.5017 63.6031 58.2764 63.2576 58.9849C62.9122 59.6933 62.4111 60.318 61.7904 60.8139C61.1079 61.2941 60.3081 61.5886 59.4721 61.6676C58.1346 61.7871 56.8008 61.4038 55.7405 60.5954C55.085 60.0639 54.5673 59.3875 54.2297 58.6218C54.0067 58.1448 53.8453 57.6424 53.7494 57.1262C53.5393 56.2113 53.511 55.2653 53.6658 54.3399C53.8485 53.1744 54.3543 52.0806 55.1278 51.178C55.5734 50.6449 56.1224 50.2039 56.743 49.8804C57.8681 49.3306 59.1542 49.1856 60.3771 49.4707C60.8691 49.5494 61.3415 49.7186 61.7695 49.9692C62.4473 50.409 62.9796 51.0332 63.3011 51.7653C63.5186 52.2248 63.6686 52.7122 63.7467 53.2131C63.8087 53.5923 63.8344 53.9764 63.8233 54.3604L55.6778 54.3126ZM59.7505 53.5613C60.0218 53.5611 60.2915 53.522 60.5512 53.4453C60.8418 53.39 61.1114 53.2577 61.3309 53.0628C61.4778 52.902 61.5874 52.712 61.6523 52.5057C61.7172 52.2994 61.7358 52.0817 61.7068 51.8677C61.6554 51.4391 61.4507 51.0422 61.129 50.7477C60.7306 50.4175 60.2498 50.1973 59.7359 50.1096C59.222 50.022 58.6936 50.0702 58.205 50.2492C57.3705 50.5741 56.6917 51.1961 56.3044 51.9906C56.0299 52.4719 55.8526 53.0006 55.7822 53.5477L59.7505 53.5613Z" fill="#F8B806"/>
<path d="M14.3378 56.5457C14.49 57.0115 14.6713 57.4677 14.8808 57.9115C15.5144 59.2296 15.9182 60.09 16.8441 60.5749C17.5209 60.9208 18.303 61.0131 19.0441 60.8344C19.4071 60.7368 19.7381 60.5485 20.0048 60.2881C20.1681 60.1209 20.2959 59.9236 20.3808 59.7076C20.4763 59.4664 20.519 59.2081 20.5061 58.9496C20.5115 58.5808 20.4152 58.2175 20.2276 57.8979C20.065 57.6563 19.8542 57.4496 19.608 57.2901C19.2476 57.0319 18.8573 56.8165 18.4454 56.6481C17.7492 56.3203 17.3314 56.1496 17.0182 55.9652C16.4969 55.7622 15.9977 55.5083 15.5283 55.2072C15.1133 54.9088 14.771 54.524 14.5258 54.0804C14.318 53.6478 14.2102 53.1756 14.2102 52.6974C14.2102 52.2193 14.318 51.7471 14.5258 51.3145C15.222 49.8121 17.0112 49.2658 18.2783 49.3136C19.1251 49.344 19.9459 49.6092 20.6453 50.0785L21.808 49.3067V53.8413L20.1928 50.8092C19.6653 50.408 19.0278 50.1702 18.3618 50.1263C17.8556 50.0773 17.3457 50.1721 16.8928 50.3994C16.6161 50.5251 16.3765 50.7178 16.1967 50.9594C16.0833 51.1105 15.9963 51.279 15.9391 51.4579C15.8785 51.6804 15.862 51.9123 15.8903 52.1409C15.9077 52.3563 15.9769 52.5646 16.0922 52.7487C16.1863 52.8818 16.3015 52.9994 16.4334 53.097C16.6333 53.2621 16.8503 53.4063 17.0808 53.5272C17.777 53.8823 18.1808 54.0667 18.9257 54.3945C19.3912 54.5964 19.8445 54.8245 20.2833 55.0774C20.9508 55.384 21.5264 55.8545 21.9542 56.4433C22.2927 56.9868 22.4598 57.6165 22.4345 58.253C22.4276 58.8554 22.2622 59.4459 21.9542 59.9671C20.8403 61.7905 18.2365 61.7427 17.9928 61.7359C17.5762 61.7121 17.1632 61.6457 16.7606 61.5378C16.3715 61.453 16.0027 61.2953 15.6745 61.0734C15.5671 61.0008 15.4669 60.9185 15.3751 60.8276L14.303 61.7359L14.3378 56.5457Z" fill="#F8B806"/>
<path d="M39.9438 52.9126C39.9438 52.3867 39.9438 52.1272 39.8951 51.9428C39.8826 51.3773 39.6511 50.8377 39.2476 50.4336C38.9313 50.2045 38.5478 50.0823 38.1546 50.0853C37.602 50.0142 37.0423 50.1508 36.5882 50.4677C36.3475 50.6447 36.158 50.8801 36.0382 51.1506C35.704 51.8814 36.1217 52.3253 35.7527 52.9536C35.6272 53.1829 35.4259 53.3635 35.1819 53.4657C34.9994 53.5318 34.8022 53.5482 34.611 53.5134C34.4198 53.4785 34.2418 53.3936 34.0958 53.2677C33.9287 53.0855 33.8147 52.8625 33.7657 52.6222C33.7167 52.3819 33.7345 52.1331 33.8173 51.9019C33.9081 51.5737 34.0887 51.2761 34.3395 51.0414C35.1874 50.1912 36.2809 49.6167 37.4723 49.3955C38.1685 49.3068 39.9369 49.0677 41.1273 50.2902C41.7345 50.9507 42.0652 51.8116 42.0533 52.7009L42.0881 59.9603L44.4273 59.0862C43.7568 59.8751 43.021 60.6083 42.2273 61.2783C42.0347 61.4574 41.7919 61.5759 41.5302 61.6185C41.2684 61.661 40.9996 61.6258 40.7584 61.5173C40.4669 61.3221 40.2382 61.0495 40.0989 60.7315C39.9596 60.4134 39.9155 60.063 39.9717 59.7213C39.7907 59.8374 39.5052 60.0218 39.1641 60.2539C38.6097 60.7009 38.0047 61.0836 37.3609 61.3944C36.935 61.5744 36.4739 61.6607 36.0103 61.6471C35.5325 61.6409 35.0648 61.5114 34.6542 61.2716C34.2435 61.0319 33.9045 60.6903 33.6711 60.2813C33.2965 59.5978 33.19 58.8034 33.3717 58.0481C33.4554 57.6112 33.6283 57.1954 33.88 56.8257C34.2775 56.2924 34.8006 55.8613 35.4046 55.5691C35.857 55.3375 36.3218 55.1301 36.797 54.9477C37.3679 54.7086 37.6325 54.613 38.266 54.3672C38.6698 54.2101 39.2616 53.9711 39.9717 53.6843C39.9508 53.4862 39.9508 53.2267 39.9438 52.9126ZM39.9438 54.415C39.0945 54.7291 38.3983 55.0296 37.8552 55.2686C37.2358 55.4923 36.6713 55.8414 36.1983 56.293C35.907 56.5917 35.6839 56.9479 35.5439 57.3379C35.4543 57.6231 35.412 57.9205 35.4186 58.2188C35.3893 58.6294 35.4812 59.0395 35.6831 59.4003C35.842 59.6813 36.0851 59.9078 36.3793 60.0491C36.5687 60.1204 36.7684 60.1619 36.9711 60.172C37.2024 60.1984 37.436 60.1984 37.6673 60.172C38.5044 59.9401 39.2746 59.5191 39.916 58.9427L39.9438 54.415Z" fill="#F8B806"/>
<path d="M28.1643 46.7111V49.7159H30.9003V50.5969H28.1643V58.751C28.1159 58.9805 28.1354 59.2188 28.2205 59.4378C28.3056 59.6568 28.4528 59.8474 28.6447 59.9871C28.8924 60.1078 29.1734 60.1461 29.4453 60.0963C29.6549 60.0681 29.8577 60.0033 30.044 59.9051C30.3371 59.7507 30.6105 59.5627 30.8586 59.3451L31.1788 59.0856C31.0535 59.2973 30.8725 59.591 30.6288 59.9256C30.4142 60.2432 30.1669 60.5384 29.8909 60.8065C29.5872 61.1033 29.2246 61.3357 28.8257 61.4895C28.6865 61.5464 28.5419 61.5899 28.394 61.6192C27.9157 61.7093 27.4204 61.6242 27.0017 61.3802C26.7499 61.1976 26.5399 60.9654 26.3852 60.6984C26.2306 60.4314 26.1346 60.1356 26.1036 59.83C26.0752 59.6607 26.0612 59.4894 26.0618 59.3178V50.5833H23.9732L28.1643 46.7111Z" fill="#F8B806"/>
<path d="M48.8061 46.7111V49.7159H51.5421V50.5969H48.8061V58.751C48.7577 58.9805 48.7772 59.2188 48.8623 59.4378C48.9474 59.6568 49.0946 59.8474 49.2864 59.9871C49.5341 60.1078 49.8152 60.1461 50.0871 60.0963C50.2967 60.0681 50.4994 60.0033 50.6858 59.9051C50.9776 59.752 51.2488 59.5639 51.4934 59.3451L51.8206 59.0856C51.6953 59.2973 51.5143 59.591 51.2706 59.9256C51.0559 60.2432 50.8086 60.5384 50.5326 60.8065C50.2289 61.1033 49.8664 61.3357 49.4674 61.4895C49.3279 61.5455 49.1834 61.5889 49.0358 61.6192C48.5575 61.7093 48.0621 61.6242 47.6434 61.3802C47.3917 61.1976 47.1817 60.9654 47.027 60.6984C46.8723 60.4314 46.7764 60.1356 46.7453 59.83C46.717 59.6607 46.703 59.4894 46.7036 59.3178V50.5833H44.5941L48.8061 46.7111Z" fill="#F8B806"/>
</svg>
