<svg width="1920" height="734" viewBox="0 0 1920 734" fill="none" xmlns="http://www.w3.org/2000/svg">
<path d="M-47.125 1H-191V149M-47.125 1V149M-47.125 1H96.75M-47.125 149H-191M-47.125 149V297M-47.125 149H96.75M-191 149V297M-47.125 297H-191M-47.125 297V445M-47.125 297H96.75M-191 297V445M-47.125 445H-191M-47.125 445V593M-47.125 445H96.75M-191 445V593M-47.125 593H-191M-47.125 593V741M-47.125 593H96.75M-191 593V741M-47.125 741H-191M-47.125 741V889M-47.125 741H96.75M-191 741V889H-47.125M-47.125 889H96.75M96.75 1V149M96.75 1H240.625M96.75 149V297M96.75 149H240.625M96.75 297V445M96.75 297H240.625M96.75 445V593M96.75 445H240.625M96.75 593V741M96.75 593H240.625M96.75 741V889M96.75 741H240.625M96.75 889H240.625M240.625 1V149M240.625 1H384.5M240.625 149V297M240.625 149H384.5M240.625 297V445M240.625 297H384.5M240.625 445V593M240.625 445H384.5M240.625 593V741M240.625 593H384.5M240.625 741V889M240.625 741H384.5M240.625 889H384.5M384.5 1V149M384.5 1H528.375M384.5 149V297M384.5 149H528.375M384.5 297V445M384.5 297H528.375M384.5 445V593M384.5 445H528.375M384.5 593V741M384.5 593H528.375M384.5 741V889M384.5 741H528.375M384.5 889H528.375M528.375 1V149M528.375 1H672.25M528.375 149V297M528.375 149H672.25M528.375 297V445M528.375 297H672.25M528.375 445V593M528.375 445H672.25M528.375 593V741M528.375 593H672.25M528.375 741V889M528.375 741H672.25M528.375 889H672.25M672.25 1V149M672.25 1H816.125M672.25 149V297M672.25 149H816.125M672.25 297V445M672.25 297H816.125M672.25 445V593M672.25 445H816.125M672.25 593V741M672.25 593H816.125M672.25 741V889M672.25 741H816.125M672.25 889H816.125M816.125 1V149M816.125 1H960M816.125 149V297M816.125 149H960M816.125 297V445M816.125 297H960M816.125 445V593M816.125 445H960M816.125 593V741M816.125 593H960M816.125 741V889M816.125 741H960M816.125 889H960M960 1V149M960 1H1103.88M960 149V297M960 149H1103.88M960 297V445M960 297H1103.88M960 445V593M960 445H1103.88M960 593V741M960 593H1103.88M960 741V889M960 741H1103.88M960 889H1103.88M1103.88 1V149M1103.88 1H1247.75M1103.88 149V297M1103.88 149H1247.75M1103.88 297V445M1103.88 297H1247.75M1103.88 445V593M1103.88 445H1247.75M1103.88 593V741M1103.88 593H1247.75M1103.88 741V889M1103.88 741H1247.75M1103.88 889H1247.75M1247.75 1V149M1247.75 1H1391.62M1247.75 149V297M1247.75 149H1391.62M1247.75 297V445M1247.75 297H1391.62M1247.75 445V593M1247.75 445H1391.62M1247.75 593V741M1247.75 593H1391.62M1247.75 741V889M1247.75 741H1391.62M1247.75 889H1391.62M1391.62 1V149M1391.62 1H1535.5M1391.62 149V297M1391.62 149H1535.5M1391.62 297V445M1391.62 297H1535.5M1391.62 445V593M1391.62 445H1535.5M1391.62 593V741M1391.62 593H1535.5M1391.62 741V889M1391.62 741H1535.5M1391.62 889H1535.5M1535.5 1V149M1535.5 1H1679.38M1535.5 149V297M1535.5 149H1679.38M1535.5 297V445M1535.5 297H1679.38M1535.5 445V593M1535.5 445H1679.38M1535.5 593V741M1535.5 593H1679.38M1535.5 741V889M1535.5 741H1679.38M1535.5 889H1679.38M1679.38 1V149M1679.38 1H1823.25M1679.38 149V297M1679.38 149H1823.25M1679.38 297V445M1679.38 297H1823.25M1679.38 445V593M1679.38 445H1823.25M1679.38 593V741M1679.38 593H1823.25M1679.38 741V889M1679.38 741H1823.25M1679.38 889H1823.25M1823.25 1V149M1823.25 1H1967.12M1823.25 149V297M1823.25 149H1967.12M1823.25 297V445M1823.25 297H1967.12M1823.25 445V593M1823.25 445H1967.12M1823.25 593V741M1823.25 593H1967.12M1823.25 741V889M1823.25 741H1967.12M1823.25 889H1967.12M1967.12 1V149M1967.12 1H2111V149M1967.12 149V297M1967.12 149H2111M1967.12 297V445M1967.12 297H2111M1967.12 445V593M1967.12 445H2111M1967.12 593V741M1967.12 593H2111M1967.12 741V889M1967.12 741H2111M1967.12 889H2111V741M2111 149V297M2111 297V445M2111 445V593M2111 593V741" stroke="url(#paint0_radial_219_1136)" stroke-opacity="0.1"/>
<defs>
<radialGradient id="paint0_radial_219_1136" cx="0" cy="0" r="1" gradientUnits="userSpaceOnUse" gradientTransform="translate(960 445) rotate(90) scale(444 1151)">
<stop stop-color="#CFD1D3"/>
<stop offset="1" stop-color="#CFD1D3" stop-opacity="0"/>
</radialGradient>
</defs>
</svg>
