<svg width="22" height="23" viewBox="0 0 22 23" fill="none" xmlns="http://www.w3.org/2000/svg">
<path d="M11 0.130859C8.84913 0.130859 6.74656 0.783163 4.95818 2.00528C3.16979 3.2274 1.77592 4.96444 0.952815 6.99675C0.129712 9.02906 -0.0856493 11.2654 0.333965 13.4228C0.753579 15.5803 1.78932 17.5621 3.31022 19.1176C4.83111 20.673 6.76885 21.7323 8.8784 22.1615C10.9879 22.5906 13.1745 22.3704 15.1617 21.5286C17.1488 20.6867 18.8473 19.2612 20.0422 17.4322C21.2372 15.6031 21.875 13.4528 21.875 11.253C21.8716 8.3043 20.7248 5.47734 18.6861 3.39228C16.6473 1.30721 13.8832 0.13431 11 0.130859ZM3.12501 11.253C3.12501 9.11697 3.95469 7.06841 5.43154 5.558C6.90839 4.04758 8.91142 3.19904 11 3.19904C13.0886 3.19904 15.0916 4.04758 16.5685 5.558C18.0453 7.06841 18.875 9.11697 18.875 11.253C18.4438 21.9341 3.55625 21.938 3.12501 11.253Z" fill="white"/>
<path d="M4.92875 15.0461C5.70909 16.3534 6.87131 17.3771 8.25125 17.9723C7.49358 17.1333 6.92521 16.1343 6.58625 15.0461H4.92875ZM10.625 18.5054V15.0461H7.37375C8.06 16.9637 9.24875 18.2983 10.625 18.5054ZM11.375 15.0461V18.5054C12.7513 18.2983 13.94 16.9637 14.6263 15.0461H11.375ZM13.7488 17.9723C15.1287 17.3771 16.2909 16.3534 17.0713 15.0461H15.4138C15.0748 16.1343 14.5064 17.1333 13.7488 17.9723ZM17.4725 8.22703H15.6388C15.8852 9.21587 16.0087 10.2326 16.0063 11.253C16.0093 12.2738 15.8846 13.2907 15.635 14.279H17.4725C17.8969 13.3293 18.1166 12.2973 18.1166 11.253C18.1166 10.2088 17.8969 9.17678 17.4725 8.22703ZM17.0713 7.45998C16.2914 6.15362 15.1307 5.1302 13.7525 4.5337C14.5077 5.37403 15.0746 6.37265 15.4138 7.45998H17.0713ZM11.375 4.0006V7.45998H14.6263C13.94 5.54237 12.7513 4.20771 11.375 4.0006ZM7.37375 7.45998H10.625V4.0006C9.24875 4.20771 8.06 5.54237 7.37375 7.45998ZM8.2475 4.5337C6.86927 5.1302 5.70858 6.15362 4.92875 7.45998H6.58625C6.92544 6.37265 7.49236 5.37403 8.2475 4.5337ZM5.99375 11.253C5.99133 10.2326 6.1148 9.21587 6.36125 8.22703H4.5275C4.10311 9.17678 3.88346 10.2088 3.88346 11.253C3.88346 12.2973 4.10311 13.3293 4.5275 14.279H6.365C6.11544 13.2907 5.99067 12.2738 5.99375 11.253ZM6.74375 11.253C6.74147 12.2749 6.87263 13.2926 7.13375 14.279H10.625V8.22703H7.13375C6.87262 9.21344 6.74146 10.2311 6.74375 11.253ZM14.8663 8.22703H11.375V14.279H14.8663C15.38 12.2959 15.38 10.2101 14.8663 8.22703Z" fill="white"/>
</svg>
