<svg width="24" height="24" viewBox="0 0 24 24" fill="none" xmlns="http://www.w3.org/2000/svg">
<path d="M18.0423 7.42724C17.9017 7.06536 17.7338 6.80688 17.4624 6.53548C17.1911 6.26407 16.9327 6.09606 16.5709 5.95551C16.2979 5.84889 15.8877 5.72288 15.1318 5.68895C14.3145 5.65179 14.069 5.64372 11.9984 5.64372C11.74 5.64372 11.509 5.64372 11.3023 5.64372C9.85675 5.64372 9.58056 5.65341 8.86506 5.68572C8.10918 5.71965 7.69893 5.84566 7.42597 5.95228C7.06418 6.09283 6.80576 6.26084 6.53442 6.53225C6.26308 6.80365 6.0951 7.06213 5.95458 7.42401C5.84799 7.69703 5.722 8.10737 5.68809 8.86343C5.65094 9.68087 5.64286 9.92482 5.64286 11.9959C5.64286 14.067 5.65094 14.3125 5.68809 15.13C5.722 15.886 5.8496 16.2964 5.95458 16.5694C6.0951 16.9313 6.26308 17.1898 6.53442 17.4612C6.80576 17.7326 7.06418 17.9006 7.42597 18.0411C7.69893 18.1478 8.10918 18.2738 8.86506 18.3093C9.68232 18.3465 9.92782 18.3545 11.9984 18.3545C14.069 18.3545 14.3145 18.3465 15.1318 18.3093C15.8877 18.2754 16.2979 18.1494 16.5709 18.0427C16.9327 17.9022 17.1911 17.7342 17.4624 17.4628C17.7338 17.1914 17.9017 16.9345 18.0423 16.5726C18.1489 16.2996 18.2748 15.8893 18.3088 15.1332C18.3459 14.3158 18.354 14.0702 18.354 12.0007C18.354 9.93128 18.3459 9.68572 18.3088 8.86827C18.2748 8.11222 18.1472 7.70188 18.0423 7.42885V7.42724ZM11.9984 15.983C9.80022 15.983 8.01711 14.2011 8.01711 12.0007C8.01711 9.80042 9.80022 8.01852 11.9984 8.01852C14.1966 8.01852 15.9797 9.80204 15.9797 12.0007C15.9797 14.1995 14.1982 15.983 11.9984 15.983ZM16.1364 8.79234C15.6228 8.79234 15.2061 8.37554 15.2061 7.86181C15.2061 7.34808 15.6228 6.93128 16.1364 6.93128C16.65 6.93128 17.0667 7.34808 17.0667 7.86181C17.0667 8.37554 16.65 8.79234 16.1364 8.79234Z" fill="white"/>
<path d="M11.9984 14.5856C13.4256 14.5856 14.5826 13.4284 14.5826 12.0008C14.5826 10.5733 13.4256 9.41602 11.9984 9.41602C10.5712 9.41602 9.41416 10.5733 9.41416 12.0008C9.41416 13.4284 10.5712 14.5856 11.9984 14.5856Z" fill="white"/>
<path d="M22.4806 6.05089C22.4144 5.20759 22.2706 4.64055 21.9751 4.0412C21.7328 3.55008 21.4647 3.18498 21.0754 2.81018C20.3809 2.1462 19.5314 1.74233 18.5187 1.59693C18.0277 1.52585 17.9308 1.50485 15.4209 1.5H12.0032C7.61975 1.5 6.33733 1.50485 6.0886 1.52585C5.18897 1.60016 4.62852 1.74233 4.01961 2.04604C3.54961 2.28029 3.17813 2.55008 2.81311 2.92973C2.14605 3.62116 1.74227 4.47092 1.59691 5.48384C1.52584 5.97496 1.50485 6.07512 1.5 8.58239C1.5 9.41922 1.5 10.5194 1.5 11.996C1.5 16.3772 1.50485 17.6583 1.52584 17.9071C1.59852 18.7827 1.73581 19.3336 2.02653 19.9362C2.58214 21.0897 3.64329 21.9556 4.8934 22.2787C5.32626 22.3901 5.80434 22.4515 6.41809 22.4806C6.67813 22.4919 9.32856 22.5 11.9806 22.5C14.6327 22.5 17.2847 22.4968 17.5383 22.4838C18.249 22.4499 18.6624 22.395 19.1179 22.2771C20.3761 21.9523 21.4179 21.0994 21.9848 19.9297C22.269 19.3417 22.4144 18.7698 22.4806 17.9394C22.4952 17.7585 22.5 14.8732 22.5 11.9927C22.5 9.11228 22.4935 6.23182 22.479 6.05089H22.4806ZM19.7042 15.1979C19.6654 16.0234 19.5346 16.5872 19.344 17.08C19.1454 17.5905 18.8805 18.0218 18.4492 18.4531C18.018 18.8845 17.5868 19.1494 17.0764 19.3481C16.5838 19.5404 16.0185 19.6712 15.1931 19.7084C14.3662 19.7456 14.1029 19.7552 11.9968 19.7552C9.89063 19.7552 9.62736 19.7456 8.80042 19.7084C7.97508 19.6712 7.4114 19.5404 6.91878 19.3481C6.4084 19.1494 5.97716 18.8845 5.54592 18.4531C5.11467 18.0218 4.84979 17.5889 4.65113 17.08C4.45893 16.5872 4.32972 16.0234 4.29096 15.1979C4.25381 14.3708 4.24412 14.1074 4.24412 12.0008C4.24412 9.89418 4.25381 9.63086 4.29096 8.80371C4.3281 7.97819 4.45893 7.41438 4.65113 6.92165C4.84979 6.41115 5.11467 5.97981 5.54592 5.54846C5.97716 5.11712 6.41001 4.85218 6.91878 4.65509C7.4114 4.46284 7.97508 4.33199 8.80042 4.29483C9.62736 4.25767 9.89225 4.24798 11.9952 4.24798H11.9984C14.1029 4.24798 14.3662 4.25767 15.1931 4.29483C16.0185 4.33199 16.5821 4.46284 17.0764 4.65509C17.5868 4.85218 18.018 5.11712 18.4492 5.54846C18.8805 5.97981 19.1454 6.41276 19.344 6.92165C19.5346 7.41438 19.6654 7.97819 19.7042 8.80371C19.7413 9.63086 19.751 9.8958 19.751 12.0008C19.751 14.1058 19.7413 14.3708 19.7042 15.1979Z" fill="white"/>
</svg>
