<svg width="24" height="24" viewBox="0 0 24 24" fill="none" xmlns="http://www.w3.org/2000/svg">
<path fill-rule="evenodd" clip-rule="evenodd" d="M12 22.5C17.799 22.5 22.5 17.799 22.5 12C22.5 6.20101 17.799 1.5 12 1.5C6.20101 1.5 1.5 6.20101 1.5 12C1.5 17.799 6.20101 22.5 12 22.5ZM16.2219 6.8115C16.7591 6.57566 17.3334 7.05249 17.2399 7.65659L15.8564 16.5946C15.7723 17.1379 15.1938 17.4212 14.7442 17.1392L10.7355 14.6254C10.3177 14.3634 10.2488 13.7566 10.5961 13.3985L14.1766 9.70697C14.3047 9.57485 14.1412 9.36157 13.9912 9.4652L9.01709 12.9017C8.64939 13.1558 8.19344 13.2251 7.77236 13.091L5.5661 12.3884C5.1666 12.2612 5.13842 11.6778 5.52361 11.5086L16.2219 6.8115Z" fill="white"/>
</svg>
