<svg width="68" height="68" viewBox="0 0 68 68" fill="none" xmlns="http://www.w3.org/2000/svg">
<g clip-path="url(#clip0_4175_157)">
<mask id="mask0_4175_157" style="mask-type:luminance" maskUnits="userSpaceOnUse" x="-13" y="-13" width="94" height="94">
<path d="M-12.8999 -12.9H80.9001V80.8999H-12.8999V-12.9Z" fill="white"/>
</mask>
<g mask="url(#mask0_4175_157)">
<path d="M67.5 34C67.5 15.4985 52.5015 0.500038 34 0.500038C15.4985 0.500038 0.5 15.4985 0.5 34C0.5 49.7108 11.3158 62.8933 25.9072 66.5135V44.2371H18.9992V34H25.9072V29.5889C25.9072 18.1865 31.0673 12.9016 42.2616 12.9016C44.3839 12.9016 48.046 13.3177 49.5441 13.7339V23.0139C48.7534 22.9307 47.3802 22.889 45.6739 22.889C40.1809 22.889 38.0585 24.9698 38.0585 30.3796V34H49.0008L47.121 44.2371H38.0585V67.2546C54.6458 65.2512 67.5 51.1276 67.5 34Z" fill="#0866FF"/>
<path d="M47.121 44.2371L49.0009 34H38.0586V30.3795C38.0586 24.9696 40.1809 22.889 45.674 22.889C47.3802 22.889 48.7534 22.9306 49.5442 23.0138V13.7339C48.046 13.3177 44.384 12.9015 42.2617 12.9015C31.0674 12.9015 25.9072 18.1866 25.9072 29.5889V34H18.9993V44.2371H25.9072V66.5135C28.4992 67.1564 31.2093 67.5 34 67.5C35.3741 67.5 36.728 67.4153 38.0586 67.2546V44.2371H47.121Z" fill="white"/>
</g>
</g>
<defs>
<clipPath id="clip0_4175_157">
<rect width="67" height="67" fill="white" transform="translate(0.5 0.5)"/>
</clipPath>
</defs>
</svg>
