<svg width="41" height="41" viewBox="0 0 41 41" fill="none" xmlns="http://www.w3.org/2000/svg">
<path fill-rule="evenodd" clip-rule="evenodd" d="M20.6667 38C30.3317 38 38.1667 30.165 38.1667 20.5C38.1667 10.835 30.3317 3 20.6667 3C11.0018 3 3.16675 10.835 3.16675 20.5C3.16675 30.165 11.0018 38 20.6667 38ZM27.7033 11.8525C28.5985 11.4594 29.5558 12.2541 29.4 13.261L27.094 28.1577C26.9538 29.0632 25.9898 29.5353 25.2404 29.0654L18.5592 24.8756C17.8629 24.4389 17.748 23.4276 18.3269 22.8308L24.2944 16.6783C24.5079 16.4581 24.2355 16.1026 23.9855 16.2753L15.6952 22.0029C15.0824 22.4263 14.3225 22.5418 13.6207 22.3183L9.94358 21.1474C9.27774 20.9353 9.23078 19.9629 9.87277 19.6811L27.7033 11.8525Z" fill="white"/>
</svg>
